SplineFontDB: 3.0
FontName: DroidSans
FullName: Droid Sans
FamilyName: Droid Sans
Weight: Book
Copyright: Digitized data copyright (c) 2007, Google Corporation.
Version: 1.00 build 113
ItalicAngle: 0
UnderlinePosition: -103
UnderlineWidth: 102
Ascent: 1638
Descent: 410
sfntRevision: 0x00010000
LayerCount: 2
Layer: 0 1 "Back"  1
Layer: 1 1 "Fore"  0
NeedsXUIDChange: 1
XUID: [1021 212 293451659 14637589]
FSType: 8
OS2Version: 3
OS2_WeightWidthSlopeOnly: 0
OS2_UseTypoMetrics: 1
CreationTime: 1165263488
ModificationTime: 1294924881
PfmFamily: 17
TTFWeight: 400
TTFWidth: 5
LineGap: 0
VLineGap: 0
Panose: 2 11 6 6 3 8 4 2 2 4
OS2TypoAscent: -71
OS2TypoAOffset: 1
OS2TypoDescent: -82
OS2TypoDOffset: 1
OS2TypoLinegap: 132
OS2WinAscent: -245
OS2WinAOffset: 1
OS2WinDescent: -72
OS2WinDOffset: 1
HheadAscent: -245
HheadAOffset: 1
HheadDescent: 72
HheadDOffset: 1
OS2SubXSize: 1434
OS2SubYSize: 1331
OS2SubXOff: 0
OS2SubYOff: 286
OS2SupXSize: 1434
OS2SupYSize: 1331
OS2SupXOff: 0
OS2SupYOff: 976
OS2StrikeYSize: 102
OS2StrikeYPos: 498
OS2Vendor: '1ASC'
OS2CodePages: 2000019f.00000000
OS2UnicodeRanges: e00002ef.4000205b.00000028.00000000
Lookup: 258 8 0 "'kern' Horizontal Kerning in Latin lookup 0"  {"'kern' Horizontal Kerning in Latin lookup 0 subtable"  } ['kern' ('latn' <'dflt' > ) ]
DEI: 91125
TtTable: prep
NPUSHB
 16
 9
 248
 3
 255
 31
 143
 247
 159
 247
 2
 127
 243
 1
 96
 242
 1
PUSHW_1
 -24
NPUSHB
 43
 235
 12
 16
 70
 223
 51
 221
 85
 222
 255
 220
 85
 48
 221
 1
 221
 1
 3
 85
 220
 3
 250
 31
 48
 194
 1
 111
 192
 239
 192
 2
 252
 182
 24
 31
 48
 183
 1
 96
 183
 128
 183
 2
PUSHW_1
 -64
NPUSHB
 56
 183
 15
 19
 70
 231
 177
 1
 31
 175
 47
 175
 63
 175
 3
 79
 175
 95
 175
 111
 175
 3
 64
 175
 15
 19
 70
 172
 81
 24
 31
 31
 156
 95
 156
 2
 224
 155
 1
 3
 43
 154
 1
 31
 154
 1
 144
 154
 160
 154
 2
 115
 154
 131
 154
 2
 5
PUSHW_1
 -22
NPUSHB
 25
 154
 9
 11
 70
 175
 151
 191
 151
 2
 3
 43
 150
 1
 31
 150
 1
 159
 150
 175
 150
 2
 124
 150
 1
 5

StartChar: .notdef
Encoding: -1 -1 0
Width: 1229
GlyphClass: 2
Flags: W
LayerCount: 2
Fore
SplineSet
193 1462 m 1,0,-1
 1034 1462 l 1,1,-1
 1034 0 l 1,2,-1
 193 0 l 1,3,-1
 193 1462 l 1,0,-1
297 104 m 1,4,-1
 930 104 l 1,5,-1
 930 1358 l 1,6,-1
 297 1358 l 1,7,-1
 297 104 l 1,4,-1
EndSplineSet
EndChar

StartChar: exclam
Encoding: 33 33 4
Width: 551
GlyphClass: 2
Flags: W
LayerCount: 2
Fore
SplineSet
336 414 m 1,0,-1
 215 414 l 1,1,-1
 164 1462 l 1,2,-1
 387 1462 l 1,3,-1
 336 414 l 1,0,-1
147 111 m 0,4,5
 147 149 147 149 157 175.5 c 128,-1,6
 167 202 167 202 184 218.5 c 128,-1,7
 201 235 201 235 224 242.5 c 128,-1,8
 247 250 247 250 274 250 c 0,9,10
 300 250 300 250 323.5 242.5 c 128,-1,11
 347 235 347 235 364 218.5 c 128,-1,12
 381 202 381 202 391 175.5 c 128,-1,13
 401 149 401 149 401 111 c 0,14,15
 401 74 401 74 391 47.5 c 128,-1,16
 381 21 381 21 364 4 c 128,-1,17
 347 -13 347 -13 323.5 -21 c 128,-1,18
 300 -29 300 -29 274 -29 c 0,19,20
 247 -29 247 -29 224 -21 c 128,-1,21
 201 -13 201 -13 184 4 c 128,-1,22
 167 21 167 21 157 47.5 c 128,-1,23
 147 74 147 74 147 111 c 0,4,5
EndSplineSet
EndChar

StartChar: quotedbl
Encoding: 34 34 5
Width: 823
GlyphClass: 2
Flags: W
LayerCount: 2
Fore
SplineSet
330 1462 m 1,0,-1
 289 934 l 1,1,-1
 174 934 l 1,2,-1
 133 1462 l 1,3,-1
 330 1462 l 1,0,-1
690 1462 m 1,4,-1
 649 934 l 1,5,-1
 535 934 l 1,6,-1
 494 1462 l 1,7,-1
 690 1462 l 1,4,-1
EndSplineSet
EndChar

StartChar: numbersign
Encoding: 35 35 6
Width: 1323
GlyphClass: 2
Flags: W
LayerCount: 2
Fore
SplineSet
983 893 m 1,0,-1
 920 565 l 1,1,-1
 1200 565 l 1,2,-1
 1200 428 l 1,3,-1
 893 428 l 1,4,-1
 811 0 l 1,5,-1
 664 0 l 1,6,-1
 748 428 l 1,7,-1
 457 428 l 1,8,-1
 375 0 l 1,9,-1
 231 0 l 1,10,-1
 309 428 l 1,11,-1
 51 428 l 1,12,-1
 51 565 l 1,13,-1
 336 565 l 1,14,-1
 401 893 l 1,15,-1
 127 893 l 1,16,-1
 127 1030 l 1,17,-1
 426 1030 l 1,18,-1
 508 1462 l 1,19,-1
 655 1462 l 1,20,-1
 573 1030 l 1,21,-1
 866 1030 l 1,22,-1
 950 1462 l 1,23,-1
 1094 1462 l 1,24,-1
 1010 1030 l 1,25,-1
 1272 1030 l 1,26,-1
 1272 893 l 1,27,-1
 983 893 l 1,0,-1
483 565 m 1,28,-1
 774 565 l 1,29,-1
 838 893 l 1,30,-1
 547 893 l 1,31,-1
 483 565 l 1,28,-1
EndSplineSet
EndChar

StartChar: dollar
Encoding: 36 36 7
Width: 1128
GlyphClass: 2
Flags: W
LayerCount: 2
Fore
SplineSet
985 446 m 0,0,1
 985 376 985 376 960 319 c 128,-1,2
 935 262 935 262 888.5 220 c 128,-1,3
 842 178 842 178 775.5 150.5 c 128,-1,4
 709 123 709 123 625 111 c 1,5,-1
 625 -119 l 1,6,-1
 487 -119 l 1,7,-1
 487 102 l 1,8,9
 437 102 437 102 386 106.5 c 128,-1,10
 335 111 335 111 287 120 c 128,-1,11
 239 129 239 129 197 142 c 128,-1,12
 155 155 155 155 123 172 c 1,13,-1
 123 344 l 1,14,15
 156 328 156 328 199.5 311.5 c 128,-1,16
 243 295 243 295 291 282 c 128,-1,17
 339 269 339 269 389.5 260.5 c 128,-1,18
 440 252 440 252 487 252 c 1,19,-1
 487 686 l 1,20,21
 398 716 398 716 332.5 749 c 128,-1,22
 267 782 267 782 224 824.5 c 128,-1,23
 181 867 181 867 160 922 c 128,-1,24
 139 977 139 977 139 1051 c 0,25,26
 139 1118 139 1118 163.5 1173.5 c 128,-1,27
 188 1229 188 1229 233.5 1270.5 c 128,-1,28
 279 1312 279 1312 343.5 1338.5 c 128,-1,29
 408 1365 408 1365 487 1374 c 1,30,-1
 487 1554 l 1,31,-1
 625 1554 l 1,32,-1
 625 1378 l 1,33,34
 725 1373 725 1373 809.5 1352 c 128,-1,35
 894 1331 894 1331 961 1300 c 1,36,-1
 895 1155 l 1,37,38
 839 1180 839 1180 769 1200.5 c 128,-1,39
 699 1221 699 1221 625 1227 c 1,40,-1
 625 805 l 1,41,42
 713 774 713 774 780.5 741 c 128,-1,43
 848 708 848 708 893.5 666.5 c 128,-1,44
 939 625 939 625 962 571.5 c 128,-1,45
 985 518 985 518 985 446 c 0,0,1
809 446 m 0,46,47
 809 479 809 479 799 506.5 c 128,-1,48
 789 534 789 534 767.5 556.5 c 128,-1,49
 746 579 746 579 711 598 c 128,-1,50
 676 617 676 617 625 635 c 1,51,-1
 625 262 l 1,52,53
 718 276 718 276 763.5 325 c 128,-1,54
 809 374 809 374 809 446 c 0,46,47
315 1049 m 0,55,56
 315 1013 315 1013 323.5 984.5 c 128,-1,57
 332 956 332 956 352 932.5 c 128,-1,58
 372 909 372 909 405 890 c 128,-1,59
 438 871 438 871 487 854 c 1,60,-1
 487 1223 l 1,61,62
 398 1207 398 1207 356.5 1162.5 c 128,-1,63
 315 1118 315 1118 315 1049 c 0,55,56
EndSplineSet
EndChar

StartChar: percent
Encoding: 37 37 8
Width: 1690
GlyphClass: 2
Flags: W
LayerCount: 2
Fore
SplineSet
250 1026 m 256,0,1
 250 861 250 861 285.5 778.5 c 128,-1,2
 321 696 321 696 401 696 c 0,3,4
 557 696 557 696 557 1026 c 0,5,6
 557 1354 557 1354 401 1354 c 0,7,8
 321 1354 321 1354 285.5 1272.5 c 128,-1,9
 250 1191 250 1191 250 1026 c 256,0,1
705 1026 m 256,10,11
 705 918 705 918 687 832 c 128,-1,12
 669 746 669 746 632 687 c 128,-1,13
 595 628 595 628 537.5 596.5 c 128,-1,14
 480 565 480 565 401 565 c 0,15,16
 328 565 328 565 272 596.5 c 128,-1,17
 216 628 216 628 178 687 c 128,-1,18
 140 746 140 746 121 832 c 128,-1,19
 102 918 102 918 102 1026 c 256,20,21
 102 1134 102 1134 119.5 1219 c 128,-1,22
 137 1304 137 1304 173.5 1362.5 c 128,-1,23
 210 1421 210 1421 266.5 1452 c 128,-1,24
 323 1483 323 1483 401 1483 c 0,25,26
 476 1483 476 1483 532.5 1452 c 128,-1,27
 589 1421 589 1421 627.5 1362.5 c 128,-1,28
 666 1304 666 1304 685.5 1219 c 128,-1,29
 705 1134 705 1134 705 1026 c 256,10,11
1133 440 m 256,30,31
 1133 275 1133 275 1168.5 193 c 128,-1,32
 1204 111 1204 111 1284 111 c 0,33,34
 1440 111 1440 111 1440 440 c 0,35,36
 1440 768 1440 768 1284 768 c 0,37,38
 1204 768 1204 768 1168.5 686.5 c 128,-1,39
 1133 605 1133 605 1133 440 c 256,30,31
1587 440 m 256,40,41
 1587 332 1587 332 1569.5 246.5 c 128,-1,42
 1552 161 1552 161 1515 102 c 128,-1,43
 1478 43 1478 43 1420.5 11.5 c 128,-1,44
 1363 -20 1363 -20 1284 -20 c 0,45,46
 1210 -20 1210 -20 1154 11.5 c 128,-1,47
 1098 43 1098 43 1060.5 102 c 128,-1,48
 1023 161 1023 161 1004 246.5 c 128,-1,49
 985 332 985 332 985 440 c 256,50,51
 985 548 985 548 1002.5 633 c 128,-1,52
 1020 718 1020 718 1056.5 776.5 c 128,-1,53
 1093 835 1093 835 1149.5 866 c 128,-1,54
 1206 897 1206 897 1284 897 c 0,55,56
 1359 897 1359 897 1415.5 866 c 128,-1,57
 1472 835 1472 835 1510 776.5 c 128,-1,58
 1548 718 1548 718 1567.5 633 c 128,-1,59
 1587 548 1587 548 1587 440 c 256,40,41
1331 1462 m 1,60,-1
 520 0 l 1,61,-1
 362 0 l 1,62,-1
 1174 1462 l 1,63,-1
 1331 1462 l 1,60,-1
EndSplineSet
EndChar

StartChar: ampersand
Encoding: 38 38 9
Width: 1438
GlyphClass: 2
Flags: W
LayerCount: 2
Fore
SplineSet
422 1165 m 0,0,1
 422 1131 422 1131 430 1098.5 c 128,-1,2
 438 1066 438 1066 454.5 1033.5 c 128,-1,3
 471 1001 471 1001 497 967.5 c 128,-1,4
 523 934 523 934 559 897 c 1,5,6
 618 932 618 932 661 963 c 128,-1,7
 704 994 704 994 732 1026 c 128,-1,8
 760 1058 760 1058 774 1093 c 128,-1,9
 788 1128 788 1128 788 1169 c 0,10,11
 788 1205 788 1205 775.5 1235.5 c 128,-1,12
 763 1266 763 1266 739.5 1288 c 128,-1,13
 716 1310 716 1310 683 1322.5 c 128,-1,14
 650 1335 650 1335 608 1335 c 0,15,16
 522 1335 522 1335 472 1290.5 c 128,-1,17
 422 1246 422 1246 422 1165 c 0,0,1
557 141 m 0,18,19
 615 141 615 141 664 152.5 c 128,-1,20
 713 164 713 164 755 184 c 128,-1,21
 797 204 797 204 833 231 c 128,-1,22
 869 258 869 258 901 289 c 1,23,-1
 514 696 l 1,24,25
 462 663 462 663 422 631.5 c 128,-1,26
 382 600 382 600 354.5 564 c 128,-1,27
 327 528 327 528 313 485.5 c 128,-1,28
 299 443 299 443 299 387 c 0,29,30
 299 333 299 333 316.5 287.5 c 128,-1,31
 334 242 334 242 367 209.5 c 128,-1,32
 400 177 400 177 448 159 c 128,-1,33
 496 141 496 141 557 141 c 0,18,19
109 381 m 0,34,35
 109 459 109 459 129 520 c 128,-1,36
 149 581 149 581 187.5 631 c 128,-1,37
 226 681 226 681 281.5 724 c 128,-1,38
 337 767 337 767 408 809 c 1,39,40
 377 845 377 845 347 883.5 c 128,-1,41
 317 922 317 922 294.5 965.5 c 128,-1,42
 272 1009 272 1009 258 1058.5 c 128,-1,43
 244 1108 244 1108 244 1165 c 0,44,45
 244 1240 244 1240 269 1299.5 c 128,-1,46
 294 1359 294 1359 341 1400.5 c 128,-1,47
 388 1442 388 1442 457 1463.5 c 128,-1,48
 526 1485 526 1485 614 1485 c 0,49,50
 697 1485 697 1485 762.5 1463.5 c 128,-1,51
 828 1442 828 1442 873.5 1400.5 c 128,-1,52
 919 1359 919 1359 943 1299.5 c 128,-1,53
 967 1240 967 1240 967 1165 c 0,54,55
 967 1101 967 1101 942 1046.5 c 128,-1,56
 917 992 917 992 875 945.5 c 128,-1,57
 833 899 833 899 778.5 859.5 c 128,-1,58
 724 820 724 820 664 784 c 1,59,-1
 1016 412 l 1,60,61
 1043 441 1043 441 1064.5 471 c 128,-1,62
 1086 501 1086 501 1103 535 c 128,-1,63
 1120 569 1120 569 1133.5 608 c 128,-1,64
 1147 647 1147 647 1157 694 c 1,65,-1
 1341 694 l 1,66,67
 1326 628 1326 628 1305.5 572.5 c 128,-1,68
 1285 517 1285 517 1258.5 468 c 128,-1,69
 1232 419 1232 419 1199.5 376.5 c 128,-1,70
 1167 334 1167 334 1128 293 c 1,71,-1
 1405 0 l 1,72,-1
 1180 0 l 1,73,-1
 1012 172 l 1,74,75
 963 127 963 127 915 91.5 c 128,-1,76
 867 56 867 56 813 31.5 c 128,-1,77
 759 7 759 7 697 -6.5 c 128,-1,78
 635 -20 635 -20 557 -20 c 0,79,80
 452 -20 452 -20 368.5 6.5 c 128,-1,81
 285 33 285 33 227.5 84.5 c 128,-1,82
 170 136 170 136 139.5 210.5 c 128,-1,83
 109 285 109 285 109 381 c 0,34,35
EndSplineSet
EndChar

StartChar: quotesingle
Encoding: 39 39 10
Width: 463
GlyphClass: 2
Flags: W
LayerCount: 2
Fore
SplineSet
330 1462 m 1,0,-1
 289 934 l 1,1,-1
 174 934 l 1,2,-1
 133 1462 l 1,3,-1
 330 1462 l 1,0,-1
EndSplineSet
EndChar

StartChar: parenleft
Encoding: 40 40 11
Width: 616
GlyphClass: 2
Flags: W
LayerCount: 2
Fore
SplineSet
82 561 m 0,0,1
 82 686 82 686 100 807.5 c 128,-1,2
 118 929 118 929 155 1043.5 c 128,-1,3
 192 1158 192 1158 248.5 1263.5 c 128,-1,4
 305 1369 305 1369 383 1462 c 1,5,-1
 555 1462 l 1,6,7
 415 1269 415 1269 342.5 1038 c 128,-1,8
 270 807 270 807 270 563 c 0,9,10
 270 444 270 444 288.5 326 c 128,-1,11
 307 208 307 208 342.5 95 c 128,-1,12
 378 -18 378 -18 431 -124 c 128,-1,13
 484 -230 484 -230 553 -324 c 1,14,-1
 383 -324 l 1,15,16
 305 -234 305 -234 248.5 -131 c 128,-1,17
 192 -28 192 -28 155 84.5 c 128,-1,18
 118 197 118 197 100 317 c 128,-1,19
 82 437 82 437 82 561 c 0,0,1
EndSplineSet
EndChar

StartChar: parenright
Encoding: 41 41 12
Width: 616
GlyphClass: 2
Flags: W
LayerCount: 2
Fore
SplineSet
535 561 m 0,0,1
 535 437 535 437 517 317 c 128,-1,2
 499 197 499 197 461.5 84.5 c 128,-1,3
 424 -28 424 -28 367.5 -131 c 128,-1,4
 311 -234 311 -234 233 -324 c 1,5,-1
 63 -324 l 1,6,7
 132 -230 132 -230 185 -124 c 128,-1,8
 238 -18 238 -18 274 95 c 128,-1,9
 310 208 310 208 328 326 c 128,-1,10
 346 444 346 444 346 563 c 0,11,12
 346 807 346 807 274 1038 c 128,-1,13
 202 1269 202 1269 61 1462 c 1,14,-1
 233 1462 l 1,15,16
 311 1369 311 1369 367.5 1263.5 c 128,-1,17
 424 1158 424 1158 461.5 1043.5 c 128,-1,18
 499 929 499 929 517 807.5 c 128,-1,19
 535 686 535 686 535 561 c 0,0,1
EndSplineSet
EndChar

StartChar: asterisk
Encoding: 42 42 13
Width: 1128
GlyphClass: 2
Flags: W
LayerCount: 2
Fore
SplineSet
664 1556 m 1,0,-1
 621 1163 l 1,1,-1
 1018 1274 l 1,2,-1
 1044 1081 l 1,3,-1
 666 1053 l 1,4,-1
 911 727 l 1,5,-1
 733 631 l 1,6,-1
 557 989 l 1,7,-1
 399 631 l 1,8,-1
 215 727 l 1,9,-1
 457 1053 l 1,10,-1
 82 1081 l 1,11,-1
 111 1274 l 1,12,-1
 502 1163 l 1,13,-1
 459 1556 l 1,14,-1
 664 1556 l 1,0,-1
EndSplineSet
EndChar

StartChar: plus
Encoding: 43 43 14
Width: 1128
GlyphClass: 2
Flags: W
LayerCount: 2
Fore
SplineSet
489 647 m 1,0,-1
 102 647 l 1,1,-1
 102 797 l 1,2,-1
 489 797 l 1,3,-1
 489 1186 l 1,4,-1
 639 1186 l 1,5,-1
 639 797 l 1,6,-1
 1026 797 l 1,7,-1
 1026 647 l 1,8,-1
 639 647 l 1,9,-1
 639 262 l 1,10,-1
 489 262 l 1,11,-1
 489 647 l 1,0,-1
EndSplineSet
EndChar

StartChar: comma
Encoding: 44 44 15
Width: 512
GlyphClass: 2
Flags: W
LayerCount: 2
Fore
SplineSet
362 238 m 1,0,-1
 377 215 l 1,1,2
 363 161 363 161 343.5 100 c 128,-1,3
 324 39 324 39 300.5 -23 c 128,-1,4
 277 -85 277 -85 251.5 -146.5 c 128,-1,5
 226 -208 226 -208 201 -264 c 1,6,-1
 63 -264 l 1,7,8
 78 -203 78 -203 92.5 -137 c 128,-1,9
 107 -71 107 -71 120.5 -5.5 c 128,-1,10
 134 60 134 60 145 122.5 c 128,-1,11
 156 185 156 185 164 238 c 1,12,-1
 362 238 l 1,0,-1
EndSplineSet
EndChar

StartChar: hyphen
Encoding: 45 45 16
Width: 659
GlyphClass: 2
Flags: W
LayerCount: 2
Fore
SplineSet
82 465 m 1,0,-1
 82 633 l 1,1,-1
 578 633 l 1,2,-1
 578 465 l 1,3,-1
 82 465 l 1,0,-1
EndSplineSet
EndChar

StartChar: period
Encoding: 46 46 17
Width: 549
GlyphClass: 2
Flags: W
LayerCount: 2
Fore
SplineSet
147 111 m 0,0,1
 147 149 147 149 157 175.5 c 128,-1,2
 167 202 167 202 184 218.5 c 128,-1,3
 201 235 201 235 224 242.5 c 128,-1,4
 247 250 247 250 274 250 c 0,5,6
 300 250 300 250 323.5 242.5 c 128,-1,7
 347 235 347 235 364 218.5 c 128,-1,8
 381 202 381 202 391 175.5 c 128,-1,9
 401 149 401 149 401 111 c 0,10,11
 401 74 401 74 391 47.5 c 128,-1,12
 381 21 381 21 364 4 c 128,-1,13
 347 -13 347 -13 323.5 -21 c 128,-1,14
 300 -29 300 -29 274 -29 c 0,15,16
 247 -29 247 -29 224 -21 c 128,-1,17
 201 -13 201 -13 184 4 c 128,-1,18
 167 21 167 21 157 47.5 c 128,-1,19
 147 74 147 74 147 111 c 0,0,1
EndSplineSet
EndChar

StartChar: slash
Encoding: 47 47 18
Width: 764
GlyphClass: 2
Flags: W
LayerCount: 2
Fore
SplineSet
743 1462 m 1,0,-1
 199 0 l 1,1,-1
 20 0 l 1,2,-1
 565 1462 l 1,3,-1
 743 1462 l 1,0,-1
EndSplineSet
EndChar

StartChar: zero
Encoding: 48 48 19
Width: 1128
GlyphClass: 2
Flags: W
LayerCount: 2
Fore
SplineSet
1032 733 m 0,0,1
 1032 556 1032 556 1006.5 416 c 128,-1,2
 981 276 981 276 924.5 179 c 128,-1,3
 868 82 868 82 779 31 c 128,-1,4
 690 -20 690 -20 563 -20 c 0,5,6
 445 -20 445 -20 357.5 31 c 128,-1,7
 270 82 270 82 212.5 179 c 128,-1,8
 155 276 155 276 126.5 416 c 128,-1,9
 98 556 98 556 98 733 c 256,10,11
 98 910 98 910 123.5 1050 c 128,-1,12
 149 1190 149 1190 204.5 1286.5 c 128,-1,13
 260 1383 260 1383 348.5 1434 c 128,-1,14
 437 1485 437 1485 563 1485 c 0,15,16
 682 1485 682 1485 770 1434.5 c 128,-1,17
 858 1384 858 1384 916 1287.5 c 128,-1,18
 974 1191 974 1191 1003 1051 c 128,-1,19
 1032 911 1032 911 1032 733 c 0,0,1
283 733 m 256,20,21
 283 583 283 583 298 471 c 128,-1,22
 313 359 313 359 346 284.5 c 128,-1,23
 379 210 379 210 432.5 172.5 c 128,-1,24
 486 135 486 135 563 135 c 256,25,26
 640 135 640 135 694 172 c 128,-1,27
 748 209 748 209 782.5 283 c 128,-1,28
 817 357 817 357 832.5 469.5 c 128,-1,29
 848 582 848 582 848 733 c 0,30,31
 848 883 848 883 832.5 995 c 128,-1,32
 817 1107 817 1107 782.5 1181 c 128,-1,33
 748 1255 748 1255 694 1292 c 128,-1,34
 640 1329 640 1329 563 1329 c 256,35,36
 486 1329 486 1329 432.5 1292 c 128,-1,37
 379 1255 379 1255 346 1181 c 128,-1,38
 313 1107 313 1107 298 995 c 128,-1,39
 283 883 283 883 283 733 c 256,20,21
EndSplineSet
EndChar

StartChar: one
Encoding: 49 49 20
Width: 1128
GlyphClass: 2
Flags: W
LayerCount: 2
Fore
SplineSet
711 0 m 1,0,-1
 535 0 l 1,1,-1
 535 913 l 2,2,3
 535 956 535 956 535.5 1005 c 128,-1,4
 536 1054 536 1054 537.5 1102.5 c 128,-1,5
 539 1151 539 1151 540.5 1195.5 c 128,-1,6
 542 1240 542 1240 543 1274 c 1,7,8
 526 1256 526 1256 513 1243 c 128,-1,9
 500 1230 500 1230 486.5 1218 c 128,-1,10
 473 1206 473 1206 458 1192.5 c 128,-1,11
 443 1179 443 1179 422 1161 c 2,12,-1
 274 1040 l 1,13,-1
 178 1163 l 1,14,-1
 561 1462 l 1,15,-1
 711 1462 l 1,16,-1
 711 0 l 1,0,-1
EndSplineSet
EndChar

StartChar: two
Encoding: 50 50 21
Width: 1128
GlyphClass: 2
Flags: W
LayerCount: 2
Fore
SplineSet
1008 0 m 1,0,-1
 96 0 l 1,1,-1
 96 156 l 1,2,-1
 446 537 l 2,3,4
 521 618 521 618 580 685 c 128,-1,5
 639 752 639 752 680.5 816 c 128,-1,6
 722 880 722 880 744 944.5 c 128,-1,7
 766 1009 766 1009 766 1085 c 0,8,9
 766 1144 766 1144 749 1189 c 128,-1,10
 732 1234 732 1234 700.5 1265.5 c 128,-1,11
 669 1297 669 1297 626 1313 c 128,-1,12
 583 1329 583 1329 530 1329 c 0,13,14
 435 1329 435 1329 358.5 1290.5 c 128,-1,15
 282 1252 282 1252 213 1192 c 1,16,-1
 111 1311 l 1,17,18
 151 1347 151 1347 197 1378.5 c 128,-1,19
 243 1410 243 1410 296 1433 c 128,-1,20
 349 1456 349 1456 408 1469.5 c 128,-1,21
 467 1483 467 1483 532 1483 c 0,22,23
 628 1483 628 1483 705.5 1456 c 128,-1,24
 783 1429 783 1429 837 1378.5 c 128,-1,25
 891 1328 891 1328 920.5 1255.5 c 128,-1,26
 950 1183 950 1183 950 1092 c 0,27,28
 950 1007 950 1007 923.5 930 c 128,-1,29
 897 853 897 853 850.5 778.5 c 128,-1,30
 804 704 804 704 739.5 629 c 128,-1,31
 675 554 675 554 600 473 c 2,32,-1
 319 174 l 1,33,-1
 319 166 l 1,34,-1
 1008 166 l 1,35,-1
 1008 0 l 1,0,-1
EndSplineSet
EndChar

StartChar: three
Encoding: 51 51 22
Width: 1128
GlyphClass: 2
Flags: W
LayerCount: 2
Fore
SplineSet
961 1120 m 0,0,1
 961 1047 961 1047 938 987 c 128,-1,2
 915 927 915 927 873.5 883 c 128,-1,3
 832 839 832 839 774 810.5 c 128,-1,4
 716 782 716 782 645 770 c 1,5,-1
 645 764 l 1,6,7
 822 742 822 742 914 651.5 c 128,-1,8
 1006 561 1006 561 1006 416 c 0,9,10
 1006 320 1006 320 973.5 240 c 128,-1,11
 941 160 941 160 875 102 c 128,-1,12
 809 44 809 44 708 12 c 128,-1,13
 607 -20 607 -20 469 -20 c 0,14,15
 360 -20 360 -20 263.5 -3 c 128,-1,16
 167 14 167 14 82 59 c 1,17,-1
 82 229 l 1,18,19
 169 183 169 183 270.5 158 c 128,-1,20
 372 133 372 133 465 133 c 0,21,22
 557 133 557 133 624 153 c 128,-1,23
 691 173 691 173 734.5 210 c 128,-1,24
 778 247 778 247 798.5 301 c 128,-1,25
 819 355 819 355 819 422 c 0,26,27
 819 490 819 490 792.5 538.5 c 128,-1,28
 766 587 766 587 717 618.5 c 128,-1,29
 668 650 668 650 597.5 665 c 128,-1,30
 527 680 527 680 438 680 c 2,31,-1
 305 680 l 1,32,-1
 305 831 l 1,33,-1
 438 831 l 2,34,35
 519 831 519 831 582 851 c 128,-1,36
 645 871 645 871 687.5 908 c 128,-1,37
 730 945 730 945 752 996 c 128,-1,38
 774 1047 774 1047 774 1108 c 0,39,40
 774 1160 774 1160 756 1201 c 128,-1,41
 738 1242 738 1242 705 1270.5 c 128,-1,42
 672 1299 672 1299 626 1314 c 128,-1,43
 580 1329 580 1329 524 1329 c 0,44,45
 417 1329 417 1329 335.5 1295.5 c 128,-1,46
 254 1262 254 1262 180 1208 c 1,47,-1
 88 1333 l 1,48,49
 126 1364 126 1364 172.5 1391 c 128,-1,50
 219 1418 219 1418 274 1438.5 c 128,-1,51
 329 1459 329 1459 391.5 1471 c 128,-1,52
 454 1483 454 1483 524 1483 c 0,53,54
 632 1483 632 1483 713.5 1456 c 128,-1,55
 795 1429 795 1429 850 1380.5 c 128,-1,56
 905 1332 905 1332 933 1265.5 c 128,-1,57
 961 1199 961 1199 961 1120 c 0,0,1
EndSplineSet
EndChar

StartChar: four
Encoding: 52 52 23
Width: 1128
GlyphClass: 2
Flags: W
LayerCount: 2
Fore
SplineSet
1087 328 m 1,0,-1
 874 328 l 1,1,-1
 874 0 l 1,2,-1
 698 0 l 1,3,-1
 698 328 l 1,4,-1
 23 328 l 1,5,-1
 23 487 l 1,6,-1
 686 1470 l 1,7,-1
 874 1470 l 1,8,-1
 874 494 l 1,9,-1
 1087 494 l 1,10,-1
 1087 328 l 1,0,-1
698 494 m 1,11,-1
 698 850 l 2,12,13
 698 906 698 906 699.5 967.5 c 128,-1,14
 701 1029 701 1029 703 1087.5 c 128,-1,15
 705 1146 705 1146 707.5 1197 c 128,-1,16
 710 1248 710 1248 711 1282 c 1,17,-1
 702 1282 l 1,18,19
 695 1262 695 1262 684.5 1237.5 c 128,-1,20
 674 1213 674 1213 661.5 1188.5 c 128,-1,21
 649 1164 649 1164 636 1141 c 128,-1,22
 623 1118 623 1118 612 1102 c 2,23,-1
 201 494 l 1,24,-1
 698 494 l 1,11,-1
EndSplineSet
EndChar

StartChar: five
Encoding: 53 53 24
Width: 1128
GlyphClass: 2
Flags: W
LayerCount: 2
Fore
SplineSet
545 897 m 0,0,1
 644 897 644 897 729.5 869.5 c 128,-1,2
 815 842 815 842 878.5 788 c 128,-1,3
 942 734 942 734 978 654 c 128,-1,4
 1014 574 1014 574 1014 469 c 0,5,6
 1014 355 1014 355 980 264 c 128,-1,7
 946 173 946 173 879 110 c 128,-1,8
 812 47 812 47 713.5 13.5 c 128,-1,9
 615 -20 615 -20 487 -20 c 0,10,11
 436 -20 436 -20 386.5 -15 c 128,-1,12
 337 -10 337 -10 291.5 -0.5 c 128,-1,13
 246 9 246 9 205 24 c 128,-1,14
 164 39 164 39 131 59 c 1,15,-1
 131 231 l 1,16,17
 164 208 164 208 208.5 190 c 128,-1,18
 253 172 253 172 302 160 c 128,-1,19
 351 148 351 148 400.5 141.5 c 128,-1,20
 450 135 450 135 492 135 c 0,21,22
 571 135 571 135 633 153.5 c 128,-1,23
 695 172 695 172 738 211 c 128,-1,24
 781 250 781 250 804 309 c 128,-1,25
 827 368 827 368 827 449 c 0,26,27
 827 592 827 592 739 667.5 c 128,-1,28
 651 743 651 743 483 743 c 0,29,30
 456 743 456 743 424.5 740.5 c 128,-1,31
 393 738 393 738 361.5 734 c 128,-1,32
 330 730 330 730 301.5 725.5 c 128,-1,33
 273 721 273 721 252 717 c 1,34,-1
 162 774 l 1,35,-1
 217 1462 l 1,36,-1
 907 1462 l 1,37,-1
 907 1296 l 1,38,-1
 375 1296 l 1,39,-1
 336 877 l 1,40,41
 368 883 368 883 420.5 890 c 128,-1,42
 473 897 473 897 545 897 c 0,0,1
EndSplineSet
EndChar

StartChar: six
Encoding: 54 54 25
Width: 1128
GlyphClass: 2
Flags: W
LayerCount: 2
Fore
SplineSet
113 625 m 0,0,1
 113 730 113 730 123.5 834 c 128,-1,2
 134 938 134 938 160.5 1033.5 c 128,-1,3
 187 1129 187 1129 233 1211 c 128,-1,4
 279 1293 279 1293 350 1353.5 c 128,-1,5
 421 1414 421 1414 520 1448.5 c 128,-1,6
 619 1483 619 1483 752 1483 c 0,7,8
 771 1483 771 1483 794 1482 c 128,-1,9
 817 1481 817 1481 840.5 1478.5 c 128,-1,10
 864 1476 864 1476 885.5 1472.5 c 128,-1,11
 907 1469 907 1469 924 1464 c 1,12,-1
 924 1309 l 1,13,14
 889 1321 889 1321 845 1327 c 128,-1,15
 801 1333 801 1333 758 1333 c 0,16,17
 668 1333 668 1333 599.5 1311.5 c 128,-1,18
 531 1290 531 1290 481 1251 c 128,-1,19
 431 1212 431 1212 397.5 1158 c 128,-1,20
 364 1104 364 1104 343 1038.5 c 128,-1,21
 322 973 322 973 312 899 c 128,-1,22
 302 825 302 825 299 745 c 1,23,-1
 311 745 l 1,24,25
 331 781 331 781 359.5 812.5 c 128,-1,26
 388 844 388 844 426 866.5 c 128,-1,27
 464 889 464 889 511.5 902 c 128,-1,28
 559 915 559 915 618 915 c 0,29,30
 713 915 713 915 790 885.5 c 128,-1,31
 867 856 867 856 921 799 c 128,-1,32
 975 742 975 742 1004.5 659.5 c 128,-1,33
 1034 577 1034 577 1034 471 c 0,34,35
 1034 357 1034 357 1003 266 c 128,-1,36
 972 175 972 175 914 111.5 c 128,-1,37
 856 48 856 48 774 14 c 128,-1,38
 692 -20 692 -20 590 -20 c 0,39,40
 490 -20 490 -20 402.5 19 c 128,-1,41
 315 58 315 58 251 138 c 128,-1,42
 187 218 187 218 150 339 c 128,-1,43
 113 460 113 460 113 625 c 0,0,1
588 133 m 0,44,45
 648 133 648 133 697.5 153.5 c 128,-1,46
 747 174 747 174 783 215.5 c 128,-1,47
 819 257 819 257 838.5 320.5 c 128,-1,48
 858 384 858 384 858 471 c 0,49,50
 858 541 858 541 841.5 596.5 c 128,-1,51
 825 652 825 652 792 691 c 128,-1,52
 759 730 759 730 709.5 751 c 128,-1,53
 660 772 660 772 594 772 c 0,54,55
 527 772 527 772 471.5 748.5 c 128,-1,56
 416 725 416 725 377 687.5 c 128,-1,57
 338 650 338 650 316.5 602 c 128,-1,58
 295 554 295 554 295 506 c 0,59,60
 295 439 295 439 313.5 372.5 c 128,-1,61
 332 306 332 306 368.5 253 c 128,-1,62
 405 200 405 200 460 166.5 c 128,-1,63
 515 133 515 133 588 133 c 0,44,45
EndSplineSet
EndChar

StartChar: seven
Encoding: 55 55 26
Width: 1128
GlyphClass: 2
Flags: W
LayerCount: 2
Fore
SplineSet
281 0 m 1,0,-1
 844 1296 l 1,1,-1
 90 1296 l 1,2,-1
 90 1462 l 1,3,-1
 1030 1462 l 1,4,-1
 1030 1317 l 1,5,-1
 475 0 l 1,6,-1
 281 0 l 1,0,-1
EndSplineSet
EndChar

StartChar: eight
Encoding: 56 56 27
Width: 1128
GlyphClass: 2
Flags: W
LayerCount: 2
Fore
SplineSet
565 1485 m 0,0,1
 649 1485 649 1485 723.5 1463 c 128,-1,2
 798 1441 798 1441 854.5 1397 c 128,-1,3
 911 1353 911 1353 944 1287 c 128,-1,4
 977 1221 977 1221 977 1133 c 0,5,6
 977 1066 977 1066 957 1012 c 128,-1,7
 937 958 937 958 902 914.5 c 128,-1,8
 867 871 867 871 819 836.5 c 128,-1,9
 771 802 771 802 715 774 c 1,10,11
 773 743 773 743 828.5 705 c 128,-1,12
 884 667 884 667 927.5 619.5 c 128,-1,13
 971 572 971 572 997.5 513 c 128,-1,14
 1024 454 1024 454 1024 381 c 0,15,16
 1024 289 1024 289 990.5 214.5 c 128,-1,17
 957 140 957 140 896.5 88 c 128,-1,18
 836 36 836 36 751.5 8 c 128,-1,19
 667 -20 667 -20 565 -20 c 0,20,21
 455 -20 455 -20 369.5 7 c 128,-1,22
 284 34 284 34 225.5 84.5 c 128,-1,23
 167 135 167 135 136.5 208 c 128,-1,24
 106 281 106 281 106 373 c 0,25,26
 106 448 106 448 128.5 508 c 128,-1,27
 151 568 151 568 189 616 c 128,-1,28
 227 664 227 664 279 701 c 128,-1,29
 331 738 331 738 389 766 c 1,30,31
 340 797 340 797 297 833.5 c 128,-1,32
 254 870 254 870 222.5 915 c 128,-1,33
 191 960 191 960 172.5 1014.5 c 128,-1,34
 154 1069 154 1069 154 1135 c 0,35,36
 154 1222 154 1222 187.5 1287.5 c 128,-1,37
 221 1353 221 1353 278 1397 c 128,-1,38
 335 1441 335 1441 409.5 1463 c 128,-1,39
 484 1485 484 1485 565 1485 c 0,0,1
285 371 m 0,40,41
 285 318 285 318 301 273.5 c 128,-1,42
 317 229 317 229 351 197.5 c 128,-1,43
 385 166 385 166 437 148.5 c 128,-1,44
 489 131 489 131 561 131 c 0,45,46
 631 131 631 131 684.5 148.5 c 128,-1,47
 738 166 738 166 774 198.5 c 128,-1,48
 810 231 810 231 828 277 c 128,-1,49
 846 323 846 323 846 379 c 0,50,51
 846 431 846 431 826.5 473 c 128,-1,52
 807 515 807 515 770.5 551 c 128,-1,53
 734 587 734 587 683 619 c 128,-1,54
 632 651 632 651 569 682 c 1,55,-1
 539 696 l 1,56,57
 413 636 413 636 349 558.5 c 128,-1,58
 285 481 285 481 285 371 c 0,40,41
563 1333 m 0,59,60
 457 1333 457 1333 394.5 1280 c 128,-1,61
 332 1227 332 1227 332 1126 c 0,62,63
 332 1069 332 1069 349.5 1028 c 128,-1,64
 367 987 367 987 398 955 c 128,-1,65
 429 923 429 923 472.5 897.5 c 128,-1,66
 516 872 516 872 567 848 c 1,67,68
 615 870 615 870 657.5 896 c 128,-1,69
 700 922 700 922 731.5 955 c 128,-1,70
 763 988 763 988 781 1030 c 128,-1,71
 799 1072 799 1072 799 1126 c 0,72,73
 799 1227 799 1227 736 1280 c 128,-1,74
 673 1333 673 1333 563 1333 c 0,59,60
EndSplineSet
EndChar

StartChar: nine
Encoding: 57 57 28
Width: 1128
GlyphClass: 2
Flags: W
LayerCount: 2
Fore
SplineSet
1028 838 m 0,0,1
 1028 733 1028 733 1017.5 628.5 c 128,-1,2
 1007 524 1007 524 980.5 429 c 128,-1,3
 954 334 954 334 908 251.5 c 128,-1,4
 862 169 862 169 791 109 c 128,-1,5
 720 49 720 49 621 14.5 c 128,-1,6
 522 -20 522 -20 389 -20 c 0,7,8
 370 -20 370 -20 347 -19 c 128,-1,9
 324 -18 324 -18 301 -15.5 c 128,-1,10
 278 -13 278 -13 256 -10 c 128,-1,11
 234 -7 234 -7 217 -2 c 1,12,-1
 217 154 l 1,13,14
 252 141 252 141 296 135 c 128,-1,15
 340 129 340 129 383 129 c 0,16,17
 518 129 518 129 605 176 c 128,-1,18
 692 223 692 223 743 303.5 c 128,-1,19
 794 384 794 384 815.5 491 c 128,-1,20
 837 598 837 598 842 717 c 1,21,-1
 829 717 l 1,22,23
 809 681 809 681 781 650 c 128,-1,24
 753 619 753 619 715 596 c 128,-1,25
 677 573 677 573 629 560 c 128,-1,26
 581 547 581 547 522 547 c 0,27,28
 427 547 427 547 350 576.5 c 128,-1,29
 273 606 273 606 219 663 c 128,-1,30
 165 720 165 720 135.5 802.5 c 128,-1,31
 106 885 106 885 106 991 c 0,32,33
 106 1105 106 1105 137.5 1196.5 c 128,-1,34
 169 1288 169 1288 226.5 1351.5 c 128,-1,35
 284 1415 284 1415 366.5 1449 c 128,-1,36
 449 1483 449 1483 551 1483 c 0,37,38
 652 1483 652 1483 739 1444 c 128,-1,39
 826 1405 826 1405 890 1325 c 128,-1,40
 954 1245 954 1245 991 1123.5 c 128,-1,41
 1028 1002 1028 1002 1028 838 c 0,0,1
553 1329 m 0,42,43
 493 1329 493 1329 443.5 1309 c 128,-1,44
 394 1289 394 1289 358 1247 c 128,-1,45
 322 1205 322 1205 302.5 1141.5 c 128,-1,46
 283 1078 283 1078 283 991 c 0,47,48
 283 921 283 921 299.5 865.5 c 128,-1,49
 316 810 316 810 349 771 c 128,-1,50
 382 732 382 732 431.5 711 c 128,-1,51
 481 690 481 690 547 690 c 0,52,53
 615 690 615 690 670 713.5 c 128,-1,54
 725 737 725 737 764 774.5 c 128,-1,55
 803 812 803 812 824.5 860 c 128,-1,56
 846 908 846 908 846 956 c 0,57,58
 846 1023 846 1023 827.5 1089.5 c 128,-1,59
 809 1156 809 1156 772.5 1209.5 c 128,-1,60
 736 1263 736 1263 681 1296 c 128,-1,61
 626 1329 626 1329 553 1329 c 0,42,43
EndSplineSet
EndChar

StartChar: colon
Encoding: 58 58 29
Width: 549
GlyphClass: 2
Flags: W
LayerCount: 2
Fore
SplineSet
147 111 m 0,0,1
 147 149 147 149 157 175.5 c 128,-1,2
 167 202 167 202 184 218.5 c 128,-1,3
 201 235 201 235 224 242.5 c 128,-1,4
 247 250 247 250 274 250 c 0,5,6
 300 250 300 250 323.5 242.5 c 128,-1,7
 347 235 347 235 364 218.5 c 128,-1,8
 381 202 381 202 391 175.5 c 128,-1,9
 401 149 401 149 401 111 c 0,10,11
 401 74 401 74 391 47.5 c 128,-1,12
 381 21 381 21 364 4 c 128,-1,13
 347 -13 347 -13 323.5 -21 c 128,-1,14
 300 -29 300 -29 274 -29 c 0,15,16
 247 -29 247 -29 224 -21 c 128,-1,17
 201 -13 201 -13 184 4 c 128,-1,18
 167 21 167 21 157 47.5 c 128,-1,19
 147 74 147 74 147 111 c 0,0,1
147 987 m 0,20,21
 147 1026 147 1026 157 1052.5 c 128,-1,22
 167 1079 167 1079 184 1095.5 c 128,-1,23
 201 1112 201 1112 224 1119 c 128,-1,24
 247 1126 247 1126 274 1126 c 0,25,26
 300 1126 300 1126 323.5 1119 c 128,-1,27
 347 1112 347 1112 364 1095.5 c 128,-1,28
 381 1079 381 1079 391 1052.5 c 128,-1,29
 401 1026 401 1026 401 987 c 0,30,31
 401 950 401 950 391 924 c 128,-1,32
 381 898 381 898 364 881 c 128,-1,33
 347 864 347 864 323.5 856 c 128,-1,34
 300 848 300 848 274 848 c 0,35,36
 247 848 247 848 224 856 c 128,-1,37
 201 864 201 864 184 881 c 128,-1,38
 167 898 167 898 157 924 c 128,-1,39
 147 950 147 950 147 987 c 0,20,21
EndSplineSet
EndChar

StartChar: semicolon
Encoding: 59 59 30
Width: 549
GlyphClass: 2
Flags: W
LayerCount: 2
Fore
SplineSet
362 238 m 1,0,-1
 377 215 l 1,1,2
 363 161 363 161 343.5 100 c 128,-1,3
 324 39 324 39 300.5 -23 c 128,-1,4
 277 -85 277 -85 251.5 -146.5 c 128,-1,5
 226 -208 226 -208 201 -264 c 1,6,-1
 63 -264 l 1,7,8
 78 -203 78 -203 92.5 -137 c 128,-1,9
 107 -71 107 -71 120.5 -5.5 c 128,-1,10
 134 60 134 60 145 122.5 c 128,-1,11
 156 185 156 185 164 238 c 1,12,-1
 362 238 l 1,0,-1
147 987 m 0,13,14
 147 1026 147 1026 157 1052.5 c 128,-1,15
 167 1079 167 1079 184 1095.5 c 128,-1,16
 201 1112 201 1112 224 1119 c 128,-1,17
 247 1126 247 1126 274 1126 c 0,18,19
 300 1126 300 1126 323.5 1119 c 128,-1,20
 347 1112 347 1112 364 1095.5 c 128,-1,21
 381 1079 381 1079 391 1052.5 c 128,-1,22
 401 1026 401 1026 401 987 c 0,23,24
 401 950 401 950 391 924 c 128,-1,25
 381 898 381 898 364 881 c 128,-1,26
 347 864 347 864 323.5 856 c 128,-1,27
 300 848 300 848 274 848 c 0,28,29
 247 848 247 848 224 856 c 128,-1,30
 201 864 201 864 184 881 c 128,-1,31
 167 898 167 898 157 924 c 128,-1,32
 147 950 147 950 147 987 c 0,13,14
EndSplineSet
EndChar

StartChar: less
Encoding: 60 60 31
Width: 1128
GlyphClass: 2
Flags: W
LayerCount: 2
Fore
SplineSet
1026 238 m 1,0,-1
 102 662 l 1,1,-1
 102 764 l 1,2,-1
 1026 1245 l 1,3,-1
 1026 1085 l 1,4,-1
 291 721 l 1,5,-1
 1026 399 l 1,6,-1
 1026 238 l 1,0,-1
EndSplineSet
EndChar

StartChar: equal
Encoding: 61 61 32
Width: 1128
GlyphClass: 2
Flags: W
LayerCount: 2
Fore
SplineSet
102 852 m 1,0,-1
 102 1001 l 1,1,-1
 1026 1001 l 1,2,-1
 1026 852 l 1,3,-1
 102 852 l 1,0,-1
102 442 m 1,4,-1
 102 592 l 1,5,-1
 1026 592 l 1,6,-1
 1026 442 l 1,7,-1
 102 442 l 1,4,-1
EndSplineSet
EndChar

StartChar: greater
Encoding: 62 62 33
Width: 1128
GlyphClass: 2
Flags: W
LayerCount: 2
Fore
SplineSet
102 399 m 1,0,-1
 838 721 l 1,1,-1
 102 1085 l 1,2,-1
 102 1245 l 1,3,-1
 1026 764 l 1,4,-1
 1026 662 l 1,5,-1
 102 238 l 1,6,-1
 102 399 l 1,0,-1
EndSplineSet
EndChar

StartChar: question
Encoding: 63 63 34
Width: 872
GlyphClass: 2
Flags: W
LayerCount: 2
Fore
SplineSet
281 414 m 1,0,-1
 281 451 l 2,1,2
 281 508 281 508 288.5 554 c 128,-1,3
 296 600 296 600 315.5 640 c 128,-1,4
 335 680 335 680 368 718.5 c 128,-1,5
 401 757 401 757 451 799 c 0,6,7
 499 840 499 840 533 873.5 c 128,-1,8
 567 907 567 907 588.5 941.5 c 128,-1,9
 610 976 610 976 620.5 1015.5 c 128,-1,10
 631 1055 631 1055 631 1108 c 0,11,12
 631 1156 631 1156 616 1195.5 c 128,-1,13
 601 1235 601 1235 572.5 1263.5 c 128,-1,14
 544 1292 544 1292 501.5 1307.5 c 128,-1,15
 459 1323 459 1323 403 1323 c 0,16,17
 320 1323 320 1323 245 1297 c 128,-1,18
 170 1271 170 1271 100 1237 c 1,19,-1
 37 1382 l 1,20,21
 118 1424 118 1424 212 1453.5 c 128,-1,22
 306 1483 306 1483 403 1483 c 0,23,24
 496 1483 496 1483 570.5 1457.5 c 128,-1,25
 645 1432 645 1432 697 1384 c 128,-1,26
 749 1336 749 1336 777 1266.5 c 128,-1,27
 805 1197 805 1197 805 1110 c 0,28,29
 805 1043 805 1043 791.5 990.5 c 128,-1,30
 778 938 778 938 751 893 c 128,-1,31
 724 848 724 848 684 806 c 128,-1,32
 644 764 644 764 590 717 c 0,33,34
 538 672 538 672 505 638.5 c 128,-1,35
 472 605 472 605 453 573.5 c 128,-1,36
 434 542 434 542 427 509 c 128,-1,37
 420 476 420 476 420 432 c 2,38,-1
 420 414 l 1,39,-1
 281 414 l 1,0,-1
233 111 m 0,40,41
 233 149 233 149 243 175.5 c 128,-1,42
 253 202 253 202 270 218.5 c 128,-1,43
 287 235 287 235 310 242.5 c 128,-1,44
 333 250 333 250 360 250 c 0,45,46
 386 250 386 250 409.5 242.5 c 128,-1,47
 433 235 433 235 450 218.5 c 128,-1,48
 467 202 467 202 477 175.5 c 128,-1,49
 487 149 487 149 487 111 c 0,50,51
 487 74 487 74 477 47.5 c 128,-1,52
 467 21 467 21 450 4 c 128,-1,53
 433 -13 433 -13 409.5 -21 c 128,-1,54
 386 -29 386 -29 360 -29 c 0,55,56
 333 -29 333 -29 310 -21 c 128,-1,57
 287 -13 287 -13 270 4 c 128,-1,58
 253 21 253 21 243 47.5 c 128,-1,59
 233 74 233 74 233 111 c 0,40,41
EndSplineSet
EndChar

StartChar: at
Encoding: 64 64 35
Width: 1774
GlyphClass: 2
Flags: W
LayerCount: 2
Fore
SplineSet
1665 731 m 0,0,1
 1665 669 1665 669 1655.5 606.5 c 128,-1,2
 1646 544 1646 544 1627.5 487.5 c 128,-1,3
 1609 431 1609 431 1580.5 382.5 c 128,-1,4
 1552 334 1552 334 1514 298 c 128,-1,5
 1476 262 1476 262 1427.5 241.5 c 128,-1,6
 1379 221 1379 221 1321 221 c 0,7,8
 1276 221 1276 221 1239.5 236 c 128,-1,9
 1203 251 1203 251 1177 276 c 128,-1,10
 1151 301 1151 301 1134.5 333.5 c 128,-1,11
 1118 366 1118 366 1112 401 c 1,12,-1
 1108 401 l 1,13,14
 1090 364 1090 364 1063 331 c 128,-1,15
 1036 298 1036 298 1000.5 273.5 c 128,-1,16
 965 249 965 249 920.5 235 c 128,-1,17
 876 221 876 221 823 221 c 0,18,19
 746 221 746 221 686.5 249 c 128,-1,20
 627 277 627 277 586 327.5 c 128,-1,21
 545 378 545 378 523.5 449 c 128,-1,22
 502 520 502 520 502 606 c 0,23,24
 502 707 502 707 531.5 791 c 128,-1,25
 561 875 561 875 616.5 936 c 128,-1,26
 672 997 672 997 751 1031 c 128,-1,27
 830 1065 830 1065 928 1065 c 0,28,29
 973 1065 973 1065 1018 1061 c 128,-1,30
 1063 1057 1063 1057 1104 1050 c 128,-1,31
 1145 1043 1145 1043 1179.5 1034.5 c 128,-1,32
 1214 1026 1214 1026 1237 1018 c 1,33,-1
 1214 602 l 2,34,35
 1213 580 1213 580 1212.5 566.5 c 128,-1,36
 1212 553 1212 553 1212 545 c 128,-1,37
 1212 537 1212 537 1212 533 c 128,-1,38
 1212 529 1212 529 1212 526 c 0,39,40
 1212 473 1212 473 1222.5 439 c 128,-1,41
 1233 405 1233 405 1250 385 c 128,-1,42
 1267 365 1267 365 1288.5 357.5 c 128,-1,43
 1310 350 1310 350 1333 350 c 0,44,45
 1379 350 1379 350 1414 380.5 c 128,-1,46
 1449 411 1449 411 1472.5 463 c 128,-1,47
 1496 515 1496 515 1508 585 c 128,-1,48
 1520 655 1520 655 1520 733 c 0,49,50
 1520 875 1520 875 1477 985.5 c 128,-1,51
 1434 1096 1434 1096 1358 1172 c 128,-1,52
 1282 1248 1282 1248 1177.5 1287.5 c 128,-1,53
 1073 1327 1073 1327 950 1327 c 0,54,55
 781 1327 781 1327 652 1271.5 c 128,-1,56
 523 1216 523 1216 435.5 1116.5 c 128,-1,57
 348 1017 348 1017 303 880.5 c 128,-1,58
 258 744 258 744 258 582 c 0,59,60
 258 431 258 431 297.5 314 c 128,-1,61
 337 197 337 197 413.5 117 c 128,-1,62
 490 37 490 37 603.5 -4 c 128,-1,63
 717 -45 717 -45 864 -45 c 0,64,65
 925 -45 925 -45 984.5 -38 c 128,-1,66
 1044 -31 1044 -31 1099.5 -19 c 128,-1,67
 1155 -7 1155 -7 1205 8.5 c 128,-1,68
 1255 24 1255 24 1298 41 c 1,69,-1
 1298 -100 l 1,70,71
 1212 -138 1212 -138 1104 -160 c 128,-1,72
 996 -182 996 -182 866 -182 c 0,73,74
 687 -182 687 -182 546.5 -131 c 128,-1,75
 406 -80 406 -80 308.5 17.5 c 128,-1,76
 211 115 211 115 160 255.5 c 128,-1,77
 109 396 109 396 109 575 c 0,78,79
 109 763 109 763 168 925.5 c 128,-1,80
 227 1088 227 1088 336.5 1207 c 128,-1,81
 446 1326 446 1326 601.5 1394 c 128,-1,82
 757 1462 757 1462 950 1462 c 0,83,84
 1106 1462 1106 1462 1237 1411.5 c 128,-1,85
 1368 1361 1368 1361 1463.5 1266.5 c 128,-1,86
 1559 1172 1559 1172 1612 1036.5 c 128,-1,87
 1665 901 1665 901 1665 731 c 0,0,1
662 602 m 0,88,89
 662 469 662 469 712.5 409.5 c 128,-1,90
 763 350 763 350 848 350 c 0,91,92
 903 350 903 350 942 372.5 c 128,-1,93
 981 395 981 395 1006 436.5 c 128,-1,94
 1031 478 1031 478 1044 535.5 c 128,-1,95
 1057 593 1057 593 1061 662 c 2,96,-1
 1075 915 l 1,97,98
 1047 923 1047 923 1008.5 929.5 c 128,-1,99
 970 936 970 936 928 936 c 0,100,101
 854 936 854 936 803.5 907 c 128,-1,102
 753 878 753 878 721.5 831 c 128,-1,103
 690 784 690 784 676 724 c 128,-1,104
 662 664 662 664 662 602 c 0,88,89
EndSplineSet
EndChar

StartChar: A
Encoding: 65 65 36
Width: 1245
GlyphClass: 2
Flags: W
LayerCount: 2
Fore
SplineSet
1055 0 m 1,0,-1
 895 453 l 1,1,-1
 350 453 l 1,2,-1
 188 0 l 1,3,-1
 0 0 l 1,4,-1
 537 1468 l 1,5,-1
 707 1468 l 1,6,-1
 1245 0 l 1,7,-1
 1055 0 l 1,0,-1
836 618 m 1,8,-1
 688 1042 l 2,9,10
 682 1060 682 1060 673.5 1086 c 128,-1,11
 665 1112 665 1112 656 1142 c 128,-1,12
 647 1172 647 1172 638 1204.5 c 128,-1,13
 629 1237 629 1237 621 1268 c 1,14,15
 614 1237 614 1237 605 1204 c 128,-1,16
 596 1171 596 1171 587 1140.5 c 128,-1,17
 578 1110 578 1110 569.5 1084.5 c 128,-1,18
 561 1059 561 1059 555 1042 c 2,19,-1
 410 618 l 1,20,-1
 836 618 l 1,8,-1
EndSplineSet
EndChar

StartChar: B
Encoding: 66 66 37
Width: 1272
GlyphClass: 2
Flags: W
LayerCount: 2
Fore
SplineSet
199 1462 m 1,0,-1
 598 1462 l 2,1,2
 726 1462 726 1462 823.5 1442.5 c 128,-1,3
 921 1423 921 1423 986.5 1379.5 c 128,-1,4
 1052 1336 1052 1336 1085 1265.5 c 128,-1,5
 1118 1195 1118 1195 1118 1092 c 0,6,7
 1118 1030 1118 1030 1098.5 976 c 128,-1,8
 1079 922 1079 922 1042 881 c 128,-1,9
 1005 840 1005 840 950.5 812.5 c 128,-1,10
 896 785 896 785 827 776 c 1,11,-1
 827 766 l 1,12,13
 896 754 896 754 956.5 731.5 c 128,-1,14
 1017 709 1017 709 1062 669.5 c 128,-1,15
 1107 630 1107 630 1133 570 c 128,-1,16
 1159 510 1159 510 1159 424 c 0,17,18
 1159 324 1159 324 1126.5 245.5 c 128,-1,19
 1094 167 1094 167 1032.5 112.5 c 128,-1,20
 971 58 971 58 883 29 c 128,-1,21
 795 0 795 0 684 0 c 2,22,-1
 199 0 l 1,23,-1
 199 1462 l 1,0,-1
385 842 m 1,24,-1
 629 842 l 2,25,26
 713 842 713 842 770 857 c 128,-1,27
 827 872 827 872 862 901.5 c 128,-1,28
 897 931 897 931 912.5 975.5 c 128,-1,29
 928 1020 928 1020 928 1079 c 0,30,31
 928 1199 928 1199 851 1251 c 128,-1,32
 774 1303 774 1303 608 1303 c 2,33,-1
 385 1303 l 1,34,-1
 385 842 l 1,24,-1
385 686 m 1,35,-1
 385 158 l 1,36,-1
 651 158 l 2,37,38
 739 158 739 158 798.5 178 c 128,-1,39
 858 198 858 198 894.5 234 c 128,-1,40
 931 270 931 270 947 320.5 c 128,-1,41
 963 371 963 371 963 432 c 0,42,43
 963 488 963 488 946.5 535 c 128,-1,44
 930 582 930 582 892.5 615.5 c 128,-1,45
 855 649 855 649 793 667.5 c 128,-1,46
 731 686 731 686 639 686 c 2,47,-1
 385 686 l 1,35,-1
EndSplineSet
EndChar

StartChar: C
Encoding: 67 67 38
Width: 1235
GlyphClass: 2
Flags: W
LayerCount: 2
Fore
SplineSet
793 1319 m 0,0,1
 686 1319 686 1319 599 1278.5 c 128,-1,2
 512 1238 512 1238 450.5 1162 c 128,-1,3
 389 1086 389 1086 355.5 977 c 128,-1,4
 322 868 322 868 322 731 c 0,5,6
 322 590 322 590 351.5 480.5 c 128,-1,7
 381 371 381 371 440 296 c 128,-1,8
 499 221 499 221 587 182 c 128,-1,9
 675 143 675 143 793 143 c 0,10,11
 882 143 882 143 962 160.5 c 128,-1,12
 1042 178 1042 178 1120 201 c 1,13,-1
 1120 39 l 1,14,15
 1081 24 1081 24 1042 12.5 c 128,-1,16
 1003 1 1003 1 960.5 -6 c 128,-1,17
 918 -13 918 -13 869.5 -16.5 c 128,-1,18
 821 -20 821 -20 762 -20 c 0,19,20
 598 -20 598 -20 478 34 c 128,-1,21
 358 88 358 88 279.5 187 c 128,-1,22
 201 286 201 286 163 425 c 128,-1,23
 125 564 125 564 125 733 c 0,24,25
 125 899 125 899 168.5 1037 c 128,-1,26
 212 1175 212 1175 296.5 1274 c 128,-1,27
 381 1373 381 1373 506 1428 c 128,-1,28
 631 1483 631 1483 793 1483 c 0,29,30
 901 1483 901 1483 999 1461 c 128,-1,31
 1097 1439 1097 1439 1176 1397 c 1,32,-1
 1098 1241 l 1,33,34
 1035 1273 1035 1273 961 1296 c 128,-1,35
 887 1319 887 1319 793 1319 c 0,0,1
EndSplineSet
EndChar

StartChar: D
Encoding: 68 68 39
Width: 1401
GlyphClass: 2
Flags: W
LayerCount: 2
Fore
SplineSet
1276 745 m 0,0,1
 1276 560 1276 560 1228 420.5 c 128,-1,2
 1180 281 1180 281 1089 187.5 c 128,-1,3
 998 94 998 94 865.5 47 c 128,-1,4
 733 0 733 0 565 0 c 2,5,-1
 199 0 l 1,6,-1
 199 1462 l 1,7,-1
 606 1462 l 2,8,9
 759 1462 759 1462 883 1416 c 128,-1,10
 1007 1370 1007 1370 1094 1279.5 c 128,-1,11
 1181 1189 1181 1189 1228.5 1055 c 128,-1,12
 1276 921 1276 921 1276 745 c 0,0,1
1079 739 m 0,13,14
 1079 885 1079 885 1046 991.5 c 128,-1,15
 1013 1098 1013 1098 950 1167 c 128,-1,16
 887 1236 887 1236 795 1269.5 c 128,-1,17
 703 1303 703 1303 586 1303 c 2,18,-1
 385 1303 l 1,19,-1
 385 160 l 1,20,-1
 547 160 l 2,21,22
 811 160 811 160 945 306 c 128,-1,23
 1079 452 1079 452 1079 739 c 0,13,14
EndSplineSet
EndChar

StartChar: E
Encoding: 69 69 40
Width: 1081
GlyphClass: 2
Flags: W
LayerCount: 2
Fore
SplineSet
958 0 m 1,0,-1
 199 0 l 1,1,-1
 199 1462 l 1,2,-1
 958 1462 l 1,3,-1
 958 1298 l 1,4,-1
 385 1298 l 1,5,-1
 385 846 l 1,6,-1
 920 846 l 1,7,-1
 920 684 l 1,8,-1
 385 684 l 1,9,-1
 385 164 l 1,10,-1
 958 164 l 1,11,-1
 958 0 l 1,0,-1
EndSplineSet
EndChar

StartChar: F
Encoding: 70 70 41
Width: 1006
GlyphClass: 2
Flags: W
LayerCount: 2
Fore
SplineSet
385 0 m 1,0,-1
 199 0 l 1,1,-1
 199 1462 l 1,2,-1
 958 1462 l 1,3,-1
 958 1298 l 1,4,-1
 385 1298 l 1,5,-1
 385 782 l 1,6,-1
 920 782 l 1,7,-1
 920 618 l 1,8,-1
 385 618 l 1,9,-1
 385 0 l 1,0,-1
EndSplineSet
EndChar

StartChar: G
Encoding: 71 71 42
Width: 1413
GlyphClass: 2
Flags: W
LayerCount: 2
Fore
SplineSet
782 772 m 1,0,-1
 1266 772 l 1,1,-1
 1266 55 l 1,2,3
 1211 37 1211 37 1155 23 c 128,-1,4
 1099 9 1099 9 1040 -0.5 c 128,-1,5
 981 -10 981 -10 916 -15 c 128,-1,6
 851 -20 851 -20 776 -20 c 0,7,8
 619 -20 619 -20 498 32.5 c 128,-1,9
 377 85 377 85 294 182.5 c 128,-1,10
 211 280 211 280 168 419.5 c 128,-1,11
 125 559 125 559 125 733 c 0,12,13
 125 905 125 905 172.5 1044 c 128,-1,14
 220 1183 220 1183 311 1280.5 c 128,-1,15
 402 1378 402 1378 535.5 1430.5 c 128,-1,16
 669 1483 669 1483 840 1483 c 0,17,18
 951 1483 951 1483 1053 1461 c 128,-1,19
 1155 1439 1155 1439 1243 1397 c 1,20,-1
 1171 1235 l 1,21,22
 1135 1252 1135 1252 1093.5 1267 c 128,-1,23
 1052 1282 1052 1282 1008 1293.5 c 128,-1,24
 964 1305 964 1305 917.5 1312 c 128,-1,25
 871 1319 871 1319 825 1319 c 0,26,27
 703 1319 703 1319 609 1278.5 c 128,-1,28
 515 1238 515 1238 451.5 1162 c 128,-1,29
 388 1086 388 1086 355 977 c 128,-1,30
 322 868 322 868 322 731 c 0,31,32
 322 601 322 601 349.5 493 c 128,-1,33
 377 385 377 385 437 307 c 128,-1,34
 497 229 497 229 592 186 c 128,-1,35
 687 143 687 143 821 143 c 0,36,37
 865 143 865 143 901.5 145.5 c 128,-1,38
 938 148 938 148 969 152 c 128,-1,39
 1000 156 1000 156 1027.5 161.5 c 128,-1,40
 1055 167 1055 167 1081 172 c 1,41,-1
 1081 608 l 1,42,-1
 782 608 l 1,43,-1
 782 772 l 1,0,-1
EndSplineSet
EndChar

StartChar: H
Encoding: 72 72 43
Width: 1436
GlyphClass: 2
Flags: W
LayerCount: 2
Fore
SplineSet
1237 0 m 1,0,-1
 1051 0 l 1,1,-1
 1051 682 l 1,2,-1
 385 682 l 1,3,-1
 385 0 l 1,4,-1
 199 0 l 1,5,-1
 199 1462 l 1,6,-1
 385 1462 l 1,7,-1
 385 846 l 1,8,-1
 1051 846 l 1,9,-1
 1051 1462 l 1,10,-1
 1237 1462 l 1,11,-1
 1237 0 l 1,0,-1
EndSplineSet
EndChar

StartChar: I
Encoding: 73 73 44
Width: 694
GlyphClass: 2
Flags: W
LayerCount: 2
Fore
SplineSet
612 0 m 1,0,-1
 82 0 l 1,1,-1
 82 102 l 1,2,-1
 254 143 l 1,3,-1
 254 1319 l 1,4,-1
 82 1360 l 1,5,-1
 82 1462 l 1,6,-1
 612 1462 l 1,7,-1
 612 1360 l 1,8,-1
 440 1319 l 1,9,-1
 440 143 l 1,10,-1
 612 102 l 1,11,-1
 612 0 l 1,0,-1
EndSplineSet
EndChar

StartChar: J
Encoding: 74 74 45
Width: 555
GlyphClass: 2
Flags: W
LayerCount: 2
Fore
SplineSet
-29 -389 m 0,0,1
 -80 -389 -80 -389 -118 -382.5 c 128,-1,2
 -156 -376 -156 -376 -184 -365 c 1,3,-1
 -184 -205 l 1,4,5
 -150 -214 -150 -214 -111 -219.5 c 128,-1,6
 -72 -225 -72 -225 -27 -225 c 0,7,8
 10 -225 10 -225 47.5 -215.5 c 128,-1,9
 85 -206 85 -206 115.5 -181 c 128,-1,10
 146 -156 146 -156 165 -112 c 128,-1,11
 184 -68 184 -68 184 0 c 2,12,-1
 184 1462 l 1,13,-1
 371 1462 l 1,14,-1
 371 20 l 2,15,16
 371 -85 371 -85 341.5 -162 c 128,-1,17
 312 -239 312 -239 259.5 -289.5 c 128,-1,18
 207 -340 207 -340 133.5 -364.5 c 128,-1,19
 60 -389 60 -389 -29 -389 c 0,0,1
EndSplineSet
EndChar

StartChar: K
Encoding: 75 75 46
Width: 1186
GlyphClass: 2
Flags: W
LayerCount: 2
Fore
SplineSet
1186 0 m 1,0,-1
 975 0 l 1,1,-1
 524 698 l 1,2,-1
 385 584 l 1,3,-1
 385 0 l 1,4,-1
 199 0 l 1,5,-1
 199 1462 l 1,6,-1
 385 1462 l 1,7,-1
 385 731 l 1,8,-1
 506 899 l 1,9,-1
 958 1462 l 1,10,-1
 1167 1462 l 1,11,-1
 647 825 l 1,12,-1
 1186 0 l 1,0,-1
EndSplineSet
EndChar

StartChar: L
Encoding: 76 76 47
Width: 1006
GlyphClass: 2
Flags: W
LayerCount: 2
Fore
SplineSet
199 0 m 1,0,-1
 199 1462 l 1,1,-1
 385 1462 l 1,2,-1
 385 166 l 1,3,-1
 958 166 l 1,4,-1
 958 0 l 1,5,-1
 199 0 l 1,0,-1
EndSplineSet
EndChar

StartChar: M
Encoding: 77 77 48
Width: 1782
GlyphClass: 2
Flags: W
LayerCount: 2
Fore
SplineSet
803 0 m 1,0,-1
 360 1280 l 1,1,-1
 352 1280 l 1,2,3
 358 1206 358 1206 362 1133 c 0,4,5
 366 1070 366 1070 368.5 1000.5 c 128,-1,6
 371 931 371 931 371 874 c 2,7,-1
 371 0 l 1,8,-1
 199 0 l 1,9,-1
 199 1462 l 1,10,-1
 475 1462 l 1,11,-1
 887 270 l 1,12,-1
 893 270 l 1,13,-1
 1307 1462 l 1,14,-1
 1583 1462 l 1,15,-1
 1583 0 l 1,16,-1
 1397 0 l 1,17,-1
 1397 887 l 2,18,19
 1397 939 1397 939 1399 1006 c 128,-1,20
 1401 1073 1401 1073 1404 1134 c 0,21,22
 1408 1205 1408 1205 1411 1278 c 1,23,-1
 1403 1278 l 1,24,-1
 956 0 l 1,25,-1
 803 0 l 1,0,-1
EndSplineSet
EndChar

StartChar: N
Encoding: 78 78 49
Width: 1493
GlyphClass: 2
Flags: W
LayerCount: 2
Fore
SplineSet
1294 0 m 1,0,-1
 1079 0 l 1,1,-1
 360 1210 l 1,2,-1
 352 1210 l 1,3,4
 358 1133 358 1133 362 1057 c 0,5,6
 366 992 366 992 368.5 921 c 128,-1,7
 371 850 371 850 371 793 c 2,8,-1
 371 0 l 1,9,-1
 199 0 l 1,10,-1
 199 1462 l 1,11,-1
 412 1462 l 1,12,-1
 1128 258 l 1,13,-1
 1135 258 l 1,14,15
 1132 334 1132 334 1128 408 c 0,16,17
 1127 440 1127 440 1125.5 473.5 c 128,-1,18
 1124 507 1124 507 1122.5 540.5 c 128,-1,19
 1121 574 1121 574 1120.5 605 c 128,-1,20
 1120 636 1120 636 1120 662 c 2,21,-1
 1120 1462 l 1,22,-1
 1294 1462 l 1,23,-1
 1294 0 l 1,0,-1
EndSplineSet
EndChar

StartChar: O
Encoding: 79 79 50
Width: 1520
GlyphClass: 2
Flags: W
LayerCount: 2
Fore
SplineSet
1393 733 m 0,0,1
 1393 564 1393 564 1352.5 425 c 128,-1,2
 1312 286 1312 286 1232 187 c 128,-1,3
 1152 88 1152 88 1033.5 34 c 128,-1,4
 915 -20 915 -20 760 -20 c 0,5,6
 597 -20 597 -20 477.5 34 c 128,-1,7
 358 88 358 88 279.5 187 c 128,-1,8
 201 286 201 286 163 425.5 c 128,-1,9
 125 565 125 565 125 735 c 256,10,11
 125 905 125 905 163 1043.5 c 128,-1,12
 201 1182 201 1182 280 1280 c 128,-1,13
 359 1378 359 1378 479 1431.5 c 128,-1,14
 599 1485 599 1485 762 1485 c 0,15,16
 917 1485 917 1485 1034.5 1431.5 c 128,-1,17
 1152 1378 1152 1378 1232 1279.5 c 128,-1,18
 1312 1181 1312 1181 1352.5 1042.5 c 128,-1,19
 1393 904 1393 904 1393 733 c 0,0,1
322 733 m 0,20,21
 322 596 322 596 348 486.5 c 128,-1,22
 374 377 374 377 427.5 300.5 c 128,-1,23
 481 224 481 224 563.5 183.5 c 128,-1,24
 646 143 646 143 760 143 c 256,25,26
 874 143 874 143 956.5 183.5 c 128,-1,27
 1039 224 1039 224 1092.5 300.5 c 128,-1,28
 1146 377 1146 377 1171 486.5 c 128,-1,29
 1196 596 1196 596 1196 733 c 0,30,31
 1196 871 1196 871 1171 980 c 128,-1,32
 1146 1089 1146 1089 1093 1164.5 c 128,-1,33
 1040 1240 1040 1240 958 1280.5 c 128,-1,34
 876 1321 876 1321 762 1321 c 256,35,36
 648 1321 648 1321 565 1280.5 c 128,-1,37
 482 1240 482 1240 428 1164.5 c 128,-1,38
 374 1089 374 1089 348 980 c 128,-1,39
 322 871 322 871 322 733 c 0,20,21
EndSplineSet
EndChar

StartChar: P
Encoding: 80 80 51
Width: 1180
GlyphClass: 2
Flags: W
LayerCount: 2
Fore
SplineSet
1075 1034 m 0,0,1
 1075 943 1075 943 1047.5 859 c 128,-1,2
 1020 775 1020 775 957 710.5 c 128,-1,3
 894 646 894 646 790.5 607.5 c 128,-1,4
 687 569 687 569 535 569 c 2,5,-1
 385 569 l 1,6,-1
 385 0 l 1,7,-1
 199 0 l 1,8,-1
 199 1462 l 1,9,-1
 561 1462 l 2,10,11
 695 1462 695 1462 792 1433.5 c 128,-1,12
 889 1405 889 1405 952 1350.5 c 128,-1,13
 1015 1296 1015 1296 1045 1216 c 128,-1,14
 1075 1136 1075 1136 1075 1034 c 0,0,1
385 727 m 1,15,-1
 514 727 l 2,16,17
 607 727 607 727 676.5 743 c 128,-1,18
 746 759 746 759 791.5 794.5 c 128,-1,19
 837 830 837 830 860 886.5 c 128,-1,20
 883 943 883 943 883 1024 c 0,21,22
 883 1166 883 1166 801 1234.5 c 128,-1,23
 719 1303 719 1303 545 1303 c 2,24,-1
 385 1303 l 1,25,-1
 385 727 l 1,15,-1
EndSplineSet
EndChar

StartChar: Q
Encoding: 81 81 52
Width: 1518
GlyphClass: 2
Flags: W
LayerCount: 2
Fore
SplineSet
1393 733 m 0,0,1
 1393 602 1393 602 1368.5 489 c 128,-1,2
 1344 376 1344 376 1296.5 285.5 c 128,-1,3
 1249 195 1249 195 1178 129 c 128,-1,4
 1107 63 1107 63 1014 25 c 1,5,6
 1057 -69 1057 -69 1125.5 -140.5 c 128,-1,7
 1194 -212 1194 -212 1284 -272 c 1,8,-1
 1163 -414 l 1,9,10
 1060 -341 1060 -341 973.5 -242 c 128,-1,11
 887 -143 887 -143 836 -16 c 1,12,13
 819 -18 819 -18 798.5 -19 c 128,-1,14
 778 -20 778 -20 760 -20 c 0,15,16
 597 -20 597 -20 477.5 34 c 128,-1,17
 358 88 358 88 279.5 187 c 128,-1,18
 201 286 201 286 163 425.5 c 128,-1,19
 125 565 125 565 125 735 c 256,20,21
 125 905 125 905 163 1043.5 c 128,-1,22
 201 1182 201 1182 280 1280 c 128,-1,23
 359 1378 359 1378 479 1431.5 c 128,-1,24
 599 1485 599 1485 762 1485 c 0,25,26
 917 1485 917 1485 1034.5 1431.5 c 128,-1,27
 1152 1378 1152 1378 1232 1279.5 c 128,-1,28
 1312 1181 1312 1181 1352.5 1042.5 c 128,-1,29
 1393 904 1393 904 1393 733 c 0,0,1
322 733 m 0,30,31
 322 596 322 596 348 486.5 c 128,-1,32
 374 377 374 377 427.5 300.5 c 128,-1,33
 481 224 481 224 563.5 183.5 c 128,-1,34
 646 143 646 143 760 143 c 256,35,36
 874 143 874 143 956.5 183.5 c 128,-1,37
 1039 224 1039 224 1092.5 300.5 c 128,-1,38
 1146 377 1146 377 1171 486.5 c 128,-1,39
 1196 596 1196 596 1196 733 c 0,40,41
 1196 871 1196 871 1171 980 c 128,-1,42
 1146 1089 1146 1089 1093 1164.5 c 128,-1,43
 1040 1240 1040 1240 958 1280.5 c 128,-1,44
 876 1321 876 1321 762 1321 c 256,45,46
 648 1321 648 1321 565 1280.5 c 128,-1,47
 482 1240 482 1240 428 1164.5 c 128,-1,48
 374 1089 374 1089 348 980 c 128,-1,49
 322 871 322 871 322 733 c 0,30,31
EndSplineSet
EndChar

StartChar: R
Encoding: 82 82 53
Width: 1208
GlyphClass: 2
Flags: W
LayerCount: 2
Fore
SplineSet
385 604 m 1,0,-1
 385 0 l 1,1,-1
 199 0 l 1,2,-1
 199 1462 l 1,3,-1
 555 1462 l 2,4,5
 821 1462 821 1462 948 1359 c 128,-1,6
 1075 1256 1075 1256 1075 1047 c 0,7,8
 1075 960 1075 960 1050.5 895 c 128,-1,9
 1026 830 1026 830 985.5 783.5 c 128,-1,10
 945 737 945 737 893 706 c 128,-1,11
 841 675 841 675 786 655 c 1,12,-1
 1184 0 l 1,13,-1
 965 0 l 1,14,-1
 614 604 l 1,15,-1
 385 604 l 1,0,-1
385 762 m 1,16,-1
 549 762 l 2,17,18
 639 762 639 762 702 779.5 c 128,-1,19
 765 797 765 797 805.5 831.5 c 128,-1,20
 846 866 846 866 864.5 917.5 c 128,-1,21
 883 969 883 969 883 1038 c 0,22,23
 883 1110 883 1110 862.5 1160 c 128,-1,24
 842 1210 842 1210 800.5 1242 c 128,-1,25
 759 1274 759 1274 695.5 1288.5 c 128,-1,26
 632 1303 632 1303 545 1303 c 2,27,-1
 385 1303 l 1,28,-1
 385 762 l 1,16,-1
EndSplineSet
EndChar

StartChar: S
Encoding: 83 83 54
Width: 1063
GlyphClass: 2
Flags: W
LayerCount: 2
Fore
SplineSet
969 391 m 0,0,1
 969 294 969 294 934.5 217.5 c 128,-1,2
 900 141 900 141 836 88 c 128,-1,3
 772 35 772 35 680 7.5 c 128,-1,4
 588 -20 588 -20 473 -20 c 0,5,6
 362 -20 362 -20 265.5 -2.5 c 128,-1,7
 169 15 169 15 104 49 c 1,8,-1
 104 227 l 1,9,10
 138 211 138 211 181.5 195.5 c 128,-1,11
 225 180 225 180 273 168 c 128,-1,12
 321 156 321 156 372 148.5 c 128,-1,13
 423 141 423 141 473 141 c 0,14,15
 633 141 633 141 709.5 201 c 128,-1,16
 786 261 786 261 786 373 c 0,17,18
 786 427 786 427 771.5 467 c 128,-1,19
 757 507 757 507 720.5 540.5 c 128,-1,20
 684 574 684 574 623 605.5 c 128,-1,21
 562 637 562 637 469 674 c 0,22,23
 380 709 380 709 314.5 750.5 c 128,-1,24
 249 792 249 792 206.5 844 c 128,-1,25
 164 896 164 896 143.5 962 c 128,-1,26
 123 1028 123 1028 123 1112 c 0,27,28
 123 1200 123 1200 155 1269 c 128,-1,29
 187 1338 187 1338 245 1385.5 c 128,-1,30
 303 1433 303 1433 383.5 1458 c 128,-1,31
 464 1483 464 1483 561 1483 c 0,32,33
 680 1483 680 1483 775 1460.5 c 128,-1,34
 870 1438 870 1438 944 1403 c 1,35,-1
 877 1247 l 1,36,37
 812 1276 812 1276 729.5 1297.5 c 128,-1,38
 647 1319 647 1319 559 1319 c 0,39,40
 437 1319 437 1319 370 1262.5 c 128,-1,41
 303 1206 303 1206 303 1110 c 0,42,43
 303 1053 303 1053 318 1011.5 c 128,-1,44
 333 970 333 970 368 936.5 c 128,-1,45
 403 903 403 903 460.5 873.5 c 128,-1,46
 518 844 518 844 602 811 c 0,47,48
 693 775 693 775 761.5 737 c 128,-1,49
 830 699 830 699 876 651 c 128,-1,50
 922 603 922 603 945.5 540 c 128,-1,51
 969 477 969 477 969 391 c 0,0,1
EndSplineSet
EndChar

StartChar: T
Encoding: 84 84 55
Width: 1063
GlyphClass: 2
Flags: W
LayerCount: 2
Fore
SplineSet
625 0 m 1,0,-1
 438 0 l 1,1,-1
 438 1298 l 1,2,-1
 20 1298 l 1,3,-1
 20 1462 l 1,4,-1
 1042 1462 l 1,5,-1
 1042 1298 l 1,6,-1
 625 1298 l 1,7,-1
 625 0 l 1,0,-1
EndSplineSet
EndChar

StartChar: U
Encoding: 85 85 56
Width: 1430
GlyphClass: 2
Flags: W
LayerCount: 2
Fore
SplineSet
1245 1464 m 1,0,-1
 1245 516 l 2,1,2
 1245 402 1245 402 1212 304 c 128,-1,3
 1179 206 1179 206 1112.5 134 c 128,-1,4
 1046 62 1046 62 945.5 21 c 128,-1,5
 845 -20 845 -20 709 -20 c 0,6,7
 581 -20 581 -20 483 18.5 c 128,-1,8
 385 57 385 57 318.5 128 c 128,-1,9
 252 199 252 199 218 298.5 c 128,-1,10
 184 398 184 398 184 520 c 2,11,-1
 184 1462 l 1,12,-1
 371 1462 l 1,13,-1
 371 510 l 2,14,15
 371 335 371 335 457.5 239 c 128,-1,16
 544 143 544 143 719 143 c 0,17,18
 808 143 808 143 872 170 c 128,-1,19
 936 197 936 197 977 246 c 128,-1,20
 1018 295 1018 295 1038 363 c 128,-1,21
 1058 431 1058 431 1059 512 c 1,22,-1
 1059 1464 l 1,23,-1
 1245 1464 l 1,0,-1
EndSplineSet
EndChar

StartChar: V
Encoding: 86 86 57
Width: 1163
GlyphClass: 2
Flags: W
LayerCount: 2
Fore
SplineSet
965 1462 m 1,0,-1
 1163 1462 l 1,1,-1
 674 0 l 1,2,-1
 487 0 l 1,3,-1
 0 1462 l 1,4,-1
 197 1462 l 1,5,-1
 492 535 l 2,6,7
 521 444 521 444 542 359.5 c 128,-1,8
 563 275 563 275 580 201 c 1,9,10
 595 275 595 275 618 359.5 c 128,-1,11
 641 444 641 444 672 541 c 2,12,-1
 965 1462 l 1,0,-1
EndSplineSet
EndChar

StartChar: W
Encoding: 87 87 58
Width: 1810
GlyphClass: 2
Flags: W
LayerCount: 2
Fore
SplineSet
809 1462 m 1,0,-1
 1006 1462 l 1,1,-1
 1235 606 l 2,2,3
 1250 550 1250 550 1264.5 494 c 128,-1,4
 1279 438 1279 438 1291.5 385.5 c 128,-1,5
 1304 333 1304 333 1313.5 286 c 128,-1,6
 1323 239 1323 239 1329 201 c 1,7,8
 1333 239 1333 239 1339 284 c 128,-1,9
 1345 329 1345 329 1353 378.5 c 128,-1,10
 1361 428 1361 428 1370.5 479.5 c 128,-1,11
 1380 531 1380 531 1391 580 c 2,12,-1
 1591 1462 l 1,13,-1
 1790 1462 l 1,14,-1
 1423 0 l 1,15,-1
 1235 0 l 1,16,-1
 981 938 l 2,17,18
 967 989 967 989 954 1043 c 128,-1,19
 941 1097 941 1097 930 1144 c 0,20,21
 918 1199 918 1199 907 1251 c 1,22,23
 896 1200 896 1200 885 1145 c 0,24,25
 875 1098 875 1098 862.5 1042 c 128,-1,26
 850 986 850 986 836 932 c 2,27,-1
 594 0 l 1,28,-1
 406 0 l 1,29,-1
 20 1462 l 1,30,-1
 217 1462 l 1,31,-1
 440 573 l 2,32,33
 452 527 452 527 462 477.5 c 128,-1,34
 472 428 472 428 480.5 379 c 128,-1,35
 489 330 489 330 496 284.5 c 128,-1,36
 503 239 503 239 508 201 c 1,37,38
 513 238 513 238 520.5 287 c 128,-1,39
 528 336 528 336 538 390 c 128,-1,40
 548 444 548 444 559.5 499.5 c 128,-1,41
 571 555 571 555 584 604 c 2,42,-1
 809 1462 l 1,0,-1
EndSplineSet
EndChar

StartChar: X
Encoding: 88 88 59
Width: 1120
GlyphClass: 2
Flags: W
LayerCount: 2
Fore
SplineSet
1120 0 m 1,0,-1
 909 0 l 1,1,-1
 555 635 l 1,2,-1
 188 0 l 1,3,-1
 0 0 l 1,4,-1
 453 764 l 1,5,-1
 31 1462 l 1,6,-1
 229 1462 l 1,7,-1
 561 903 l 1,8,-1
 895 1462 l 1,9,-1
 1085 1462 l 1,10,-1
 664 770 l 1,11,-1
 1120 0 l 1,0,-1
EndSplineSet
EndChar

StartChar: Y
Encoding: 89 89 60
Width: 1079
GlyphClass: 2
Flags: W
LayerCount: 2
Fore
SplineSet
539 723 m 1,0,-1
 879 1462 l 1,1,-1
 1079 1462 l 1,2,-1
 633 569 l 1,3,-1
 633 0 l 1,4,-1
 446 0 l 1,5,-1
 446 559 l 1,6,-1
 0 1462 l 1,7,-1
 203 1462 l 1,8,-1
 539 723 l 1,0,-1
EndSplineSet
EndChar

StartChar: Z
Encoding: 90 90 61
Width: 1104
GlyphClass: 2
Flags: W
LayerCount: 2
Fore
SplineSet
1022 0 m 1,0,-1
 82 0 l 1,1,-1
 82 145 l 1,2,-1
 793 1296 l 1,3,-1
 102 1296 l 1,4,-1
 102 1462 l 1,5,-1
 1001 1462 l 1,6,-1
 1001 1317 l 1,7,-1
 291 166 l 1,8,-1
 1022 166 l 1,9,-1
 1022 0 l 1,0,-1
EndSplineSet
EndChar

StartChar: bracketleft
Encoding: 91 91 62
Width: 621
GlyphClass: 2
Flags: W
LayerCount: 2
Fore
SplineSet
569 -324 m 1,0,-1
 164 -324 l 1,1,-1
 164 1462 l 1,2,-1
 569 1462 l 1,3,-1
 569 1313 l 1,4,-1
 346 1313 l 1,5,-1
 346 -174 l 1,6,-1
 569 -174 l 1,7,-1
 569 -324 l 1,0,-1
EndSplineSet
EndChar

StartChar: backslash
Encoding: 92 92 63
Width: 764
GlyphClass: 2
Flags: W
LayerCount: 2
Fore
SplineSet
201 1462 m 1,0,-1
 745 0 l 1,1,-1
 567 0 l 1,2,-1
 23 1462 l 1,3,-1
 201 1462 l 1,0,-1
EndSplineSet
EndChar

StartChar: bracketright
Encoding: 93 93 64
Width: 621
GlyphClass: 2
Flags: W
LayerCount: 2
Fore
SplineSet
51 -174 m 1,0,-1
 274 -174 l 1,1,-1
 274 1313 l 1,2,-1
 51 1313 l 1,3,-1
 51 1462 l 1,4,-1
 457 1462 l 1,5,-1
 457 -324 l 1,6,-1
 51 -324 l 1,7,-1
 51 -174 l 1,0,-1
EndSplineSet
EndChar

StartChar: asciicircum
Encoding: 94 94 65
Width: 1090
GlyphClass: 2
Flags: W
LayerCount: 2
Fore
SplineSet
41 549 m 1,0,-1
 500 1473 l 1,1,-1
 602 1473 l 1,2,-1
 1049 549 l 1,3,-1
 888 549 l 1,4,-1
 551 1284 l 1,5,-1
 202 549 l 1,6,-1
 41 549 l 1,0,-1
EndSplineSet
EndChar

StartChar: underscore
Encoding: 95 95 66
Width: 842
GlyphClass: 2
Flags: W
LayerCount: 2
Fore
SplineSet
846 -324 m 1,0,-1
 -4 -324 l 1,1,-1
 -4 -184 l 1,2,-1
 846 -184 l 1,3,-1
 846 -324 l 1,0,-1
EndSplineSet
EndChar

StartChar: grave
Encoding: 96 96 67
Width: 1182
GlyphClass: 2
Flags: W
LayerCount: 2
Fore
SplineSet
786 1241 m 1,0,-1
 666 1241 l 1,1,2
 631 1269 631 1269 590 1310.5 c 128,-1,3
 549 1352 549 1352 510.5 1396 c 128,-1,4
 472 1440 472 1440 440.5 1480.5 c 128,-1,5
 409 1521 409 1521 393 1548 c 1,6,-1
 393 1569 l 1,7,-1
 612 1569 l 1,8,9
 628 1535 628 1535 649.5 1494.5 c 128,-1,10
 671 1454 671 1454 694 1413.5 c 128,-1,11
 717 1373 717 1373 741 1335 c 128,-1,12
 765 1297 765 1297 786 1268 c 1,13,-1
 786 1241 l 1,0,-1
EndSplineSet
EndChar

StartChar: a
Encoding: 97 97 68
Width: 1087
GlyphClass: 2
Flags: W
LayerCount: 2
Fore
SplineSet
793 0 m 1,0,-1
 756 152 l 1,1,-1
 748 152 l 1,2,3
 715 107 715 107 682 74.5 c 128,-1,4
 649 42 649 42 610 21 c 128,-1,5
 571 0 571 0 523 -10 c 128,-1,6
 475 -20 475 -20 412 -20 c 0,7,8
 343 -20 343 -20 285 -0.5 c 128,-1,9
 227 19 227 19 184.5 59.5 c 128,-1,10
 142 100 142 100 118 161.5 c 128,-1,11
 94 223 94 223 94 307 c 0,12,13
 94 471 94 471 209.5 559 c 128,-1,14
 325 647 325 647 561 655 c 2,15,-1
 745 662 l 1,16,-1
 745 731 l 2,17,18
 745 798 745 798 730.5 843 c 128,-1,19
 716 888 716 888 688.5 915.5 c 128,-1,20
 661 943 661 943 620.5 955 c 128,-1,21
 580 967 580 967 528 967 c 0,22,23
 445 967 445 967 373.5 943 c 128,-1,24
 302 919 302 919 236 885 c 1,25,-1
 172 1022 l 1,26,27
 246 1062 246 1062 337 1090 c 128,-1,28
 428 1118 428 1118 528 1118 c 0,29,30
 630 1118 630 1118 704.5 1097.5 c 128,-1,31
 779 1077 779 1077 827.5 1032.5 c 128,-1,32
 876 988 876 988 900 919 c 128,-1,33
 924 850 924 850 924 752 c 2,34,-1
 924 0 l 1,35,-1
 793 0 l 1,0,-1
459 127 m 0,36,37
 520 127 520 127 572 146 c 128,-1,38
 624 165 624 165 662 203.5 c 128,-1,39
 700 242 700 242 721.5 300.5 c 128,-1,40
 743 359 743 359 743 438 c 2,41,-1
 743 537 l 1,42,-1
 600 530 l 2,43,44
 510 526 510 526 449 510 c 128,-1,45
 388 494 388 494 351.5 465.5 c 128,-1,46
 315 437 315 437 299 396.5 c 128,-1,47
 283 356 283 356 283 305 c 0,48,49
 283 213 283 213 331.5 170 c 128,-1,50
 380 127 380 127 459 127 c 0,36,37
EndSplineSet
EndChar

StartChar: b
Encoding: 98 98 69
Width: 1200
GlyphClass: 2
Flags: W
LayerCount: 2
Fore
SplineSet
670 1118 m 0,0,1
 764 1118 764 1118 841 1082 c 128,-1,2
 918 1046 918 1046 972.5 974.5 c 128,-1,3
 1027 903 1027 903 1057 797 c 128,-1,4
 1087 691 1087 691 1087 551 c 0,5,6
 1087 410 1087 410 1057 303.5 c 128,-1,7
 1027 197 1027 197 972.5 125 c 128,-1,8
 918 53 918 53 841 16.5 c 128,-1,9
 764 -20 764 -20 670 -20 c 0,10,11
 611 -20 611 -20 563 -7 c 128,-1,12
 515 6 515 6 476.5 27.5 c 128,-1,13
 438 49 438 49 408.5 78 c 128,-1,14
 379 107 379 107 356 139 c 1,15,-1
 344 139 l 1,16,-1
 307 0 l 1,17,-1
 174 0 l 1,18,-1
 174 1556 l 1,19,-1
 356 1556 l 1,20,-1
 356 1180 l 2,21,22
 356 1145 356 1145 355 1105.5 c 128,-1,23
 354 1066 354 1066 352 1032 c 0,24,25
 350 992 350 992 348 954 c 1,26,-1
 356 954 l 1,27,28
 379 989 379 989 408 1019 c 128,-1,29
 437 1049 437 1049 475.5 1071 c 128,-1,30
 514 1093 514 1093 562 1105.5 c 128,-1,31
 610 1118 610 1118 670 1118 c 0,0,1
635 967 m 0,32,33
 555 967 555 967 501.5 941.5 c 128,-1,34
 448 916 448 916 415.5 864 c 128,-1,35
 383 812 383 812 369.5 734 c 128,-1,36
 356 656 356 656 356 551 c 0,37,38
 356 450 356 450 369.5 371.5 c 128,-1,39
 383 293 383 293 415.5 239.5 c 128,-1,40
 448 186 448 186 502 158.5 c 128,-1,41
 556 131 556 131 637 131 c 0,42,43
 772 131 772 131 835.5 240 c 128,-1,44
 899 349 899 349 899 553 c 0,45,46
 899 761 899 761 835.5 864 c 128,-1,47
 772 967 772 967 635 967 c 0,32,33
EndSplineSet
EndChar

StartChar: c
Encoding: 99 99 70
Width: 948
GlyphClass: 2
Flags: W
LayerCount: 2
Fore
SplineSet
594 -20 m 0,0,1
 493 -20 493 -20 405 11.5 c 128,-1,2
 317 43 317 43 252 111.5 c 128,-1,3
 187 180 187 180 150 286.5 c 128,-1,4
 113 393 113 393 113 543 c 0,5,6
 113 700 113 700 151 809.5 c 128,-1,7
 189 919 189 919 255.5 987.5 c 128,-1,8
 322 1056 322 1056 411 1087 c 128,-1,9
 500 1118 500 1118 602 1118 c 0,10,11
 680 1118 680 1118 754.5 1101 c 128,-1,12
 829 1084 829 1084 879 1059 c 1,13,-1
 825 905 l 1,14,15
 802 915 802 915 774 924.5 c 128,-1,16
 746 934 746 934 716 941.5 c 128,-1,17
 686 949 686 949 657 953.5 c 128,-1,18
 628 958 628 958 602 958 c 0,19,20
 445 958 445 958 373 857.5 c 128,-1,21
 301 757 301 757 301 545 c 0,22,23
 301 334 301 334 373.5 236.5 c 128,-1,24
 446 139 446 139 594 139 c 0,25,26
 675 139 675 139 740.5 157.5 c 128,-1,27
 806 176 806 176 860 201 c 1,28,-1
 860 39 l 1,29,30
 806 10 806 10 744.5 -5 c 128,-1,31
 683 -20 683 -20 594 -20 c 0,0,1
EndSplineSet
EndChar

StartChar: d
Encoding: 100 100 71
Width: 1200
GlyphClass: 2
Flags: W
LayerCount: 2
Fore
SplineSet
852 147 m 1,0,-1
 844 147 l 1,1,2
 822 113 822 113 792.5 82.5 c 128,-1,3
 763 52 763 52 724.5 29 c 128,-1,4
 686 6 686 6 638 -7 c 128,-1,5
 590 -20 590 -20 530 -20 c 0,6,7
 437 -20 437 -20 360 16 c 128,-1,8
 283 52 283 52 228 123.5 c 128,-1,9
 173 195 173 195 143 301 c 128,-1,10
 113 407 113 407 113 547 c 0,11,12
 113 688 113 688 143 794.5 c 128,-1,13
 173 901 173 901 228 973 c 128,-1,14
 283 1045 283 1045 360 1081.5 c 128,-1,15
 437 1118 437 1118 530 1118 c 0,16,17
 589 1118 589 1118 637 1105 c 128,-1,18
 685 1092 685 1092 723.5 1070 c 128,-1,19
 762 1048 762 1048 792 1019 c 128,-1,20
 822 990 822 990 844 958 c 1,21,-1
 856 958 l 1,22,23
 853 992 853 992 850 1023 c 0,24,25
 848 1049 848 1049 846 1076.5 c 128,-1,26
 844 1104 844 1104 844 1120 c 2,27,-1
 844 1556 l 1,28,-1
 1026 1556 l 1,29,-1
 1026 0 l 1,30,-1
 879 0 l 1,31,-1
 852 147 l 1,0,-1
565 131 m 0,32,33
 641 131 641 131 693.5 154 c 128,-1,34
 746 177 746 177 778.5 224 c 128,-1,35
 811 271 811 271 826.5 341.5 c 128,-1,36
 842 412 842 412 844 506 c 1,37,-1
 844 547 l 2,38,39
 844 648 844 648 830.5 726.5 c 128,-1,40
 817 805 817 805 784.5 858.5 c 128,-1,41
 752 912 752 912 698 939.5 c 128,-1,42
 644 967 644 967 563 967 c 0,43,44
 428 967 428 967 364.5 858 c 128,-1,45
 301 749 301 749 301 545 c 0,46,47
 301 336 301 336 364.5 233.5 c 128,-1,48
 428 131 428 131 565 131 c 0,32,33
EndSplineSet
EndChar

StartChar: e
Encoding: 101 101 72
Width: 1096
GlyphClass: 2
Flags: W
LayerCount: 2
Fore
SplineSet
608 -20 m 0,0,1
 498 -20 498 -20 407 17 c 128,-1,2
 316 54 316 54 250.5 125 c 128,-1,3
 185 196 185 196 149 301 c 128,-1,4
 113 406 113 406 113 541 c 0,5,6
 113 677 113 677 146 784 c 128,-1,7
 179 891 179 891 239 965.5 c 128,-1,8
 299 1040 299 1040 382.5 1079 c 128,-1,9
 466 1118 466 1118 567 1118 c 0,10,11
 666 1118 666 1118 745 1082.5 c 128,-1,12
 824 1047 824 1047 879 982.5 c 128,-1,13
 934 918 934 918 963.5 827.5 c 128,-1,14
 993 737 993 737 993 627 c 2,15,-1
 993 514 l 1,16,-1
 301 514 l 1,17,18
 306 321 306 321 382.5 230 c 128,-1,19
 459 139 459 139 610 139 c 0,20,21
 661 139 661 139 704.5 144 c 128,-1,22
 748 149 748 149 788.5 158.5 c 128,-1,23
 829 168 829 168 867 182.5 c 128,-1,24
 905 197 905 197 944 215 c 1,25,-1
 944 53 l 1,26,27
 904 34 904 34 865.5 20 c 128,-1,28
 827 6 827 6 786.5 -3 c 128,-1,29
 746 -12 746 -12 702.5 -16 c 128,-1,30
 659 -20 659 -20 608 -20 c 0,0,1
563 967 m 0,31,32
 449 967 449 967 382.5 889 c 128,-1,33
 316 811 316 811 305 662 c 1,34,-1
 797 662 l 1,35,36
 797 730 797 730 783.5 786.5 c 128,-1,37
 770 843 770 843 741.5 883 c 128,-1,38
 713 923 713 923 669 945 c 128,-1,39
 625 967 625 967 563 967 c 0,31,32
EndSplineSet
EndChar

StartChar: f
Encoding: 102 102 73
Width: 674
GlyphClass: 2
Flags: W
LayerCount: 2
Fore
SplineSet
651 961 m 1,0,-1
 406 961 l 1,1,-1
 406 0 l 1,2,-1
 223 0 l 1,3,-1
 223 961 l 1,4,-1
 29 961 l 1,5,-1
 29 1036 l 1,6,-1
 223 1104 l 1,7,-1
 223 1200 l 2,8,9
 223 1307 223 1307 245.5 1377.5 c 128,-1,10
 268 1448 268 1448 310.5 1490 c 128,-1,11
 353 1532 353 1532 415 1549.5 c 128,-1,12
 477 1567 477 1567 555 1567 c 0,13,14
 614 1567 614 1567 663.5 1555.5 c 128,-1,15
 713 1544 713 1544 752 1530 c 1,16,-1
 705 1389 l 1,17,18
 674 1400 674 1400 637.5 1408.5 c 128,-1,19
 601 1417 601 1417 561 1417 c 256,20,21
 521 1417 521 1417 492 1407.5 c 128,-1,22
 463 1398 463 1398 444 1374 c 128,-1,23
 425 1350 425 1350 415.5 1308.5 c 128,-1,24
 406 1267 406 1267 406 1202 c 2,25,-1
 406 1098 l 1,26,-1
 651 1098 l 1,27,-1
 651 961 l 1,0,-1
EndSplineSet
EndChar

StartChar: g
Encoding: 103 103 74
Width: 1061
GlyphClass: 2
Flags: W
LayerCount: 2
Fore
SplineSet
1020 1098 m 1,0,-1
 1020 985 l 1,1,-1
 823 958 l 1,2,3
 851 923 851 923 870 868.5 c 128,-1,4
 889 814 889 814 889 745 c 0,5,6
 889 669 889 669 865.5 604.5 c 128,-1,7
 842 540 842 540 794.5 493 c 128,-1,8
 747 446 747 446 677 419.5 c 128,-1,9
 607 393 607 393 514 393 c 0,10,11
 492 393 492 393 470 393.5 c 128,-1,12
 448 394 448 394 434 397 c 1,13,14
 417 387 417 387 400.5 374.5 c 128,-1,15
 384 362 384 362 370.5 346 c 128,-1,16
 357 330 357 330 348.5 310 c 128,-1,17
 340 290 340 290 340 266 c 0,18,19
 340 239 340 239 352 222.5 c 128,-1,20
 364 206 364 206 384.5 197 c 128,-1,21
 405 188 405 188 433 185 c 128,-1,22
 461 182 461 182 492 182 c 2,23,-1
 668 182 l 2,24,25
 761 182 761 182 825 158.5 c 128,-1,26
 889 135 889 135 929.5 95 c 128,-1,27
 970 55 970 55 988 0.5 c 128,-1,28
 1006 -54 1006 -54 1006 -115 c 0,29,30
 1006 -203 1006 -203 973.5 -273 c 128,-1,31
 941 -343 941 -343 874 -391.5 c 128,-1,32
 807 -440 807 -440 704.5 -466 c 128,-1,33
 602 -492 602 -492 463 -492 c 0,34,35
 356 -492 356 -492 276 -471 c 128,-1,36
 196 -450 196 -450 143 -410 c 128,-1,37
 90 -370 90 -370 63.5 -313.5 c 128,-1,38
 37 -257 37 -257 37 -186 c 0,39,40
 37 -126 37 -126 56.5 -80.5 c 128,-1,41
 76 -35 76 -35 109 -2 c 128,-1,42
 142 31 142 31 185.5 52 c 128,-1,43
 229 73 229 73 276 84 c 1,44,45
 234 103 234 103 207 144 c 128,-1,46
 180 185 180 185 180 238 c 0,47,48
 180 299 180 299 212 343.5 c 128,-1,49
 244 388 244 388 313 430 c 1,50,51
 270 448 270 448 234.5 479.5 c 128,-1,52
 199 511 199 511 174.5 551.5 c 128,-1,53
 150 592 150 592 136.5 640 c 128,-1,54
 123 688 123 688 123 739 c 0,55,56
 123 828 123 828 148 898 c 128,-1,57
 173 968 173 968 222 1017 c 128,-1,58
 271 1066 271 1066 344 1092 c 128,-1,59
 417 1118 417 1118 514 1118 c 0,60,61
 551 1118 551 1118 590.5 1112.5 c 128,-1,62
 630 1107 630 1107 657 1098 c 1,63,-1
 1020 1098 l 1,0,-1
209 -180 m 0,64,65
 209 -217 209 -217 222 -249 c 128,-1,66
 235 -281 235 -281 264.5 -304 c 128,-1,67
 294 -327 294 -327 342.5 -340.5 c 128,-1,68
 391 -354 391 -354 463 -354 c 0,69,70
 649 -354 649 -354 741.5 -296.5 c 128,-1,71
 834 -239 834 -239 834 -131 c 0,72,73
 834 -85 834 -85 822 -56 c 128,-1,74
 810 -27 810 -27 782.5 -10.5 c 128,-1,75
 755 6 755 6 710 12 c 128,-1,76
 665 18 665 18 600 18 c 2,77,-1
 424 18 l 2,78,79
 389 18 389 18 351 10 c 128,-1,80
 313 2 313 2 281.5 -20 c 128,-1,81
 250 -42 250 -42 229.5 -80.5 c 128,-1,82
 209 -119 209 -119 209 -180 c 0,64,65
301 745 m 0,83,84
 301 630 301 630 355 574 c 128,-1,85
 409 518 409 518 508 518 c 0,86,87
 608 518 608 518 659.5 573.5 c 128,-1,88
 711 629 711 629 711 748 c 0,89,90
 711 871 711 871 658.5 929 c 128,-1,91
 606 987 606 987 506 987 c 0,92,93
 407 987 407 987 354 927 c 128,-1,94
 301 867 301 867 301 745 c 0,83,84
EndSplineSet
EndChar

StartChar: h
Encoding: 104 104 75
Width: 1206
GlyphClass: 2
Flags: W
LayerCount: 2
Fore
SplineSet
860 0 m 1,0,-1
 860 707 l 2,1,2
 860 837 860 837 807.5 902 c 128,-1,3
 755 967 755 967 643 967 c 0,4,5
 562 967 562 967 507 941 c 128,-1,6
 452 915 452 915 418.5 864 c 128,-1,7
 385 813 385 813 370.5 739 c 128,-1,8
 356 665 356 665 356 569 c 2,9,-1
 356 0 l 1,10,-1
 174 0 l 1,11,-1
 174 1556 l 1,12,-1
 356 1556 l 1,13,-1
 356 1094 l 1,14,-1
 348 950 l 1,15,-1
 358 950 l 1,16,17
 383 993 383 993 417.5 1024.5 c 128,-1,18
 452 1056 452 1056 493 1077 c 128,-1,19
 534 1098 534 1098 580 1108 c 128,-1,20
 626 1118 626 1118 674 1118 c 0,21,22
 857 1118 857 1118 949.5 1022.5 c 128,-1,23
 1042 927 1042 927 1042 717 c 2,24,-1
 1042 0 l 1,25,-1
 860 0 l 1,0,-1
EndSplineSet
EndChar

StartChar: i
Encoding: 105 105 76
Width: 530
GlyphClass: 2
Flags: W
LayerCount: 2
Fore
SplineSet
356 0 m 1,0,-1
 174 0 l 1,1,-1
 174 1098 l 1,2,-1
 356 1098 l 1,3,-1
 356 0 l 1,0,-1
160 1395 m 0,4,5
 160 1455 160 1455 190.5 1482 c 128,-1,6
 221 1509 221 1509 266 1509 c 0,7,8
 288 1509 288 1509 307.5 1502.5 c 128,-1,9
 327 1496 327 1496 341.5 1482 c 128,-1,10
 356 1468 356 1468 364.5 1446.5 c 128,-1,11
 373 1425 373 1425 373 1395 c 0,12,13
 373 1337 373 1337 341.5 1308.5 c 128,-1,14
 310 1280 310 1280 266 1280 c 0,15,16
 221 1280 221 1280 190.5 1308 c 128,-1,17
 160 1336 160 1336 160 1395 c 0,4,5
EndSplineSet
EndChar

StartChar: j
Encoding: 106 106 77
Width: 530
GlyphClass: 2
Flags: W
LayerCount: 2
Fore
SplineSet
66 -492 m 0,0,1
 18 -492 18 -492 -13.5 -485 c 128,-1,2
 -45 -478 -45 -478 -68 -467 c 1,3,-1
 -68 -319 l 1,4,5
 -42 -329 -42 -329 -15 -334.5 c 128,-1,6
 12 -340 12 -340 47 -340 c 0,7,8
 74 -340 74 -340 97 -332.5 c 128,-1,9
 120 -325 120 -325 137.5 -305.5 c 128,-1,10
 155 -286 155 -286 164.5 -253.5 c 128,-1,11
 174 -221 174 -221 174 -170 c 2,12,-1
 174 1098 l 1,13,-1
 356 1098 l 1,14,-1
 356 -158 l 2,15,16
 356 -235 356 -235 339 -296.5 c 128,-1,17
 322 -358 322 -358 286 -401.5 c 128,-1,18
 250 -445 250 -445 195.5 -468.5 c 128,-1,19
 141 -492 141 -492 66 -492 c 0,0,1
160 1395 m 0,20,21
 160 1455 160 1455 190.5 1482 c 128,-1,22
 221 1509 221 1509 266 1509 c 0,23,24
 288 1509 288 1509 307.5 1502.5 c 128,-1,25
 327 1496 327 1496 341.5 1482 c 128,-1,26
 356 1468 356 1468 364.5 1446.5 c 128,-1,27
 373 1425 373 1425 373 1395 c 0,28,29
 373 1337 373 1337 341.5 1308.5 c 128,-1,30
 310 1280 310 1280 266 1280 c 0,31,32
 221 1280 221 1280 190.5 1308 c 128,-1,33
 160 1336 160 1336 160 1395 c 0,20,21
EndSplineSet
EndChar

StartChar: k
Encoding: 107 107 78
Width: 1016
GlyphClass: 2
Flags: W
LayerCount: 2
Fore
SplineSet
342 567 m 1,0,-1
 477 737 l 1,1,-1
 770 1098 l 1,2,-1
 981 1098 l 1,3,-1
 580 623 l 1,4,-1
 1008 0 l 1,5,-1
 799 0 l 1,6,-1
 463 504 l 1,7,-1
 354 422 l 1,8,-1
 354 0 l 1,9,-1
 174 0 l 1,10,-1
 174 1556 l 1,11,-1
 354 1556 l 1,12,-1
 354 842 l 1,13,-1
 338 567 l 1,14,-1
 342 567 l 1,0,-1
EndSplineSet
EndChar

StartChar: l
Encoding: 108 108 79
Width: 530
GlyphClass: 2
Flags: W
LayerCount: 2
Fore
SplineSet
356 0 m 1,0,-1
 174 0 l 1,1,-1
 174 1556 l 1,2,-1
 356 1556 l 1,3,-1
 356 0 l 1,0,-1
EndSplineSet
EndChar

StartChar: m
Encoding: 109 109 80
Width: 1835
GlyphClass: 2
Flags: W
LayerCount: 2
Fore
SplineSet
1489 0 m 1,0,-1
 1489 707 l 2,1,2
 1489 837 1489 837 1439 902 c 128,-1,3
 1389 967 1389 967 1284 967 c 0,4,5
 1211 967 1211 967 1160 943.5 c 128,-1,6
 1109 920 1109 920 1076.5 874.5 c 128,-1,7
 1044 829 1044 829 1029 761.5 c 128,-1,8
 1014 694 1014 694 1014 606 c 2,9,-1
 1014 0 l 1,10,-1
 831 0 l 1,11,-1
 831 707 l 2,12,13
 831 837 831 837 781.5 902 c 128,-1,14
 732 967 732 967 627 967 c 0,15,16
 550 967 550 967 498 941 c 128,-1,17
 446 915 446 915 414.5 864 c 128,-1,18
 383 813 383 813 369.5 739 c 128,-1,19
 356 665 356 665 356 569 c 2,20,-1
 356 0 l 1,21,-1
 174 0 l 1,22,-1
 174 1098 l 1,23,-1
 322 1098 l 1,24,-1
 348 950 l 1,25,-1
 358 950 l 1,26,27
 382 993 382 993 415 1024.5 c 128,-1,28
 448 1056 448 1056 487.5 1077 c 128,-1,29
 527 1098 527 1098 571.5 1108 c 128,-1,30
 616 1118 616 1118 662 1118 c 0,31,32
 782 1118 782 1118 861.5 1074 c 128,-1,33
 941 1030 941 1030 979 936 c 1,34,-1
 987 936 l 1,35,36
 1013 983 1013 983 1049.5 1017 c 128,-1,37
 1086 1051 1086 1051 1129.5 1073.5 c 128,-1,38
 1173 1096 1173 1096 1221 1107 c 128,-1,39
 1269 1118 1269 1118 1319 1118 c 0,40,41
 1494 1118 1494 1118 1582.5 1022.5 c 128,-1,42
 1671 927 1671 927 1671 717 c 2,43,-1
 1671 0 l 1,44,-1
 1489 0 l 1,0,-1
EndSplineSet
EndChar

StartChar: n
Encoding: 110 110 81
Width: 1206
GlyphClass: 2
Flags: W
LayerCount: 2
Fore
SplineSet
860 0 m 1,0,-1
 860 707 l 2,1,2
 860 837 860 837 807.5 902 c 128,-1,3
 755 967 755 967 643 967 c 0,4,5
 562 967 562 967 507 941 c 128,-1,6
 452 915 452 915 418.5 864 c 128,-1,7
 385 813 385 813 370.5 739 c 128,-1,8
 356 665 356 665 356 569 c 2,9,-1
 356 0 l 1,10,-1
 174 0 l 1,11,-1
 174 1098 l 1,12,-1
 322 1098 l 1,13,-1
 348 950 l 1,14,-1
 358 950 l 1,15,16
 383 993 383 993 417.5 1024.5 c 128,-1,17
 452 1056 452 1056 493 1077 c 128,-1,18
 534 1098 534 1098 580 1108 c 128,-1,19
 626 1118 626 1118 674 1118 c 0,20,21
 857 1118 857 1118 949.5 1022.5 c 128,-1,22
 1042 927 1042 927 1042 717 c 2,23,-1
 1042 0 l 1,24,-1
 860 0 l 1,0,-1
EndSplineSet
EndChar

StartChar: o
Encoding: 111 111 82
Width: 1182
GlyphClass: 2
Flags: W
LayerCount: 2
Fore
SplineSet
1069 551 m 0,0,1
 1069 414 1069 414 1035.5 307.5 c 128,-1,2
 1002 201 1002 201 939.5 128.5 c 128,-1,3
 877 56 877 56 788 18 c 128,-1,4
 699 -20 699 -20 588 -20 c 0,5,6
 485 -20 485 -20 398 18 c 128,-1,7
 311 56 311 56 247.5 128.5 c 128,-1,8
 184 201 184 201 148.5 307.5 c 128,-1,9
 113 414 113 414 113 551 c 0,10,11
 113 687 113 687 146.5 792.5 c 128,-1,12
 180 898 180 898 242 970.5 c 128,-1,13
 304 1043 304 1043 393.5 1080.5 c 128,-1,14
 483 1118 483 1118 594 1118 c 0,15,16
 697 1118 697 1118 784 1080.5 c 128,-1,17
 871 1043 871 1043 934.5 970.5 c 128,-1,18
 998 898 998 898 1033.5 792.5 c 128,-1,19
 1069 687 1069 687 1069 551 c 0,0,1
301 551 m 256,20,21
 301 342 301 342 369.5 236.5 c 128,-1,22
 438 131 438 131 592 131 c 256,23,24
 746 131 746 131 813.5 236.5 c 128,-1,25
 881 342 881 342 881 551 c 256,26,27
 881 760 881 760 812.5 863.5 c 128,-1,28
 744 967 744 967 590 967 c 256,29,30
 436 967 436 967 368.5 863.5 c 128,-1,31
 301 760 301 760 301 551 c 256,20,21
EndSplineSet
EndChar

StartChar: p
Encoding: 112 112 83
Width: 1200
GlyphClass: 2
Flags: W
LayerCount: 2
Fore
SplineSet
670 -20 m 0,0,1
 611 -20 611 -20 563 -7 c 128,-1,2
 515 6 515 6 476.5 27.5 c 128,-1,3
 438 49 438 49 408.5 78 c 128,-1,4
 379 107 379 107 356 139 c 1,5,-1
 344 139 l 1,6,7
 347 105 347 105 350 74 c 0,8,9
 352 48 352 48 354 20.5 c 128,-1,10
 356 -7 356 -7 356 -23 c 2,11,-1
 356 -492 l 1,12,-1
 174 -492 l 1,13,-1
 174 1098 l 1,14,-1
 322 1098 l 1,15,-1
 348 950 l 1,16,-1
 356 950 l 1,17,18
 379 985 379 985 408 1015.5 c 128,-1,19
 437 1046 437 1046 475.5 1068.5 c 128,-1,20
 514 1091 514 1091 562 1104.5 c 128,-1,21
 610 1118 610 1118 670 1118 c 0,22,23
 764 1118 764 1118 841 1082 c 128,-1,24
 918 1046 918 1046 972.5 974.5 c 128,-1,25
 1027 903 1027 903 1057 797 c 128,-1,26
 1087 691 1087 691 1087 551 c 0,27,28
 1087 410 1087 410 1057 303.5 c 128,-1,29
 1027 197 1027 197 972.5 125 c 128,-1,30
 918 53 918 53 841 16.5 c 128,-1,31
 764 -20 764 -20 670 -20 c 0,0,1
635 967 m 0,32,33
 559 967 559 967 506.5 944 c 128,-1,34
 454 921 454 921 421.5 874 c 128,-1,35
 389 827 389 827 373.5 757 c 128,-1,36
 358 687 358 687 356 592 c 1,37,-1
 356 551 l 2,38,39
 356 450 356 450 369.5 371.5 c 128,-1,40
 383 293 383 293 415.5 239.5 c 128,-1,41
 448 186 448 186 502 158.5 c 128,-1,42
 556 131 556 131 637 131 c 0,43,44
 772 131 772 131 835.5 240 c 128,-1,45
 899 349 899 349 899 553 c 0,46,47
 899 761 899 761 835.5 864 c 128,-1,48
 772 967 772 967 635 967 c 0,32,33
EndSplineSet
EndChar

StartChar: q
Encoding: 113 113 84
Width: 1200
GlyphClass: 2
Flags: W
LayerCount: 2
Fore
SplineSet
565 131 m 0,0,1
 641 131 641 131 693.5 154 c 128,-1,2
 746 177 746 177 778.5 224 c 128,-1,3
 811 271 811 271 826.5 341.5 c 128,-1,4
 842 412 842 412 844 506 c 1,5,-1
 844 547 l 2,6,7
 844 648 844 648 830.5 726.5 c 128,-1,8
 817 805 817 805 784.5 858.5 c 128,-1,9
 752 912 752 912 698 939.5 c 128,-1,10
 644 967 644 967 563 967 c 0,11,12
 428 967 428 967 364.5 858 c 128,-1,13
 301 749 301 749 301 545 c 0,14,15
 301 336 301 336 364.5 233.5 c 128,-1,16
 428 131 428 131 565 131 c 0,0,1
530 -20 m 0,17,18
 437 -20 437 -20 360 16 c 128,-1,19
 283 52 283 52 228 123.5 c 128,-1,20
 173 195 173 195 143 301 c 128,-1,21
 113 407 113 407 113 547 c 0,22,23
 113 688 113 688 143 794.5 c 128,-1,24
 173 901 173 901 228 973 c 128,-1,25
 283 1045 283 1045 360 1081.5 c 128,-1,26
 437 1118 437 1118 530 1118 c 0,27,28
 589 1118 589 1118 637 1104.5 c 128,-1,29
 685 1091 685 1091 723 1068.5 c 128,-1,30
 761 1046 761 1046 791 1015.5 c 128,-1,31
 821 985 821 985 844 950 c 1,32,-1
 852 950 l 1,33,-1
 879 1098 l 1,34,-1
 1026 1098 l 1,35,-1
 1026 -492 l 1,36,-1
 844 -492 l 1,37,-1
 844 -23 l 2,38,39
 844 -4 844 -4 846 25 c 128,-1,40
 848 54 848 54 850 81 c 0,41,42
 853 113 853 113 856 147 c 1,43,-1
 844 147 l 1,44,45
 822 113 822 113 792.5 82.5 c 128,-1,46
 763 52 763 52 724.5 29 c 128,-1,47
 686 6 686 6 638 -7 c 128,-1,48
 590 -20 590 -20 530 -20 c 0,17,18
EndSplineSet
EndChar

StartChar: r
Encoding: 114 114 85
Width: 817
GlyphClass: 2
Flags: W
LayerCount: 2
Fore
SplineSet
649 1118 m 0,0,1
 678 1118 678 1118 714 1115.5 c 128,-1,2
 750 1113 750 1113 776 1108 c 1,3,-1
 752 940 l 1,4,5
 724 945 724 945 694.5 948.5 c 128,-1,6
 665 952 665 952 639 952 c 0,7,8
 576 952 576 952 524 926.5 c 128,-1,9
 472 901 472 901 434.5 853.5 c 128,-1,10
 397 806 397 806 376.5 739.5 c 128,-1,11
 356 673 356 673 356 592 c 2,12,-1
 356 0 l 1,13,-1
 174 0 l 1,14,-1
 174 1098 l 1,15,-1
 322 1098 l 1,16,-1
 344 897 l 1,17,-1
 352 897 l 1,18,19
 377 940 377 940 405.5 980 c 128,-1,20
 434 1020 434 1020 469.5 1050.5 c 128,-1,21
 505 1081 505 1081 549 1099.5 c 128,-1,22
 593 1118 593 1118 649 1118 c 0,0,1
EndSplineSet
EndChar

StartChar: s
Encoding: 115 115 86
Width: 924
GlyphClass: 2
Flags: W
LayerCount: 2
Fore
SplineSet
831 301 m 0,0,1
 831 221 831 221 802 161 c 128,-1,2
 773 101 773 101 718.5 60.5 c 128,-1,3
 664 20 664 20 587 0 c 128,-1,4
 510 -20 510 -20 414 -20 c 0,5,6
 305 -20 305 -20 227 -2.5 c 128,-1,7
 149 15 149 15 90 49 c 1,8,-1
 90 215 l 1,9,10
 121 199 121 199 159 183.5 c 128,-1,11
 197 168 197 168 239 156 c 128,-1,12
 281 144 281 144 325.5 136.5 c 128,-1,13
 370 129 370 129 414 129 c 0,14,15
 479 129 479 129 524.5 140 c 128,-1,16
 570 151 570 151 598.5 171.5 c 128,-1,17
 627 192 627 192 640 221.5 c 128,-1,18
 653 251 653 251 653 287 c 0,19,20
 653 318 653 318 643 343 c 128,-1,21
 633 368 633 368 606.5 392.5 c 128,-1,22
 580 417 580 417 534 442 c 128,-1,23
 488 467 488 467 416 498 c 256,24,25
 344 529 344 529 286.5 559 c 128,-1,26
 229 589 229 589 189 626 c 128,-1,27
 149 663 149 663 127.5 711.5 c 128,-1,28
 106 760 106 760 106 827 c 0,29,30
 106 897 106 897 133.5 951.5 c 128,-1,31
 161 1006 161 1006 211 1043 c 128,-1,32
 261 1080 261 1080 331 1099 c 128,-1,33
 401 1118 401 1118 487 1118 c 0,34,35
 584 1118 584 1118 664.5 1097 c 128,-1,36
 745 1076 745 1076 817 1042 c 1,37,-1
 754 895 l 1,38,39
 689 924 689 924 620.5 945.5 c 128,-1,40
 552 967 552 967 481 967 c 0,41,42
 379 967 379 967 330 933.5 c 128,-1,43
 281 900 281 900 281 838 c 0,44,45
 281 803 281 803 292.5 777 c 128,-1,46
 304 751 304 751 332 728 c 128,-1,47
 360 705 360 705 407 681.5 c 128,-1,48
 454 658 454 658 524 629 c 0,49,50
 596 599 596 599 652.5 569 c 128,-1,51
 709 539 709 539 749 501.5 c 128,-1,52
 789 464 789 464 810 416 c 128,-1,53
 831 368 831 368 831 301 c 0,0,1
EndSplineSet
EndChar

StartChar: t
Encoding: 116 116 87
Width: 694
GlyphClass: 2
Flags: W
LayerCount: 2
Fore
SplineSet
506 129 m 0,0,1
 524 129 524 129 546.5 131 c 128,-1,2
 569 133 569 133 590 136 c 128,-1,3
 611 139 611 139 628.5 143 c 128,-1,4
 646 147 646 147 655 150 c 1,5,-1
 655 12 l 1,6,7
 642 6 642 6 622 0 c 128,-1,8
 602 -6 602 -6 578 -10.5 c 128,-1,9
 554 -15 554 -15 528 -17.5 c 128,-1,10
 502 -20 502 -20 477 -20 c 0,11,12
 415 -20 415 -20 362 -4 c 128,-1,13
 309 12 309 12 270.5 51 c 128,-1,14
 232 90 232 90 210 156.5 c 128,-1,15
 188 223 188 223 188 324 c 2,16,-1
 188 961 l 1,17,-1
 33 961 l 1,18,-1
 33 1042 l 1,19,-1
 188 1120 l 1,20,-1
 266 1350 l 1,21,-1
 371 1350 l 1,22,-1
 371 1098 l 1,23,-1
 647 1098 l 1,24,-1
 647 961 l 1,25,-1
 371 961 l 1,26,-1
 371 324 l 2,27,28
 371 227 371 227 402.5 178 c 128,-1,29
 434 129 434 129 506 129 c 0,0,1
EndSplineSet
EndChar

StartChar: u
Encoding: 117 117 88
Width: 1206
GlyphClass: 2
Flags: W
LayerCount: 2
Fore
SplineSet
885 0 m 1,0,-1
 858 147 l 1,1,-1
 848 147 l 1,2,3
 823 104 823 104 788.5 72.5 c 128,-1,4
 754 41 754 41 713 20.5 c 128,-1,5
 672 0 672 0 626 -10 c 128,-1,6
 580 -20 580 -20 532 -20 c 0,7,8
 441 -20 441 -20 372 3 c 128,-1,9
 303 26 303 26 257 75 c 128,-1,10
 211 124 211 124 187.5 200 c 128,-1,11
 164 276 164 276 164 381 c 2,12,-1
 164 1098 l 1,13,-1
 346 1098 l 1,14,-1
 346 391 l 2,15,16
 346 261 346 261 399 196 c 128,-1,17
 452 131 452 131 563 131 c 0,18,19
 644 131 644 131 699 157 c 128,-1,20
 754 183 754 183 787.5 233.5 c 128,-1,21
 821 284 821 284 835.5 358 c 128,-1,22
 850 432 850 432 850 528 c 2,23,-1
 850 1098 l 1,24,-1
 1032 1098 l 1,25,-1
 1032 0 l 1,26,-1
 885 0 l 1,0,-1
EndSplineSet
EndChar

StartChar: v
Encoding: 118 118 89
Width: 981
GlyphClass: 2
Flags: W
LayerCount: 2
Fore
SplineSet
375 0 m 1,0,-1
 0 1098 l 1,1,-1
 188 1098 l 1,2,-1
 387 487 l 2,3,4
 398 454 398 454 413 402 c 128,-1,5
 428 350 428 350 443 296 c 128,-1,6
 458 242 458 242 470.5 194 c 128,-1,7
 483 146 483 146 487 121 c 1,8,-1
 494 121 l 1,9,10
 499 146 499 146 511 194 c 128,-1,11
 523 242 523 242 538 296 c 128,-1,12
 553 350 553 350 568 402 c 128,-1,13
 583 454 583 454 594 487 c 2,14,-1
 793 1098 l 1,15,-1
 981 1098 l 1,16,-1
 606 0 l 1,17,-1
 375 0 l 1,0,-1
EndSplineSet
EndChar

StartChar: w
Encoding: 119 119 90
Width: 1528
GlyphClass: 2
Flags: W
LayerCount: 2
Fore
SplineSet
1008 0 m 1,0,-1
 840 616 l 2,1,2
 836 634 836 634 830 656.5 c 128,-1,3
 824 679 824 679 818 704 c 128,-1,4
 812 729 812 729 805.5 755 c 128,-1,5
 799 781 799 781 793 806 c 0,6,7
 779 864 779 864 764 926 c 1,8,-1
 758 926 l 1,9,10
 744 863 744 863 731 805 c 0,11,12
 720 755 720 755 707.5 702 c 128,-1,13
 695 649 695 649 684 612 c 2,14,-1
 512 0 l 1,15,-1
 301 0 l 1,16,-1
 20 1098 l 1,17,-1
 211 1098 l 1,18,-1
 342 514 l 2,19,20
 352 469 352 469 362 416.5 c 128,-1,21
 372 364 372 364 381 312.5 c 128,-1,22
 390 261 390 261 397 215.5 c 128,-1,23
 404 170 404 170 408 141 c 1,24,-1
 414 141 l 1,25,26
 419 167 419 167 427.5 210.5 c 128,-1,27
 436 254 436 254 446.5 302.5 c 128,-1,28
 457 351 457 351 468 398.5 c 128,-1,29
 479 446 479 446 489 479 c 2,30,-1
 668 1098 l 1,31,-1
 864 1098 l 1,32,-1
 1036 479 l 2,33,34
 1045 445 1045 445 1056.5 399 c 128,-1,35
 1068 353 1068 353 1079 305.5 c 128,-1,36
 1090 258 1090 258 1099 214 c 128,-1,37
 1108 170 1108 170 1112 141 c 1,38,-1
 1118 141 l 1,39,40
 1121 167 1121 167 1127.5 210.5 c 128,-1,41
 1134 254 1134 254 1143 306 c 128,-1,42
 1152 358 1152 358 1162.5 412.5 c 128,-1,43
 1173 467 1173 467 1184 514 c 2,44,-1
 1321 1098 l 1,45,-1
 1507 1098 l 1,46,-1
 1223 0 l 1,47,-1
 1008 0 l 1,0,-1
EndSplineSet
EndChar

StartChar: x
Encoding: 120 120 91
Width: 1024
GlyphClass: 2
Flags: W
LayerCount: 2
Fore
SplineSet
408 563 m 1,0,-1
 55 1098 l 1,1,-1
 262 1098 l 1,2,-1
 512 688 l 1,3,-1
 762 1098 l 1,4,-1
 969 1098 l 1,5,-1
 614 563 l 1,6,-1
 987 0 l 1,7,-1
 780 0 l 1,8,-1
 512 436 l 1,9,-1
 242 0 l 1,10,-1
 35 0 l 1,11,-1
 408 563 l 1,0,-1
EndSplineSet
EndChar

StartChar: y
Encoding: 121 121 92
Width: 1001
GlyphClass: 2
Flags: W
LayerCount: 2
Fore
SplineSet
10 1098 m 1,0,-1
 199 1098 l 1,1,-1
 414 485 l 2,2,3
 428 445 428 445 442.5 401 c 128,-1,4
 457 357 457 357 469.5 313 c 128,-1,5
 482 269 482 269 491 228 c 128,-1,6
 500 187 500 187 504 152 c 1,7,-1
 510 152 l 1,8,9
 515 177 515 177 526 220 c 128,-1,10
 537 263 537 263 550.5 311.5 c 128,-1,11
 564 360 564 360 578.5 407 c 128,-1,12
 593 454 593 454 604 487 c 2,13,-1
 803 1098 l 1,14,-1
 991 1098 l 1,15,-1
 557 -143 l 2,16,17
 529 -224 529 -224 496.5 -288.5 c 128,-1,18
 464 -353 464 -353 421 -398 c 128,-1,19
 378 -443 378 -443 320 -467.5 c 128,-1,20
 262 -492 262 -492 182 -492 c 0,21,22
 130 -492 130 -492 92 -486.5 c 128,-1,23
 54 -481 54 -481 27 -475 c 1,24,-1
 27 -330 l 1,25,26
 48 -335 48 -335 80 -338.5 c 128,-1,27
 112 -342 112 -342 147 -342 c 0,28,29
 195 -342 195 -342 230 -330.5 c 128,-1,30
 265 -319 265 -319 291 -297 c 128,-1,31
 317 -275 317 -275 335.5 -243 c 128,-1,32
 354 -211 354 -211 369 -170 c 2,33,-1
 426 -10 l 1,34,-1
 10 1098 l 1,0,-1
EndSplineSet
EndChar

StartChar: z
Encoding: 122 122 93
Width: 903
GlyphClass: 2
Flags: W
LayerCount: 2
Fore
SplineSet
821 0 m 1,0,-1
 82 0 l 1,1,-1
 82 125 l 1,2,-1
 618 961 l 1,3,-1
 115 961 l 1,4,-1
 115 1098 l 1,5,-1
 803 1098 l 1,6,-1
 803 952 l 1,7,-1
 279 137 l 1,8,-1
 821 137 l 1,9,-1
 821 0 l 1,0,-1
EndSplineSet
EndChar

StartChar: braceleft
Encoding: 123 123 94
Width: 725
GlyphClass: 2
Flags: W
LayerCount: 2
Fore
SplineSet
500 -16 m 2,0,1
 500 -64 500 -64 512 -94.5 c 128,-1,2
 524 -125 524 -125 546.5 -142.5 c 128,-1,3
 569 -160 569 -160 601.5 -166.5 c 128,-1,4
 634 -173 634 -173 674 -174 c 1,5,-1
 674 -324 l 1,6,7
 597 -323 597 -323 531.5 -306.5 c 128,-1,8
 466 -290 466 -290 418.5 -254.5 c 128,-1,9
 371 -219 371 -219 344 -164 c 128,-1,10
 317 -109 317 -109 317 -31 c 2,11,-1
 317 303 l 2,12,13
 317 406 317 406 251.5 449 c 128,-1,14
 186 492 186 492 61 492 c 1,15,-1
 61 647 l 1,16,17
 186 647 186 647 251.5 690 c 128,-1,18
 317 733 317 733 317 836 c 2,19,-1
 317 1169 l 2,20,21
 317 1247 317 1247 344 1302 c 128,-1,22
 371 1357 371 1357 418.5 1392.5 c 128,-1,23
 466 1428 466 1428 531.5 1444.5 c 128,-1,24
 597 1461 597 1461 674 1462 c 1,25,-1
 674 1313 l 1,26,27
 634 1312 634 1312 601.5 1305.5 c 128,-1,28
 569 1299 569 1299 546.5 1281.5 c 128,-1,29
 524 1264 524 1264 512 1233.5 c 128,-1,30
 500 1203 500 1203 500 1155 c 2,31,-1
 500 823 l 2,32,33
 500 718 500 718 440.5 656.5 c 128,-1,34
 381 595 381 595 266 575 c 1,35,-1
 266 563 l 1,36,37
 381 543 381 543 440.5 482 c 128,-1,38
 500 421 500 421 500 315 c 2,39,-1
 500 -16 l 2,0,1
EndSplineSet
EndChar

StartChar: bar
Encoding: 124 124 95
Width: 1128
GlyphClass: 2
Flags: W
LayerCount: 2
Fore
SplineSet
489 1556 m 1,0,-1
 639 1556 l 1,1,-1
 639 -492 l 1,2,-1
 489 -492 l 1,3,-1
 489 1556 l 1,0,-1
EndSplineSet
EndChar

StartChar: braceright
Encoding: 125 125 96
Width: 725
GlyphClass: 2
Flags: W
LayerCount: 2
Fore
SplineSet
225 315 m 2,0,1
 225 421 225 421 284.5 482 c 128,-1,2
 344 543 344 543 459 563 c 1,3,-1
 459 575 l 1,4,5
 344 595 344 595 284.5 656.5 c 128,-1,6
 225 718 225 718 225 823 c 2,7,-1
 225 1155 l 2,8,9
 225 1203 225 1203 213 1233.5 c 128,-1,10
 201 1264 201 1264 178.5 1281.5 c 128,-1,11
 156 1299 156 1299 123.5 1305.5 c 128,-1,12
 91 1312 91 1312 51 1313 c 1,13,-1
 51 1462 l 1,14,15
 128 1461 128 1461 193.5 1444.5 c 128,-1,16
 259 1428 259 1428 306.5 1392.5 c 128,-1,17
 354 1357 354 1357 381 1302 c 128,-1,18
 408 1247 408 1247 408 1169 c 2,19,-1
 408 836 l 2,20,21
 408 784 408 784 424.5 748 c 128,-1,22
 441 712 441 712 473.5 689.5 c 128,-1,23
 506 667 506 667 554 657 c 128,-1,24
 602 647 602 647 664 647 c 1,25,-1
 664 492 l 1,26,27
 539 492 539 492 473.5 449 c 128,-1,28
 408 406 408 406 408 303 c 2,29,-1
 408 -31 l 2,30,31
 408 -109 408 -109 381 -164 c 128,-1,32
 354 -219 354 -219 306.5 -254.5 c 128,-1,33
 259 -290 259 -290 193.5 -306.5 c 128,-1,34
 128 -323 128 -323 51 -324 c 1,35,-1
 51 -174 l 1,36,37
 91 -173 91 -173 123.5 -166.5 c 128,-1,38
 156 -160 156 -160 178.5 -142.5 c 128,-1,39
 201 -125 201 -125 213 -94.5 c 128,-1,40
 225 -64 225 -64 225 -16 c 2,41,-1
 225 315 l 2,0,1
EndSplineSet
EndChar

StartChar: asciitilde
Encoding: 126 126 97
Width: 1128
GlyphClass: 2
Flags: W
LayerCount: 2
Fore
SplineSet
530 651 m 0,0,1
 493 667 493 667 465.5 678 c 128,-1,2
 438 689 438 689 415.5 695.5 c 128,-1,3
 393 702 393 702 372.5 704.5 c 128,-1,4
 352 707 352 707 330 707 c 0,5,6
 302 707 302 707 272 697.5 c 128,-1,7
 242 688 242 688 212.5 671.5 c 128,-1,8
 183 655 183 655 155 633 c 128,-1,9
 127 611 127 611 102 586 c 1,10,-1
 102 748 l 1,11,12
 202 856 202 856 350 856 c 0,13,14
 379 856 379 856 404 853.5 c 128,-1,15
 429 851 429 851 456.5 844.5 c 128,-1,16
 484 838 484 838 517.5 825.5 c 128,-1,17
 551 813 551 813 598 793 c 0,18,19
 635 777 635 777 662.5 766 c 128,-1,20
 690 755 690 755 713.5 748.5 c 128,-1,21
 737 742 737 742 757 739.5 c 128,-1,22
 777 737 777 737 799 737 c 0,23,24
 827 737 827 737 857 746.5 c 128,-1,25
 887 756 887 756 916.5 772.5 c 128,-1,26
 946 789 946 789 974 811 c 128,-1,27
 1002 833 1002 833 1026 858 c 1,28,-1
 1026 696 l 1,29,30
 927 588 927 588 778 588 c 0,31,32
 749 588 749 588 724 590.5 c 128,-1,33
 699 593 699 593 671.5 599.5 c 128,-1,34
 644 606 644 606 610.5 618.5 c 128,-1,35
 577 631 577 631 530 651 c 0,0,1
EndSplineSet
EndChar

StartChar: exclamdown
Encoding: 161 161 99
Width: 551
GlyphClass: 2
Flags: W
LayerCount: 2
Fore
SplineSet
213 676 m 1,0,-1
 334 676 l 1,1,-1
 385 -373 l 1,2,-1
 162 -373 l 1,3,-1
 213 676 l 1,0,-1
401 979 m 0,4,5
 401 941 401 941 391.5 914.5 c 128,-1,6
 382 888 382 888 364.5 871.5 c 128,-1,7
 347 855 347 855 324 847.5 c 128,-1,8
 301 840 301 840 274 840 c 0,9,10
 248 840 248 840 225 847.5 c 128,-1,11
 202 855 202 855 184.5 871.5 c 128,-1,12
 167 888 167 888 157 914.5 c 128,-1,13
 147 941 147 941 147 979 c 0,14,15
 147 1016 147 1016 157 1042 c 128,-1,16
 167 1068 167 1068 184.5 1085 c 128,-1,17
 202 1102 202 1102 225 1110 c 128,-1,18
 248 1118 248 1118 274 1118 c 0,19,20
 301 1118 301 1118 324 1110 c 128,-1,21
 347 1102 347 1102 364.5 1085 c 128,-1,22
 382 1068 382 1068 391.5 1042 c 128,-1,23
 401 1016 401 1016 401 979 c 0,4,5
EndSplineSet
EndChar

StartChar: cent
Encoding: 162 162 100
Width: 1128
GlyphClass: 2
Flags: W
LayerCount: 2
Fore
SplineSet
831 197 m 128,-1,1
 776 182 776 182 700 180 c 1,2,-1
 700 -20 l 1,3,-1
 563 -20 l 1,4,-1
 563 186 l 1,5,6
 476 199 476 199 407 236.5 c 128,-1,7
 338 274 338 274 289 340.5 c 128,-1,8
 240 407 240 407 214 506.5 c 128,-1,9
 188 606 188 606 188 743 c 0,10,11
 188 884 188 884 214.5 985.5 c 128,-1,12
 241 1087 241 1087 289.5 1155 c 128,-1,13
 338 1223 338 1223 407.5 1260.5 c 128,-1,14
 477 1298 477 1298 563 1311 c 1,15,-1
 563 1483 l 1,16,-1
 700 1483 l 1,17,-1
 700 1319 l 1,18,19
 772 1316 772 1316 840 1299.5 c 128,-1,20
 908 1283 908 1283 954 1260 c 1,21,-1
 901 1106 l 1,22,23
 878 1116 878 1116 850 1125.5 c 128,-1,24
 822 1135 822 1135 792 1142.5 c 128,-1,25
 762 1150 762 1150 732.5 1154.5 c 128,-1,26
 703 1159 703 1159 678 1159 c 0,27,28
 521 1159 521 1159 449 1058 c 128,-1,29
 377 957 377 957 377 745 c 0,30,31
 377 535 377 535 449.5 437.5 c 128,-1,32
 522 340 522 340 670 340 c 0,33,34
 751 340 751 340 816.5 358.5 c 128,-1,35
 882 377 882 377 936 401 c 1,36,-1
 936 240 l 1,37,0
 886 212 886 212 831 197 c 128,-1,1
EndSplineSet
EndChar

StartChar: sterling
Encoding: 163 163 101
Width: 1128
GlyphClass: 2
Flags: W
LayerCount: 2
Fore
SplineSet
666 1481 m 0,0,1
 772 1481 772 1481 859 1458.5 c 128,-1,2
 946 1436 946 1436 1012 1401 c 1,3,-1
 946 1257 l 1,4,5
 890 1286 890 1286 819.5 1307.5 c 128,-1,6
 749 1329 749 1329 674 1329 c 0,7,8
 626 1329 626 1329 585 1315.5 c 128,-1,9
 544 1302 544 1302 514 1272.5 c 128,-1,10
 484 1243 484 1243 467.5 1196 c 128,-1,11
 451 1149 451 1149 451 1083 c 2,12,-1
 451 788 l 1,13,-1
 827 788 l 1,14,-1
 827 651 l 1,15,-1
 451 651 l 1,16,-1
 451 440 l 2,17,18
 451 378 451 378 439.5 333.5 c 128,-1,19
 428 289 428 289 408.5 257 c 128,-1,20
 389 225 389 225 363.5 203.5 c 128,-1,21
 338 182 338 182 311 166 c 1,22,-1
 1059 166 l 1,23,-1
 1059 0 l 1,24,-1
 68 0 l 1,25,-1
 68 154 l 1,26,27
 112 165 112 165 148.5 185.5 c 128,-1,28
 185 206 185 206 211.5 240 c 128,-1,29
 238 274 238 274 253 322.5 c 128,-1,30
 268 371 268 371 268 438 c 2,31,-1
 268 651 l 1,32,-1
 70 651 l 1,33,-1
 70 788 l 1,34,-1
 268 788 l 1,35,-1
 268 1112 l 2,36,37
 268 1199 268 1199 297.5 1267.5 c 128,-1,38
 327 1336 327 1336 379.5 1383.5 c 128,-1,39
 432 1431 432 1431 505 1456 c 128,-1,40
 578 1481 578 1481 666 1481 c 0,0,1
EndSplineSet
EndChar

StartChar: currency
Encoding: 164 164 102
Width: 1128
GlyphClass: 2
Flags: W
LayerCount: 2
Fore
SplineSet
186 723 m 0,0,1
 186 782 186 782 203.5 835.5 c 128,-1,2
 221 889 221 889 252 936 c 1,3,-1
 123 1065 l 1,4,-1
 221 1163 l 1,5,-1
 348 1034 l 1,6,7
 395 1066 395 1066 449 1084 c 128,-1,8
 503 1102 503 1102 563 1102 c 256,9,10
 623 1102 623 1102 676.5 1084 c 128,-1,11
 730 1066 730 1066 776 1034 c 1,12,-1
 905 1163 l 1,13,-1
 1004 1067 l 1,14,-1
 874 938 l 1,15,16
 905 892 905 892 923.5 837.5 c 128,-1,17
 942 783 942 783 942 723 c 256,18,19
 942 663 942 663 924.5 608 c 128,-1,20
 907 553 907 553 874 508 c 1,21,-1
 1001 381 l 1,22,-1
 905 285 l 1,23,-1
 776 412 l 1,24,25
 730 381 730 381 676.5 363.5 c 128,-1,26
 623 346 623 346 563 346 c 256,27,28
 503 346 503 346 448 364 c 128,-1,29
 393 382 393 382 348 414 c 1,30,-1
 221 287 l 1,31,-1
 125 383 l 1,32,-1
 252 510 l 1,33,34
 221 555 221 555 203.5 609 c 128,-1,35
 186 663 186 663 186 723 c 0,0,1
324 723 m 0,36,37
 324 673 324 673 342.5 629.5 c 128,-1,38
 361 586 361 586 393.5 553.5 c 128,-1,39
 426 521 426 521 469.5 502 c 128,-1,40
 513 483 513 483 563 483 c 0,41,42
 614 483 614 483 658.5 502 c 128,-1,43
 703 521 703 521 736 553.5 c 128,-1,44
 769 586 769 586 788 629.5 c 128,-1,45
 807 673 807 673 807 723 c 0,46,47
 807 774 807 774 788 818.5 c 128,-1,48
 769 863 769 863 736 896 c 128,-1,49
 703 929 703 929 658.5 948 c 128,-1,50
 614 967 614 967 563 967 c 0,51,52
 513 967 513 967 469.5 948 c 128,-1,53
 426 929 426 929 393.5 896 c 128,-1,54
 361 863 361 863 342.5 818.5 c 128,-1,55
 324 774 324 774 324 723 c 0,36,37
EndSplineSet
EndChar

StartChar: yen
Encoding: 165 165 103
Width: 1128
GlyphClass: 2
Flags: W
LayerCount: 2
Fore
SplineSet
563 723 m 1,0,-1
 909 1462 l 1,1,-1
 1100 1462 l 1,2,-1
 715 694 l 1,3,-1
 954 694 l 1,4,-1
 954 557 l 1,5,-1
 653 557 l 1,6,-1
 653 399 l 1,7,-1
 954 399 l 1,8,-1
 954 262 l 1,9,-1
 653 262 l 1,10,-1
 653 0 l 1,11,-1
 475 0 l 1,12,-1
 475 262 l 1,13,-1
 174 262 l 1,14,-1
 174 399 l 1,15,-1
 475 399 l 1,16,-1
 475 557 l 1,17,-1
 174 557 l 1,18,-1
 174 694 l 1,19,-1
 408 694 l 1,20,-1
 29 1462 l 1,21,-1
 221 1462 l 1,22,-1
 563 723 l 1,0,-1
EndSplineSet
EndChar

StartChar: brokenbar
Encoding: 166 166 104
Width: 1128
GlyphClass: 2
Flags: W
LayerCount: 2
Fore
SplineSet
489 1556 m 1,0,-1
 639 1556 l 1,1,-1
 639 776 l 1,2,-1
 489 776 l 1,3,-1
 489 1556 l 1,0,-1
489 289 m 1,4,-1
 639 289 l 1,5,-1
 639 -492 l 1,6,-1
 489 -492 l 1,7,-1
 489 289 l 1,4,-1
EndSplineSet
EndChar

StartChar: section
Encoding: 167 167 105
Width: 995
GlyphClass: 2
Flags: W
LayerCount: 2
Fore
SplineSet
137 809 m 0,0,1
 137 860 137 860 150 901.5 c 128,-1,2
 163 943 163 943 185.5 975 c 128,-1,3
 208 1007 208 1007 237 1029.5 c 128,-1,4
 266 1052 266 1052 297 1067 c 1,5,6
 222 1105 222 1105 179.5 1162 c 128,-1,7
 137 1219 137 1219 137 1303 c 0,8,9
 137 1364 137 1364 164.5 1413 c 128,-1,10
 192 1462 192 1462 242 1496 c 128,-1,11
 292 1530 292 1530 362 1548.5 c 128,-1,12
 432 1567 432 1567 518 1567 c 0,13,14
 615 1567 615 1567 693.5 1547 c 128,-1,15
 772 1527 772 1527 844 1495 c 1,16,-1
 788 1356 l 1,17,18
 723 1384 723 1384 653 1403.5 c 128,-1,19
 583 1423 583 1423 512 1423 c 0,20,21
 413 1423 413 1423 362 1393.5 c 128,-1,22
 311 1364 311 1364 311 1307 c 0,23,24
 311 1280 311 1280 323 1257 c 128,-1,25
 335 1234 335 1234 363.5 1212 c 128,-1,26
 392 1190 392 1190 439.5 1166.5 c 128,-1,27
 487 1143 487 1143 557 1114 c 1,28,29
 629 1086 629 1086 685.5 1053.5 c 128,-1,30
 742 1021 742 1021 781 982 c 128,-1,31
 820 943 820 943 841 894.5 c 128,-1,32
 862 846 862 846 862 784 c 0,33,34
 862 732 862 732 850 689.5 c 128,-1,35
 838 647 838 647 817.5 613 c 128,-1,36
 797 579 797 579 771 554.5 c 128,-1,37
 745 530 745 530 717 514 c 1,38,39
 786 476 786 476 824 421.5 c 128,-1,40
 862 367 862 367 862 289 c 0,41,42
 862 218 862 218 832.5 162.5 c 128,-1,43
 803 107 803 107 749 68.5 c 128,-1,44
 695 30 695 30 617.5 10 c 128,-1,45
 540 -10 540 -10 444 -10 c 0,46,47
 336 -10 336 -10 258 6.5 c 128,-1,48
 180 23 180 23 121 55 c 1,49,-1
 121 213 l 1,50,51
 152 198 152 198 190 183 c 128,-1,52
 228 168 228 168 270 156.5 c 128,-1,53
 312 145 312 145 356.5 138 c 128,-1,54
 401 131 401 131 444 131 c 0,55,56
 513 131 513 131 559.5 143 c 128,-1,57
 606 155 606 155 633.5 174.5 c 128,-1,58
 661 194 661 194 672.5 219.5 c 128,-1,59
 684 245 684 245 684 272 c 0,60,61
 684 301 684 301 675.5 323.5 c 128,-1,62
 667 346 667 346 641.5 368.5 c 128,-1,63
 616 391 616 391 569 415.5 c 128,-1,64
 522 440 522 440 446 471 c 1,65,66
 373 502 373 502 315.5 533 c 128,-1,67
 258 564 258 564 218 603 c 128,-1,68
 178 642 178 642 157.5 692 c 128,-1,69
 137 742 137 742 137 809 c 0,0,1
291 831 m 0,70,71
 291 794 291 794 305 762.5 c 128,-1,72
 319 731 319 731 350.5 702 c 128,-1,73
 382 673 382 673 432.5 645.5 c 128,-1,74
 483 618 483 618 555 588 c 2,75,-1
 590 573 l 1,76,77
 610 586 610 586 630.5 604 c 128,-1,78
 651 622 651 622 667.5 645 c 128,-1,79
 684 668 684 668 694.5 696 c 128,-1,80
 705 724 705 724 705 758 c 0,81,82
 705 796 705 796 692 828 c 128,-1,83
 679 860 679 860 646.5 889.5 c 128,-1,84
 614 919 614 919 560 947.5 c 128,-1,85
 506 976 506 976 424 1006 c 1,86,87
 399 998 399 998 375.5 982.5 c 128,-1,88
 352 967 352 967 333 944.5 c 128,-1,89
 314 922 314 922 302.5 893 c 128,-1,90
 291 864 291 864 291 831 c 0,70,71
EndSplineSet
EndChar

StartChar: dieresis
Encoding: 168 168 106
Width: 1182
GlyphClass: 2
Flags: W
LayerCount: 2
Fore
SplineSet
307 1395 m 0,0,1
 307 1449 307 1449 335 1473 c 128,-1,2
 363 1497 363 1497 403 1497 c 0,3,4
 442 1497 442 1497 471 1472.5 c 128,-1,5
 500 1448 500 1448 500 1395 c 256,6,7
 500 1342 500 1342 471 1317 c 128,-1,8
 442 1292 442 1292 403 1292 c 0,9,10
 363 1292 363 1292 335 1317 c 128,-1,11
 307 1342 307 1342 307 1395 c 0,0,1
682 1395 m 0,12,13
 682 1449 682 1449 710 1473 c 128,-1,14
 738 1497 738 1497 778 1497 c 0,15,16
 797 1497 797 1497 814.5 1491 c 128,-1,17
 832 1485 832 1485 845 1472.5 c 128,-1,18
 858 1460 858 1460 866 1441 c 128,-1,19
 874 1422 874 1422 874 1395 c 0,20,21
 874 1342 874 1342 845 1317 c 128,-1,22
 816 1292 816 1292 778 1292 c 0,23,24
 738 1292 738 1292 710 1317 c 128,-1,25
 682 1342 682 1342 682 1395 c 0,12,13
EndSplineSet
EndChar

StartChar: copyright
Encoding: 169 169 107
Width: 1704
GlyphClass: 2
Flags: W
LayerCount: 2
Fore
SplineSet
891 1053 m 0,0,1
 830 1053 830 1053 783 1031 c 128,-1,2
 736 1009 736 1009 704 967.5 c 128,-1,3
 672 926 672 926 655.5 866 c 128,-1,4
 639 806 639 806 639 731 c 0,5,6
 639 653 639 653 653.5 593 c 128,-1,7
 668 533 668 533 698.5 492 c 128,-1,8
 729 451 729 451 776.5 429.5 c 128,-1,9
 824 408 824 408 891 408 c 0,10,11
 914 408 914 408 941 411.5 c 128,-1,12
 968 415 968 415 996.5 421 c 128,-1,13
 1025 427 1025 427 1053 435.5 c 128,-1,14
 1081 444 1081 444 1106 453 c 1,15,-1
 1106 322 l 1,16,17
 1082 311 1082 311 1057.5 302 c 128,-1,18
 1033 293 1033 293 1006.5 286 c 128,-1,19
 980 279 980 279 950 275.5 c 128,-1,20
 920 272 920 272 885 272 c 0,21,22
 783 272 783 272 707 305 c 128,-1,23
 631 338 631 338 580.5 399 c 128,-1,24
 530 460 530 460 504.5 545 c 128,-1,25
 479 630 479 630 479 733 c 0,26,27
 479 834 479 834 506 917.5 c 128,-1,28
 533 1001 533 1001 585.5 1061 c 128,-1,29
 638 1121 638 1121 714.5 1154.5 c 128,-1,30
 791 1188 791 1188 891 1188 c 0,31,32
 954 1188 954 1188 1020 1171.5 c 128,-1,33
 1086 1155 1086 1155 1145 1126 c 1,34,-1
 1083 999 l 1,35,36
 1031 1025 1031 1025 982.5 1039 c 128,-1,37
 934 1053 934 1053 891 1053 c 0,0,1
100 731 m 256,38,39
 100 835 100 835 127 931 c 128,-1,40
 154 1027 154 1027 202.5 1110.5 c 128,-1,41
 251 1194 251 1194 320 1263 c 128,-1,42
 389 1332 389 1332 472.5 1380.5 c 128,-1,43
 556 1429 556 1429 652 1456 c 128,-1,44
 748 1483 748 1483 852 1483 c 256,45,46
 956 1483 956 1483 1052 1456 c 128,-1,47
 1148 1429 1148 1429 1231.5 1380.5 c 128,-1,48
 1315 1332 1315 1332 1384 1263 c 128,-1,49
 1453 1194 1453 1194 1501.5 1110.5 c 128,-1,50
 1550 1027 1550 1027 1577 931 c 128,-1,51
 1604 835 1604 835 1604 731 c 256,52,53
 1604 627 1604 627 1577 531 c 128,-1,54
 1550 435 1550 435 1501.5 351.5 c 128,-1,55
 1453 268 1453 268 1384 199.5 c 128,-1,56
 1315 131 1315 131 1231.5 82 c 128,-1,57
 1148 33 1148 33 1052 6.5 c 128,-1,58
 956 -20 956 -20 852 -20 c 256,59,60
 748 -20 748 -20 652 6.5 c 128,-1,61
 556 33 556 33 472.5 82 c 128,-1,62
 389 131 389 131 320 199.5 c 128,-1,63
 251 268 251 268 202.5 351.5 c 128,-1,64
 154 435 154 435 127 531 c 128,-1,65
 100 627 100 627 100 731 c 256,38,39
209 731 m 256,66,67
 209 598 209 598 259.5 481 c 128,-1,68
 310 364 310 364 397.5 276.5 c 128,-1,69
 485 189 485 189 602 138.5 c 128,-1,70
 719 88 719 88 852 88 c 256,71,72
 985 88 985 88 1102 138.5 c 128,-1,73
 1219 189 1219 189 1306.5 276.5 c 128,-1,74
 1394 364 1394 364 1444.5 481 c 128,-1,75
 1495 598 1495 598 1495 731 c 256,76,77
 1495 864 1495 864 1444.5 981 c 128,-1,78
 1394 1098 1394 1098 1306.5 1185.5 c 128,-1,79
 1219 1273 1219 1273 1102 1323.5 c 128,-1,80
 985 1374 985 1374 852 1374 c 256,81,82
 719 1374 719 1374 602 1323.5 c 128,-1,83
 485 1273 485 1273 397.5 1185.5 c 128,-1,84
 310 1098 310 1098 259.5 981 c 128,-1,85
 209 864 209 864 209 731 c 256,66,67
EndSplineSet
EndChar

StartChar: ordfeminine
Encoding: 170 170 108
Width: 678
GlyphClass: 2
Flags: W
LayerCount: 2
Fore
SplineSet
487 797 m 1,0,-1
 459 879 l 1,1,2
 441 857 441 857 421.5 839.5 c 128,-1,3
 402 822 402 822 378.5 809.5 c 128,-1,4
 355 797 355 797 327 790.5 c 128,-1,5
 299 784 299 784 264 784 c 0,6,7
 221 784 221 784 185 797 c 128,-1,8
 149 810 149 810 123 835.5 c 128,-1,9
 97 861 97 861 82.5 899.5 c 128,-1,10
 68 938 68 938 68 989 c 0,11,12
 68 1091 68 1091 138.5 1145 c 128,-1,13
 209 1199 209 1199 352 1204 c 2,14,-1
 451 1208 l 1,15,-1
 451 1239 l 2,16,17
 451 1311 451 1311 420.5 1339.5 c 128,-1,18
 390 1368 390 1368 334 1368 c 0,19,20
 286 1368 286 1368 241 1353.5 c 128,-1,21
 196 1339 196 1339 154 1317 c 1,22,-1
 106 1417 l 1,23,24
 157 1443 157 1443 215.5 1461 c 128,-1,25
 274 1479 274 1479 334 1479 c 0,26,27
 459 1479 459 1479 518.5 1426 c 128,-1,28
 578 1373 578 1373 578 1251 c 2,29,-1
 578 797 l 1,30,-1
 487 797 l 1,0,-1
377 1110 m 2,31,32
 326 1107 326 1107 292 1098 c 128,-1,33
 258 1089 258 1089 237.5 1074 c 128,-1,34
 217 1059 217 1059 208 1037.5 c 128,-1,35
 199 1016 199 1016 199 987 c 0,36,37
 199 936 199 936 224 913.5 c 128,-1,38
 249 891 249 891 291 891 c 0,39,40
 325 891 325 891 354 901.5 c 128,-1,41
 383 912 383 912 404.5 934 c 128,-1,42
 426 956 426 956 438.5 988.5 c 128,-1,43
 451 1021 451 1021 451 1065 c 2,44,-1
 451 1114 l 1,45,-1
 377 1110 l 2,31,32
EndSplineSet
EndChar

StartChar: guillemotleft
Encoding: 171 171 109
Width: 997
GlyphClass: 2
Flags: W
LayerCount: 2
Fore
SplineSet
82 553 m 1,0,-1
 391 967 l 1,1,-1
 508 889 l 1,2,-1
 270 541 l 1,3,-1
 508 193 l 1,4,-1
 391 115 l 1,5,-1
 82 526 l 1,6,-1
 82 553 l 1,0,-1
489 553 m 1,7,-1
 799 967 l 1,8,-1
 915 889 l 1,9,-1
 678 541 l 1,10,-1
 915 193 l 1,11,-1
 799 115 l 1,12,-1
 489 526 l 1,13,-1
 489 553 l 1,7,-1
EndSplineSet
EndChar

StartChar: logicalnot
Encoding: 172 172 110
Width: 1128
GlyphClass: 2
Flags: W
LayerCount: 2
Fore
SplineSet
1026 797 m 1,0,-1
 1026 262 l 1,1,-1
 877 262 l 1,2,-1
 877 647 l 1,3,-1
 102 647 l 1,4,-1
 102 797 l 1,5,-1
 1026 797 l 1,0,-1
EndSplineSet
EndChar

StartChar: registered
Encoding: 174 174 112
Width: 1704
GlyphClass: 2
Flags: W
LayerCount: 2
Fore
SplineSet
743 768 m 1,0,-1
 815 768 l 2,1,2
 906 768 906 768 945.5 804 c 128,-1,3
 985 840 985 840 985 909 c 0,4,5
 985 983 985 983 943.5 1012.5 c 128,-1,6
 902 1042 902 1042 813 1042 c 2,7,-1
 743 1042 l 1,8,-1
 743 768 l 1,0,-1
1145 913 m 0,9,10
 1145 865 1145 865 1131.5 827.5 c 128,-1,11
 1118 790 1118 790 1095.5 761.5 c 128,-1,12
 1073 733 1073 733 1044.5 713 c 128,-1,13
 1016 693 1016 693 985 680 c 1,14,15
 1052 570 1052 570 1105 483 c 0,16,17
 1128 446 1128 446 1149 410.5 c 128,-1,18
 1170 375 1170 375 1186.5 347 c 128,-1,19
 1203 319 1203 319 1213 302 c 2,20,-1
 1223 285 l 1,21,-1
 1044 285 l 1,22,-1
 838 637 l 1,23,-1
 743 637 l 1,24,-1
 743 285 l 1,25,-1
 586 285 l 1,26,-1
 586 1178 l 1,27,-1
 819 1178 l 2,28,29
 987 1178 987 1178 1066 1113 c 128,-1,30
 1145 1048 1145 1048 1145 913 c 0,9,10
100 731 m 256,31,32
 100 835 100 835 127 931 c 128,-1,33
 154 1027 154 1027 202.5 1110.5 c 128,-1,34
 251 1194 251 1194 320 1263 c 128,-1,35
 389 1332 389 1332 472.5 1380.5 c 128,-1,36
 556 1429 556 1429 652 1456 c 128,-1,37
 748 1483 748 1483 852 1483 c 256,38,39
 956 1483 956 1483 1052 1456 c 128,-1,40
 1148 1429 1148 1429 1231.5 1380.5 c 128,-1,41
 1315 1332 1315 1332 1384 1263 c 128,-1,42
 1453 1194 1453 1194 1501.5 1110.5 c 128,-1,43
 1550 1027 1550 1027 1577 931 c 128,-1,44
 1604 835 1604 835 1604 731 c 256,45,46
 1604 627 1604 627 1577 531 c 128,-1,47
 1550 435 1550 435 1501.5 351.5 c 128,-1,48
 1453 268 1453 268 1384 199.5 c 128,-1,49
 1315 131 1315 131 1231.5 82 c 128,-1,50
 1148 33 1148 33 1052 6.5 c 128,-1,51
 956 -20 956 -20 852 -20 c 256,52,53
 748 -20 748 -20 652 6.5 c 128,-1,54
 556 33 556 33 472.5 82 c 128,-1,55
 389 131 389 131 320 199.5 c 128,-1,56
 251 268 251 268 202.5 351.5 c 128,-1,57
 154 435 154 435 127 531 c 128,-1,58
 100 627 100 627 100 731 c 256,31,32
209 731 m 256,59,60
 209 598 209 598 259.5 481 c 128,-1,61
 310 364 310 364 397.5 276.5 c 128,-1,62
 485 189 485 189 602 138.5 c 128,-1,63
 719 88 719 88 852 88 c 256,64,65
 985 88 985 88 1102 138.5 c 128,-1,66
 1219 189 1219 189 1306.5 276.5 c 128,-1,67
 1394 364 1394 364 1444.5 481 c 128,-1,68
 1495 598 1495 598 1495 731 c 256,69,70
 1495 864 1495 864 1444.5 981 c 128,-1,71
 1394 1098 1394 1098 1306.5 1185.5 c 128,-1,72
 1219 1273 1219 1273 1102 1323.5 c 128,-1,73
 985 1374 985 1374 852 1374 c 256,74,75
 719 1374 719 1374 602 1323.5 c 128,-1,76
 485 1273 485 1273 397.5 1185.5 c 128,-1,77
 310 1098 310 1098 259.5 981 c 128,-1,78
 209 864 209 864 209 731 c 256,59,60
EndSplineSet
EndChar

StartChar: overscore
Encoding: 175 175 113
Width: 1024
GlyphClass: 2
Flags: W
LayerCount: 2
Fore
SplineSet
1030 1556 m 1,0,-1
 -6 1556 l 1,1,-1
 -6 1696 l 1,2,-1
 1030 1696 l 1,3,-1
 1030 1556 l 1,0,-1
EndSplineSet
EndChar

StartChar: degree
Encoding: 176 176 114
Width: 877
GlyphClass: 2
Flags: W
LayerCount: 2
Fore
SplineSet
123 1167 m 256,0,1
 123 1232 123 1232 148 1289.5 c 128,-1,2
 173 1347 173 1347 215.5 1390 c 128,-1,3
 258 1433 258 1433 315.5 1458 c 128,-1,4
 373 1483 373 1483 438 1483 c 256,5,6
 503 1483 503 1483 560.5 1458 c 128,-1,7
 618 1433 618 1433 661 1390 c 128,-1,8
 704 1347 704 1347 729 1289.5 c 128,-1,9
 754 1232 754 1232 754 1167 c 256,10,11
 754 1102 754 1102 729 1045 c 128,-1,12
 704 988 704 988 661 945.5 c 128,-1,13
 618 903 618 903 560.5 878.5 c 128,-1,14
 503 854 503 854 438 854 c 256,15,16
 373 854 373 854 315.5 878.5 c 128,-1,17
 258 903 258 903 215.5 945.5 c 128,-1,18
 173 988 173 988 148 1045 c 128,-1,19
 123 1102 123 1102 123 1167 c 256,0,1
246 1167 m 0,20,21
 246 1128 246 1128 261 1093.5 c 128,-1,22
 276 1059 276 1059 302 1033 c 128,-1,23
 328 1007 328 1007 363 992 c 128,-1,24
 398 977 398 977 438 977 c 256,25,26
 478 977 478 977 513 992 c 128,-1,27
 548 1007 548 1007 574.5 1033 c 128,-1,28
 601 1059 601 1059 616 1093.5 c 128,-1,29
 631 1128 631 1128 631 1167 c 0,30,31
 631 1207 631 1207 616 1242.5 c 128,-1,32
 601 1278 601 1278 574.5 1304.5 c 128,-1,33
 548 1331 548 1331 513 1346.5 c 128,-1,34
 478 1362 478 1362 438 1362 c 256,35,36
 398 1362 398 1362 363 1346.5 c 128,-1,37
 328 1331 328 1331 302 1304.5 c 128,-1,38
 276 1278 276 1278 261 1242.5 c 128,-1,39
 246 1207 246 1207 246 1167 c 0,20,21
EndSplineSet
EndChar

StartChar: plusminus
Encoding: 177 177 115
Width: 1128
GlyphClass: 2
Flags: W
LayerCount: 2
Fore
SplineSet
489 647 m 1,0,-1
 102 647 l 1,1,-1
 102 797 l 1,2,-1
 489 797 l 1,3,-1
 489 1186 l 1,4,-1
 639 1186 l 1,5,-1
 639 797 l 1,6,-1
 1026 797 l 1,7,-1
 1026 647 l 1,8,-1
 639 647 l 1,9,-1
 639 262 l 1,10,-1
 489 262 l 1,11,-1
 489 647 l 1,0,-1
102 0 m 1,12,-1
 102 150 l 1,13,-1
 1026 150 l 1,14,-1
 1026 0 l 1,15,-1
 102 0 l 1,12,-1
EndSplineSet
EndChar

StartChar: twosuperior
Encoding: 178 178 116
Width: 678
GlyphClass: 2
Flags: W
LayerCount: 2
Fore
SplineSet
621 586 m 1,0,-1
 49 586 l 1,1,-1
 49 698 l 1,2,-1
 258 926 l 2,3,4
 315 988 315 988 351 1030.5 c 128,-1,5
 387 1073 387 1073 407 1106.5 c 128,-1,6
 427 1140 427 1140 434.5 1169.5 c 128,-1,7
 442 1199 442 1199 442 1233 c 0,8,9
 442 1298 442 1298 409 1330 c 128,-1,10
 376 1362 376 1362 322 1362 c 0,11,12
 271 1362 271 1362 224.5 1337 c 128,-1,13
 178 1312 178 1312 133 1274 c 1,14,-1
 55 1368 l 1,15,16
 109 1416 109 1416 175.5 1448.5 c 128,-1,17
 242 1481 242 1481 324 1481 c 0,18,19
 384 1481 384 1481 432.5 1464.5 c 128,-1,20
 481 1448 481 1448 515 1416.5 c 128,-1,21
 549 1385 549 1385 567.5 1339.5 c 128,-1,22
 586 1294 586 1294 586 1237 c 0,23,24
 586 1187 586 1187 571.5 1144 c 128,-1,25
 557 1101 557 1101 530 1058.5 c 128,-1,26
 503 1016 503 1016 463.5 970.5 c 128,-1,27
 424 925 424 925 373 870 c 2,28,-1
 225 713 l 1,29,-1
 621 713 l 1,30,-1
 621 586 l 1,0,-1
EndSplineSet
EndChar

StartChar: threesuperior
Encoding: 179 179 117
Width: 678
GlyphClass: 2
Flags: W
LayerCount: 2
Fore
SplineSet
590 1255 m 0,0,1
 590 1177 590 1177 549.5 1124 c 128,-1,2
 509 1071 509 1071 440 1047 c 1,3,4
 528 1024 528 1024 572 971 c 128,-1,5
 616 918 616 918 616 840 c 0,6,7
 616 780 616 780 596 730 c 128,-1,8
 576 680 576 680 534.5 644.5 c 128,-1,9
 493 609 493 609 430 589 c 128,-1,10
 367 569 367 569 281 569 c 0,11,12
 211 569 211 569 149.5 581.5 c 128,-1,13
 88 594 88 594 31 625 c 1,14,-1
 31 758 l 1,15,16
 94 724 94 724 160 705 c 128,-1,17
 226 686 226 686 279 686 c 0,18,19
 377 686 377 686 421 727.5 c 128,-1,20
 465 769 465 769 465 842 c 0,21,22
 465 916 465 916 411.5 949.5 c 128,-1,23
 358 983 358 983 262 983 c 2,24,-1
 164 983 l 1,25,-1
 164 1096 l 1,26,-1
 262 1096 l 2,27,28
 354 1096 354 1096 396 1135.5 c 128,-1,29
 438 1175 438 1175 438 1239 c 0,30,31
 438 1271 438 1271 428 1294.5 c 128,-1,32
 418 1318 418 1318 400.5 1333 c 128,-1,33
 383 1348 383 1348 359.5 1355 c 128,-1,34
 336 1362 336 1362 309 1362 c 0,35,36
 250 1362 250 1362 201.5 1341.5 c 128,-1,37
 153 1321 153 1321 102 1284 c 1,38,-1
 33 1380 l 1,39,40
 62 1403 62 1403 92.5 1421.5 c 128,-1,41
 123 1440 123 1440 157 1453 c 128,-1,42
 191 1466 191 1466 229 1473.5 c 128,-1,43
 267 1481 267 1481 311 1481 c 0,44,45
 380 1481 380 1481 432.5 1464 c 128,-1,46
 485 1447 485 1447 520 1417 c 128,-1,47
 555 1387 555 1387 572.5 1345.5 c 128,-1,48
 590 1304 590 1304 590 1255 c 0,0,1
EndSplineSet
EndChar

StartChar: acute
Encoding: 180 180 118
Width: 1182
GlyphClass: 2
Flags: W
LayerCount: 2
Fore
SplineSet
393 1268 m 1,0,1
 415 1297 415 1297 438.5 1335 c 128,-1,2
 462 1373 462 1373 485.5 1413.5 c 128,-1,3
 509 1454 509 1454 530 1494.5 c 128,-1,4
 551 1535 551 1535 567 1569 c 1,5,-1
 786 1569 l 1,6,-1
 786 1548 l 1,7,8
 770 1521 770 1521 738.5 1480.5 c 128,-1,9
 707 1440 707 1440 668.5 1396 c 128,-1,10
 630 1352 630 1352 589.5 1310.5 c 128,-1,11
 549 1269 549 1269 514 1241 c 1,12,-1
 393 1241 l 1,13,-1
 393 1268 l 1,0,1
EndSplineSet
EndChar

StartChar: mu
Encoding: 181 181 119
Width: 1217
GlyphClass: 2
Flags: W
LayerCount: 2
Fore
SplineSet
356 391 m 2,0,1
 356 261 356 261 409 196 c 128,-1,2
 462 131 462 131 573 131 c 0,3,4
 655 131 655 131 710 157 c 128,-1,5
 765 183 765 183 798.5 233.5 c 128,-1,6
 832 284 832 284 846 358 c 128,-1,7
 860 432 860 432 860 528 c 2,8,-1
 860 1098 l 1,9,-1
 1042 1098 l 1,10,-1
 1042 0 l 1,11,-1
 895 0 l 1,12,-1
 868 147 l 1,13,-1
 858 147 l 1,14,15
 810 64 810 64 738 22 c 128,-1,16
 666 -20 666 -20 563 -20 c 0,17,18
 491 -20 491 -20 438 3 c 128,-1,19
 385 26 385 26 350 68 c 1,20,21
 351 30 351 30 353 -10 c 0,22,23
 355 -45 355 -45 355.5 -87.5 c 128,-1,24
 356 -130 356 -130 356 -172 c 2,25,-1
 356 -492 l 1,26,-1
 174 -492 l 1,27,-1
 174 1098 l 1,28,-1
 356 1098 l 1,29,-1
 356 391 l 2,0,1
EndSplineSet
EndChar

StartChar: paragraph
Encoding: 182 182 120
Width: 1341
GlyphClass: 2
Flags: W
LayerCount: 2
Fore
SplineSet
1126 -260 m 1,0,-1
 1006 -260 l 1,1,-1
 1006 1397 l 1,2,-1
 799 1397 l 1,3,-1
 799 -260 l 1,4,-1
 678 -260 l 1,5,-1
 678 559 l 1,6,7
 617 541 617 541 532 541 c 0,8,9
 437 541 437 541 359.5 566.5 c 128,-1,10
 282 592 282 592 227.5 651 c 128,-1,11
 173 710 173 710 143 806 c 128,-1,12
 113 902 113 902 113 1042 c 0,13,14
 113 1189 113 1189 145.5 1287.5 c 128,-1,15
 178 1386 178 1386 237.5 1446 c 128,-1,16
 297 1506 297 1506 380 1531 c 128,-1,17
 463 1556 463 1556 563 1556 c 2,18,-1
 1126 1556 l 1,19,-1
 1126 -260 l 1,0,-1
EndSplineSet
EndChar

StartChar: periodcentered
Encoding: 183 183 121
Width: 549
GlyphClass: 2
Flags: W
LayerCount: 2
Fore
SplineSet
147 723 m 0,0,1
 147 761 147 761 157 787.5 c 128,-1,2
 167 814 167 814 184 830.5 c 128,-1,3
 201 847 201 847 224 854.5 c 128,-1,4
 247 862 247 862 274 862 c 0,5,6
 300 862 300 862 323.5 854.5 c 128,-1,7
 347 847 347 847 364 830.5 c 128,-1,8
 381 814 381 814 391 787.5 c 128,-1,9
 401 761 401 761 401 723 c 0,10,11
 401 686 401 686 391 660 c 128,-1,12
 381 634 381 634 364 617 c 128,-1,13
 347 600 347 600 323.5 592 c 128,-1,14
 300 584 300 584 274 584 c 0,15,16
 247 584 247 584 224 592 c 128,-1,17
 201 600 201 600 184 617 c 128,-1,18
 167 634 167 634 157 660 c 128,-1,19
 147 686 147 686 147 723 c 0,0,1
EndSplineSet
EndChar

StartChar: cedilla
Encoding: 184 184 122
Width: 420
GlyphClass: 2
Flags: W
LayerCount: 2
Fore
SplineSet
408 -287 m 0,0,1
 408 -384 408 -384 337.5 -438 c 128,-1,2
 267 -492 267 -492 117 -492 c 0,3,4
 95 -492 95 -492 72.5 -489 c 128,-1,5
 50 -486 50 -486 35 -483 c 1,6,-1
 35 -375 l 1,7,8
 50 -378 50 -378 74.5 -379.5 c 128,-1,9
 99 -381 99 -381 115 -381 c 0,10,11
 186 -381 186 -381 226 -359.5 c 128,-1,12
 266 -338 266 -338 266 -289 c 0,13,14
 266 -265 266 -265 253 -247.5 c 128,-1,15
 240 -230 240 -230 217 -217 c 128,-1,16
 194 -204 194 -204 162.5 -194.5 c 128,-1,17
 131 -185 131 -185 94 -176 c 1,18,-1
 184 0 l 1,19,-1
 305 0 l 1,20,-1
 248 -115 l 1,21,22
 282 -123 282 -123 311 -136 c 128,-1,23
 340 -149 340 -149 361.5 -169.5 c 128,-1,24
 383 -190 383 -190 395.5 -219 c 128,-1,25
 408 -248 408 -248 408 -287 c 0,0,1
EndSplineSet
EndChar

StartChar: onesuperior
Encoding: 185 185 123
Width: 678
GlyphClass: 2
Flags: W
LayerCount: 2
Fore
SplineSet
307 1462 m 1,0,-1
 442 1462 l 1,1,-1
 442 586 l 1,2,-1
 297 586 l 1,3,-1
 297 1102 l 2,4,5
 297 1127 297 1127 297.5 1157 c 128,-1,6
 298 1187 298 1187 299.5 1217 c 128,-1,7
 301 1247 301 1247 302.5 1275 c 128,-1,8
 304 1303 304 1303 305 1325 c 1,9,10
 291 1308 291 1308 272 1288 c 128,-1,11
 253 1268 253 1268 231 1251 c 2,12,-1
 137 1178 l 1,13,-1
 63 1274 l 1,14,-1
 307 1462 l 1,0,-1
EndSplineSet
EndChar

StartChar: ordmasculine
Encoding: 186 186 124
Width: 717
GlyphClass: 2
Flags: W
LayerCount: 2
Fore
SplineSet
651 1133 m 256,0,1
 651 1050 651 1050 630.5 985 c 128,-1,2
 610 920 610 920 571.5 875.5 c 128,-1,3
 533 831 533 831 478.5 807.5 c 128,-1,4
 424 784 424 784 356 784 c 0,5,6
 293 784 293 784 240 807.5 c 128,-1,7
 187 831 187 831 148 875.5 c 128,-1,8
 109 920 109 920 87.5 985 c 128,-1,9
 66 1050 66 1050 66 1133 c 256,10,11
 66 1216 66 1216 86.5 1280.5 c 128,-1,12
 107 1345 107 1345 145 1389 c 128,-1,13
 183 1433 183 1433 237.5 1456 c 128,-1,14
 292 1479 292 1479 360 1479 c 0,15,16
 422 1479 422 1479 475.5 1456 c 128,-1,17
 529 1433 529 1433 568 1389 c 128,-1,18
 607 1345 607 1345 629 1280.5 c 128,-1,19
 651 1216 651 1216 651 1133 c 256,0,1
197 1133 m 0,20,21
 197 1014 197 1014 234.5 953.5 c 128,-1,22
 272 893 272 893 358 893 c 0,23,24
 443 893 443 893 480.5 953.5 c 128,-1,25
 518 1014 518 1014 518 1133 c 0,26,27
 518 1253 518 1253 480.5 1310.5 c 128,-1,28
 443 1368 443 1368 358 1368 c 0,29,30
 272 1368 272 1368 234.5 1310.5 c 128,-1,31
 197 1253 197 1253 197 1133 c 0,20,21
EndSplineSet
EndChar

StartChar: guillemotright
Encoding: 187 187 125
Width: 997
GlyphClass: 2
Flags: W
LayerCount: 2
Fore
SplineSet
918 526 m 1,0,-1
 608 115 l 1,1,-1
 492 193 l 1,2,-1
 729 541 l 1,3,-1
 492 889 l 1,4,-1
 608 967 l 1,5,-1
 918 553 l 1,6,-1
 918 526 l 1,0,-1
510 526 m 1,7,-1
 201 115 l 1,8,-1
 84 193 l 1,9,-1
 322 541 l 1,10,-1
 84 889 l 1,11,-1
 201 967 l 1,12,-1
 510 553 l 1,13,-1
 510 526 l 1,7,-1
EndSplineSet
EndChar

StartChar: questiondown
Encoding: 191 191 129
Width: 872
GlyphClass: 2
Flags: W
LayerCount: 2
Fore
SplineSet
592 676 m 1,0,-1
 592 639 l 2,1,2
 592 581 592 581 584 535.5 c 128,-1,3
 576 490 576 490 556.5 449.5 c 128,-1,4
 537 409 537 409 504.5 371 c 128,-1,5
 472 333 472 333 422 291 c 0,6,7
 374 250 374 250 340 216.5 c 128,-1,8
 306 183 306 183 284.5 148.5 c 128,-1,9
 263 114 263 114 252.5 74.5 c 128,-1,10
 242 35 242 35 242 -18 c 0,11,12
 242 -66 242 -66 257 -105.5 c 128,-1,13
 272 -145 272 -145 300.5 -173.5 c 128,-1,14
 329 -202 329 -202 371.5 -217.5 c 128,-1,15
 414 -233 414 -233 469 -233 c 0,16,17
 553 -233 553 -233 628 -207.5 c 128,-1,18
 703 -182 703 -182 772 -147 c 1,19,-1
 836 -293 l 1,20,21
 754 -335 754 -335 660 -364 c 128,-1,22
 566 -393 566 -393 469 -393 c 0,23,24
 376 -393 376 -393 301.5 -367.5 c 128,-1,25
 227 -342 227 -342 175.5 -294 c 128,-1,26
 124 -246 124 -246 96 -177 c 128,-1,27
 68 -108 68 -108 68 -20 c 0,28,29
 68 48 68 48 81.5 100 c 128,-1,30
 95 152 95 152 121.5 197 c 128,-1,31
 148 242 148 242 188.5 284 c 128,-1,32
 229 326 229 326 283 373 c 0,33,34
 335 418 335 418 368 451.5 c 128,-1,35
 401 485 401 485 420 516 c 128,-1,36
 439 547 439 547 446 580.5 c 128,-1,37
 453 614 453 614 453 657 c 2,38,-1
 453 676 l 1,39,-1
 592 676 l 1,0,-1
639 979 m 0,40,41
 639 941 639 941 629.5 914.5 c 128,-1,42
 620 888 620 888 602.5 871.5 c 128,-1,43
 585 855 585 855 562 847.5 c 128,-1,44
 539 840 539 840 512 840 c 0,45,46
 486 840 486 840 463 847.5 c 128,-1,47
 440 855 440 855 422.5 871.5 c 128,-1,48
 405 888 405 888 395 914.5 c 128,-1,49
 385 941 385 941 385 979 c 0,50,51
 385 1016 385 1016 395 1042 c 128,-1,52
 405 1068 405 1068 422.5 1085 c 128,-1,53
 440 1102 440 1102 463 1110 c 128,-1,54
 486 1118 486 1118 512 1118 c 0,55,56
 539 1118 539 1118 562 1110 c 128,-1,57
 585 1102 585 1102 602.5 1085 c 128,-1,58
 620 1068 620 1068 629.5 1042 c 128,-1,59
 639 1016 639 1016 639 979 c 0,40,41
EndSplineSet
EndChar

StartChar: AE
Encoding: 198 198 136
Width: 1745
GlyphClass: 2
Flags: W
LayerCount: 2
Fore
SplineSet
1622 0 m 1,0,-1
 862 0 l 1,1,-1
 862 453 l 1,2,-1
 387 453 l 1,3,-1
 184 0 l 1,4,-1
 -2 0 l 1,5,-1
 653 1462 l 1,6,-1
 1622 1462 l 1,7,-1
 1622 1298 l 1,8,-1
 1049 1298 l 1,9,-1
 1049 846 l 1,10,-1
 1583 846 l 1,11,-1
 1583 684 l 1,12,-1
 1049 684 l 1,13,-1
 1049 164 l 1,14,-1
 1622 164 l 1,15,-1
 1622 0 l 1,0,-1
459 618 m 1,16,-1
 862 618 l 1,17,-1
 862 1298 l 1,18,-1
 754 1298 l 1,19,-1
 459 618 l 1,16,-1
EndSplineSet
EndChar

StartChar: Eth
Encoding: 208 208 146
Width: 1401
GlyphClass: 2
Flags: W
LayerCount: 2
Fore
SplineSet
47 805 m 1,0,-1
 199 805 l 1,1,-1
 199 1462 l 1,2,-1
 606 1462 l 2,3,4
 759 1462 759 1462 883 1416 c 128,-1,5
 1007 1370 1007 1370 1094 1279.5 c 128,-1,6
 1181 1189 1181 1189 1228.5 1055 c 128,-1,7
 1276 921 1276 921 1276 745 c 0,8,9
 1276 560 1276 560 1228 420.5 c 128,-1,10
 1180 281 1180 281 1089 187.5 c 128,-1,11
 998 94 998 94 865.5 47 c 128,-1,12
 733 0 733 0 565 0 c 2,13,-1
 199 0 l 1,14,-1
 199 643 l 1,15,-1
 47 643 l 1,16,-1
 47 805 l 1,0,-1
1079 739 m 0,17,18
 1079 885 1079 885 1046 991.5 c 128,-1,19
 1013 1098 1013 1098 950 1167 c 128,-1,20
 887 1236 887 1236 795 1269.5 c 128,-1,21
 703 1303 703 1303 586 1303 c 2,22,-1
 385 1303 l 1,23,-1
 385 805 l 1,24,-1
 721 805 l 1,25,-1
 721 643 l 1,26,-1
 385 643 l 1,27,-1
 385 160 l 1,28,-1
 547 160 l 2,29,30
 811 160 811 160 945 306 c 128,-1,31
 1079 452 1079 452 1079 739 c 0,17,18
EndSplineSet
EndChar

StartChar: multiply
Encoding: 215 215 153
Width: 1128
GlyphClass: 2
Flags: W
LayerCount: 2
Fore
SplineSet
459 723 m 1,0,-1
 141 1042 l 1,1,-1
 246 1147 l 1,2,-1
 563 829 l 1,3,-1
 885 1147 l 1,4,-1
 989 1044 l 1,5,-1
 668 723 l 1,6,-1
 987 403 l 1,7,-1
 885 301 l 1,8,-1
 563 618 l 1,9,-1
 246 303 l 1,10,-1
 143 406 l 1,11,-1
 459 723 l 1,0,-1
EndSplineSet
EndChar

StartChar: Oslash
Encoding: 216 216 154
Width: 1520
GlyphClass: 2
Flags: W
LayerCount: 2
Fore
SplineSet
1300 1454 m 1,0,-1
 1208 1305 l 1,1,2
 1299 1206 1299 1206 1346 1061 c 128,-1,3
 1393 916 1393 916 1393 733 c 0,4,5
 1393 564 1393 564 1352.5 425 c 128,-1,6
 1312 286 1312 286 1232 187 c 128,-1,7
 1152 88 1152 88 1033.5 34 c 128,-1,8
 915 -20 915 -20 760 -20 c 0,9,10
 571 -20 571 -20 438 51 c 1,11,-1
 360 -76 l 1,12,-1
 223 2 l 1,13,-1
 313 147 l 1,14,15
 216 247 216 247 170.5 396 c 128,-1,16
 125 545 125 545 125 735 c 0,17,18
 125 905 125 905 163 1043.5 c 128,-1,19
 201 1182 201 1182 280 1280 c 128,-1,20
 359 1378 359 1378 479 1431.5 c 128,-1,21
 599 1485 599 1485 762 1485 c 0,22,23
 856 1485 856 1485 936.5 1464 c 128,-1,24
 1017 1443 1017 1443 1083 1405 c 1,25,-1
 1163 1532 l 1,26,-1
 1300 1454 l 1,0,-1
322 733 m 0,27,28
 322 602 322 602 345 497.5 c 128,-1,29
 368 393 368 393 416 315 c 1,30,-1
 995 1260 l 1,31,32
 947 1289 947 1289 890 1305 c 128,-1,33
 833 1321 833 1321 762 1321 c 0,34,35
 648 1321 648 1321 565 1280.5 c 128,-1,36
 482 1240 482 1240 428 1164.5 c 128,-1,37
 374 1089 374 1089 348 980 c 128,-1,38
 322 871 322 871 322 733 c 0,27,28
1196 733 m 0,39,40
 1196 990 1196 990 1108 1141 c 1,41,-1
 530 201 l 1,42,43
 577 173 577 173 634 158 c 128,-1,44
 691 143 691 143 760 143 c 0,45,46
 874 143 874 143 956.5 183.5 c 128,-1,47
 1039 224 1039 224 1092.5 300.5 c 128,-1,48
 1146 377 1146 377 1171 486.5 c 128,-1,49
 1196 596 1196 596 1196 733 c 0,39,40
EndSplineSet
EndChar

StartChar: Thorn
Encoding: 222 222 160
Width: 1180
GlyphClass: 2
Flags: W
LayerCount: 2
Fore
SplineSet
1075 782 m 0,0,1
 1075 691 1075 691 1047.5 607 c 128,-1,2
 1020 523 1020 523 957 458.5 c 128,-1,3
 894 394 894 394 790.5 355.5 c 128,-1,4
 687 317 687 317 535 317 c 2,5,-1
 385 317 l 1,6,-1
 385 0 l 1,7,-1
 199 0 l 1,8,-1
 199 1462 l 1,9,-1
 385 1462 l 1,10,-1
 385 1210 l 1,11,-1
 561 1210 l 2,12,13
 695 1210 695 1210 792 1181.5 c 128,-1,14
 889 1153 889 1153 952 1098.5 c 128,-1,15
 1015 1044 1015 1044 1045 964 c 128,-1,16
 1075 884 1075 884 1075 782 c 0,0,1
385 475 m 1,17,-1
 514 475 l 2,18,19
 607 475 607 475 676.5 491 c 128,-1,20
 746 507 746 507 791.5 542.5 c 128,-1,21
 837 578 837 578 860 634.5 c 128,-1,22
 883 691 883 691 883 772 c 0,23,24
 883 915 883 915 801 983 c 128,-1,25
 719 1051 719 1051 545 1051 c 2,26,-1
 385 1051 l 1,27,-1
 385 475 l 1,17,-1
EndSplineSet
EndChar

StartChar: germandbls
Encoding: 223 223 161
Width: 1233
GlyphClass: 2
Flags: W
LayerCount: 2
Fore
SplineSet
1010 1260 m 0,0,1
 1010 1203 1010 1203 988.5 1158.5 c 128,-1,2
 967 1114 967 1114 935.5 1077.5 c 128,-1,3
 904 1041 904 1041 866.5 1011 c 128,-1,4
 829 981 829 981 797.5 953.5 c 128,-1,5
 766 926 766 926 744.5 899 c 128,-1,6
 723 872 723 872 723 842 c 0,7,8
 723 821 723 821 730 804.5 c 128,-1,9
 737 788 737 788 756.5 768.5 c 128,-1,10
 776 749 776 749 811 724.5 c 128,-1,11
 846 700 846 700 903 662 c 0,12,13
 959 625 959 625 1003 589 c 128,-1,14
 1047 553 1047 553 1077.5 512 c 128,-1,15
 1108 471 1108 471 1124.5 423 c 128,-1,16
 1141 375 1141 375 1141 313 c 0,17,18
 1141 226 1141 226 1113 163 c 128,-1,19
 1085 100 1085 100 1034.5 59.5 c 128,-1,20
 984 19 984 19 913.5 -0.5 c 128,-1,21
 843 -20 843 -20 758 -20 c 0,22,23
 661 -20 661 -20 591.5 -2.5 c 128,-1,24
 522 15 522 15 469 49 c 1,25,-1
 469 215 l 1,26,27
 495 199 495 199 527.5 183.5 c 128,-1,28
 560 168 560 168 596 156 c 128,-1,29
 632 144 632 144 670 136.5 c 128,-1,30
 708 129 708 129 745 129 c 0,31,32
 801 129 801 129 841.5 141.5 c 128,-1,33
 882 154 882 154 908 176.5 c 128,-1,34
 934 199 934 199 946 231 c 128,-1,35
 958 263 958 263 958 303 c 0,36,37
 958 339 958 339 949.5 368.5 c 128,-1,38
 941 398 941 398 919.5 426 c 128,-1,39
 898 454 898 454 862 483 c 128,-1,40
 826 512 826 512 770 547 c 0,41,42
 707 587 707 587 664.5 621 c 128,-1,43
 622 655 622 655 595.5 688.5 c 128,-1,44
 569 722 569 722 558 757 c 128,-1,45
 547 792 547 792 547 834 c 0,46,47
 547 888 547 888 567.5 927.5 c 128,-1,48
 588 967 588 967 619 998.5 c 128,-1,49
 650 1030 650 1030 686 1057 c 128,-1,50
 722 1084 722 1084 753 1113 c 128,-1,51
 784 1142 784 1142 804.5 1175.5 c 128,-1,52
 825 1209 825 1209 825 1253 c 0,53,54
 825 1295 825 1295 808.5 1326 c 128,-1,55
 792 1357 792 1357 762 1377.5 c 128,-1,56
 732 1398 732 1398 690.5 1407.5 c 128,-1,57
 649 1417 649 1417 598 1417 c 0,58,59
 549 1417 549 1417 505 1407.5 c 128,-1,60
 461 1398 461 1398 428 1374 c 128,-1,61
 395 1350 395 1350 375.5 1308.5 c 128,-1,62
 356 1267 356 1267 356 1202 c 2,63,-1
 356 0 l 1,64,-1
 174 0 l 1,65,-1
 174 1200 l 2,66,67
 174 1304 174 1304 205.5 1374.5 c 128,-1,68
 237 1445 237 1445 293.5 1487.5 c 128,-1,69
 350 1530 350 1530 428 1548.5 c 128,-1,70
 506 1567 506 1567 598 1567 c 256,71,72
 690 1567 690 1567 766 1548 c 128,-1,73
 842 1529 842 1529 896 1491 c 128,-1,74
 950 1453 950 1453 980 1395 c 128,-1,75
 1010 1337 1010 1337 1010 1260 c 0,0,1
EndSplineSet
EndChar

StartChar: ae
Encoding: 230 230 168
Width: 1706
GlyphClass: 2
Flags: W
LayerCount: 2
Fore
SplineSet
94 307 m 0,0,1
 94 471 94 471 209.5 559 c 128,-1,2
 325 647 325 647 561 655 c 2,3,-1
 745 662 l 1,4,-1
 745 731 l 2,5,6
 745 798 745 798 730.5 843 c 128,-1,7
 716 888 716 888 688.5 915.5 c 128,-1,8
 661 943 661 943 620.5 955 c 128,-1,9
 580 967 580 967 528 967 c 0,10,11
 445 967 445 967 373.5 943 c 128,-1,12
 302 919 302 919 236 885 c 1,13,-1
 172 1022 l 1,14,15
 246 1062 246 1062 337 1090 c 128,-1,16
 428 1118 428 1118 528 1118 c 0,17,18
 659 1118 659 1118 742 1075.5 c 128,-1,19
 825 1033 825 1033 868 940 c 1,20,21
 919 1025 919 1025 1002 1071.5 c 128,-1,22
 1085 1118 1085 1118 1188 1118 c 0,23,24
 1285 1118 1285 1118 1362 1082.5 c 128,-1,25
 1439 1047 1439 1047 1493 982.5 c 128,-1,26
 1547 918 1547 918 1575.5 827.5 c 128,-1,27
 1604 737 1604 737 1604 627 c 2,28,-1
 1604 514 l 1,29,-1
 932 514 l 1,30,31
 937 321 937 321 1010.5 230 c 128,-1,32
 1084 139 1084 139 1231 139 c 0,33,34
 1280 139 1280 139 1322.5 144 c 128,-1,35
 1365 149 1365 149 1404 158.5 c 128,-1,36
 1443 168 1443 168 1480 182.5 c 128,-1,37
 1517 197 1517 197 1554 215 c 1,38,-1
 1554 53 l 1,39,40
 1515 34 1515 34 1477.5 20 c 128,-1,41
 1440 6 1440 6 1400.5 -3 c 128,-1,42
 1361 -12 1361 -12 1318.5 -16 c 128,-1,43
 1276 -20 1276 -20 1227 -20 c 0,44,45
 1089 -20 1089 -20 988 37 c 128,-1,46
 887 94 887 94 825 209 c 1,47,48
 791 155 791 155 753 112.5 c 128,-1,49
 715 70 715 70 667.5 40.5 c 128,-1,50
 620 11 620 11 562 -4.5 c 128,-1,51
 504 -20 504 -20 430 -20 c 0,52,53
 359 -20 359 -20 297.5 -0.5 c 128,-1,54
 236 19 236 19 191 59.5 c 128,-1,55
 146 100 146 100 120 161.5 c 128,-1,56
 94 223 94 223 94 307 c 0,0,1
283 305 m 0,57,58
 283 213 283 213 331.5 170 c 128,-1,59
 380 127 380 127 459 127 c 0,60,61
 520 127 520 127 572 146 c 128,-1,62
 624 165 624 165 662 203.5 c 128,-1,63
 700 242 700 242 721.5 300.5 c 128,-1,64
 743 359 743 359 743 438 c 2,65,-1
 743 537 l 1,66,-1
 600 530 l 2,67,68
 510 526 510 526 449 510 c 128,-1,69
 388 494 388 494 351.5 465.5 c 128,-1,70
 315 437 315 437 299 396.5 c 128,-1,71
 283 356 283 356 283 305 c 0,57,58
1184 967 m 0,72,73
 1074 967 1074 967 1010.5 889 c 128,-1,74
 947 811 947 811 936 662 c 1,75,-1
 1407 662 l 1,76,77
 1407 730 1407 730 1394 786.5 c 128,-1,78
 1381 843 1381 843 1353.5 883 c 128,-1,79
 1326 923 1326 923 1284 945 c 128,-1,80
 1242 967 1242 967 1184 967 c 0,72,73
EndSplineSet
EndChar

StartChar: eth
Encoding: 240 240 178
Width: 1182
GlyphClass: 2
Flags: W
LayerCount: 2
Fore
SplineSet
1069 573 m 0,0,1
 1069 431 1069 431 1035.5 321 c 128,-1,2
 1002 211 1002 211 939.5 135 c 128,-1,3
 877 59 877 59 788 19.5 c 128,-1,4
 699 -20 699 -20 588 -20 c 0,5,6
 484 -20 484 -20 396.5 13 c 128,-1,7
 309 46 309 46 245.5 109.5 c 128,-1,8
 182 173 182 173 146.5 265.5 c 128,-1,9
 111 358 111 358 111 477 c 256,10,11
 111 596 111 596 142.5 688 c 128,-1,12
 174 780 174 780 233 843 c 128,-1,13
 292 906 292 906 376 938.5 c 128,-1,14
 460 971 460 971 565 971 c 0,15,16
 667 971 667 971 744 941.5 c 128,-1,17
 821 912 821 912 864 852 c 1,18,-1
 872 856 l 1,19,20
 841 974 841 974 781 1070 c 128,-1,21
 721 1166 721 1166 631 1247 c 1,22,-1
 375 1094 l 1,23,-1
 301 1208 l 1,24,-1
 518 1339 l 1,25,26
 478 1367 478 1367 435.5 1394.5 c 128,-1,27
 393 1422 393 1422 346 1448 c 1,28,-1
 416 1571 l 1,29,30
 481 1539 481 1539 542 1503 c 128,-1,31
 603 1467 603 1467 662 1423 c 1,32,-1
 889 1561 l 1,33,-1
 963 1448 l 1,34,-1
 768 1331 l 1,35,36
 835 1266 835 1266 890.5 1188 c 128,-1,37
 946 1110 946 1110 985.5 1016.5 c 128,-1,38
 1025 923 1025 923 1047 812.5 c 128,-1,39
 1069 702 1069 702 1069 573 c 0,0,1
881 526 m 0,40,41
 881 582 881 582 864 635.5 c 128,-1,42
 847 689 847 689 812 730 c 128,-1,43
 777 771 777 771 722 796 c 128,-1,44
 667 821 667 821 592 821 c 0,45,46
 515 821 515 821 460.5 798 c 128,-1,47
 406 775 406 775 371 731 c 128,-1,48
 336 687 336 687 319.5 621.5 c 128,-1,49
 303 556 303 556 303 471 c 0,50,51
 303 395 303 395 319.5 332.5 c 128,-1,52
 336 270 336 270 371.5 225 c 128,-1,53
 407 180 407 180 461.5 155.5 c 128,-1,54
 516 131 516 131 592 131 c 0,55,56
 746 131 746 131 813.5 230.5 c 128,-1,57
 881 330 881 330 881 526 c 0,40,41
EndSplineSet
EndChar

StartChar: divide
Encoding: 247 247 185
Width: 1128
GlyphClass: 2
Flags: W
LayerCount: 2
Fore
SplineSet
102 647 m 1,0,-1
 102 797 l 1,1,-1
 1026 797 l 1,2,-1
 1026 647 l 1,3,-1
 102 647 l 1,0,-1
449 373 m 0,4,5
 449 408 449 408 458 431.5 c 128,-1,6
 467 455 467 455 482.5 470 c 128,-1,7
 498 485 498 485 518.5 491.5 c 128,-1,8
 539 498 539 498 563 498 c 0,9,10
 586 498 586 498 607 491.5 c 128,-1,11
 628 485 628 485 644 470 c 128,-1,12
 660 455 660 455 669 431.5 c 128,-1,13
 678 408 678 408 678 373 c 0,14,15
 678 340 678 340 669 316.5 c 128,-1,16
 660 293 660 293 644 277.5 c 128,-1,17
 628 262 628 262 607 255 c 128,-1,18
 586 248 586 248 563 248 c 0,19,20
 539 248 539 248 518.5 255 c 128,-1,21
 498 262 498 262 482.5 277.5 c 128,-1,22
 467 293 467 293 458 316.5 c 128,-1,23
 449 340 449 340 449 373 c 0,4,5
449 1071 m 0,24,25
 449 1106 449 1106 458 1129.5 c 128,-1,26
 467 1153 467 1153 482.5 1168 c 128,-1,27
 498 1183 498 1183 518.5 1189.5 c 128,-1,28
 539 1196 539 1196 563 1196 c 0,29,30
 586 1196 586 1196 607 1189.5 c 128,-1,31
 628 1183 628 1183 644 1168 c 128,-1,32
 660 1153 660 1153 669 1129.5 c 128,-1,33
 678 1106 678 1106 678 1071 c 0,34,35
 678 1038 678 1038 669 1014.5 c 128,-1,36
 660 991 660 991 644 975.5 c 128,-1,37
 628 960 628 960 607 953 c 128,-1,38
 586 946 586 946 563 946 c 0,39,40
 539 946 539 946 518.5 953 c 128,-1,41
 498 960 498 960 482.5 975.5 c 128,-1,42
 467 991 467 991 458 1014.5 c 128,-1,43
 449 1038 449 1038 449 1071 c 0,24,25
EndSplineSet
EndChar

StartChar: oslash
Encoding: 248 248 186
Width: 1182
GlyphClass: 2
Flags: W
LayerCount: 2
Fore
SplineSet
1071 551 m 0,0,1
 1071 414 1071 414 1037.5 307.5 c 128,-1,2
 1004 201 1004 201 941.5 128.5 c 128,-1,3
 879 56 879 56 790 18 c 128,-1,4
 701 -20 701 -20 590 -20 c 0,5,6
 465 -20 465 -20 367 33 c 1,7,-1
 299 -76 l 1,8,-1
 168 -2 l 1,9,-1
 248 129 l 1,10,11
 185 201 185 201 150 307.5 c 128,-1,12
 115 414 115 414 115 551 c 0,13,14
 115 687 115 687 148.5 792.5 c 128,-1,15
 182 898 182 898 244 970.5 c 128,-1,16
 306 1043 306 1043 395.5 1080.5 c 128,-1,17
 485 1118 485 1118 596 1118 c 0,18,19
 659 1118 659 1118 715.5 1103.5 c 128,-1,20
 772 1089 772 1089 821 1061 c 1,21,-1
 889 1169 l 1,22,-1
 1020 1096 l 1,23,-1
 940 967 l 1,24,25
 1002 894 1002 894 1036.5 789.5 c 128,-1,26
 1071 685 1071 685 1071 551 c 0,0,1
303 551 m 0,27,28
 303 467 303 467 312.5 401.5 c 128,-1,29
 322 336 322 336 344 285 c 1,30,-1
 741 932 l 1,31,32
 712 949 712 949 674.5 958 c 128,-1,33
 637 967 637 967 592 967 c 0,34,35
 438 967 438 967 370.5 863.5 c 128,-1,36
 303 760 303 760 303 551 c 0,27,28
883 551 m 0,37,38
 883 710 883 710 844 809 c 1,39,-1
 446 164 l 1,40,41
 477 147 477 147 513 139 c 128,-1,42
 549 131 549 131 594 131 c 0,43,44
 748 131 748 131 815.5 236.5 c 128,-1,45
 883 342 883 342 883 551 c 0,37,38
EndSplineSet
EndChar

StartChar: thorn
Encoding: 254 254 192
Width: 1200
GlyphClass: 2
Flags: W
LayerCount: 2
Fore
SplineSet
356 950 m 1,0,1
 379 985 379 985 408 1015.5 c 128,-1,2
 437 1046 437 1046 475.5 1068.5 c 128,-1,3
 514 1091 514 1091 562 1104.5 c 128,-1,4
 610 1118 610 1118 670 1118 c 0,5,6
 764 1118 764 1118 841 1082 c 128,-1,7
 918 1046 918 1046 972.5 974.5 c 128,-1,8
 1027 903 1027 903 1057 797 c 128,-1,9
 1087 691 1087 691 1087 551 c 0,10,11
 1087 410 1087 410 1057 303.5 c 128,-1,12
 1027 197 1027 197 972.5 125 c 128,-1,13
 918 53 918 53 841 16.5 c 128,-1,14
 764 -20 764 -20 670 -20 c 0,15,16
 611 -20 611 -20 563 -7 c 128,-1,17
 515 6 515 6 476.5 27.5 c 128,-1,18
 438 49 438 49 408.5 78 c 128,-1,19
 379 107 379 107 356 139 c 1,20,-1
 344 139 l 1,21,22
 347 105 347 105 350 74 c 0,23,24
 352 48 352 48 354 20.5 c 128,-1,25
 356 -7 356 -7 356 -23 c 2,26,-1
 356 -492 l 1,27,-1
 174 -492 l 1,28,-1
 174 1556 l 1,29,-1
 356 1556 l 1,30,-1
 356 1098 l 1,31,-1
 348 950 l 1,32,-1
 356 950 l 1,0,1
635 967 m 0,33,34
 559 967 559 967 506.5 944 c 128,-1,35
 454 921 454 921 421.5 874 c 128,-1,36
 389 827 389 827 373.5 757 c 128,-1,37
 358 687 358 687 356 592 c 1,38,-1
 356 551 l 2,39,40
 356 450 356 450 369.5 371.5 c 128,-1,41
 383 293 383 293 415.5 239.5 c 128,-1,42
 448 186 448 186 502 158.5 c 128,-1,43
 556 131 556 131 637 131 c 0,44,45
 772 131 772 131 835.5 240 c 128,-1,46
 899 349 899 349 899 553 c 0,47,48
 899 761 899 761 835.5 864 c 128,-1,49
 772 967 772 967 635 967 c 0,33,34
EndSplineSet
EndChar

StartChar: dcroat
Encoding: 273 273 211
Width: 1200
GlyphClass: 2
Flags: W
LayerCount: 2
Fore
SplineSet
852 147 m 1,0,-1
 844 147 l 1,1,2
 822 113 822 113 792.5 82.5 c 128,-1,3
 763 52 763 52 724.5 29 c 128,-1,4
 686 6 686 6 638 -7 c 128,-1,5
 590 -20 590 -20 530 -20 c 0,6,7
 437 -20 437 -20 360 15 c 128,-1,8
 283 50 283 50 228 119 c 128,-1,9
 173 188 173 188 143 290 c 128,-1,10
 113 392 113 392 113 526 c 0,11,12
 113 661 113 661 143 764 c 128,-1,13
 173 867 173 867 228 936.5 c 128,-1,14
 283 1006 283 1006 360 1041.5 c 128,-1,15
 437 1077 437 1077 530 1077 c 0,16,17
 589 1077 589 1077 637 1064.5 c 128,-1,18
 685 1052 685 1052 723.5 1030 c 128,-1,19
 762 1008 762 1008 792 979 c 128,-1,20
 822 950 822 950 844 918 c 1,21,-1
 856 918 l 1,22,23
 853 951 853 951 850 982 c 0,24,25
 848 1008 848 1008 846 1035.5 c 128,-1,26
 844 1063 844 1063 844 1079 c 2,27,-1
 844 1237 l 1,28,-1
 465 1237 l 1,29,-1
 465 1374 l 1,30,-1
 844 1374 l 1,31,-1
 844 1556 l 1,32,-1
 1026 1556 l 1,33,-1
 1026 1374 l 1,34,-1
 1182 1374 l 1,35,-1
 1182 1237 l 1,36,-1
 1026 1237 l 1,37,-1
 1026 0 l 1,38,-1
 879 0 l 1,39,-1
 852 147 l 1,0,-1
565 131 m 0,40,41
 641 131 641 131 693.5 153 c 128,-1,42
 746 175 746 175 778.5 219.5 c 128,-1,43
 811 264 811 264 826.5 330.5 c 128,-1,44
 842 397 842 397 844 487 c 1,45,-1
 844 526 l 2,46,47
 844 623 844 623 830.5 697.5 c 128,-1,48
 817 772 817 772 784.5 823 c 128,-1,49
 752 874 752 874 698 900 c 128,-1,50
 644 926 644 926 563 926 c 0,51,52
 428 926 428 926 364.5 822.5 c 128,-1,53
 301 719 301 719 301 524 c 0,54,55
 301 326 301 326 364.5 228.5 c 128,-1,56
 428 131 428 131 565 131 c 0,40,41
EndSplineSet
EndChar

StartChar: Hbar
Encoding: 294 294 232
Width: 1436
GlyphClass: 2
Flags: W
LayerCount: 2
Fore
SplineSet
199 1219 m 1,0,-1
 199 1462 l 1,1,-1
 385 1462 l 1,2,-1
 385 1219 l 1,3,-1
 1051 1219 l 1,4,-1
 1051 1462 l 1,5,-1
 1237 1462 l 1,6,-1
 1237 1219 l 1,7,-1
 1436 1219 l 1,8,-1
 1436 1069 l 1,9,-1
 1237 1069 l 1,10,-1
 1237 0 l 1,11,-1
 1051 0 l 1,12,-1
 1051 682 l 1,13,-1
 385 682 l 1,14,-1
 385 0 l 1,15,-1
 199 0 l 1,16,-1
 199 1069 l 1,17,-1
 0 1069 l 1,18,-1
 0 1219 l 1,19,-1
 199 1219 l 1,0,-1
1051 846 m 1,20,-1
 1051 1069 l 1,21,-1
 385 1069 l 1,22,-1
 385 846 l 1,23,-1
 1051 846 l 1,20,-1
EndSplineSet
EndChar

StartChar: hbar
Encoding: 295 295 233
Width: 1206
GlyphClass: 2
Flags: W
LayerCount: 2
Fore
SplineSet
860 0 m 1,0,-1
 860 666 l 2,1,2
 860 796 860 796 807.5 861 c 128,-1,3
 755 926 755 926 643 926 c 0,4,5
 562 926 562 926 507 900 c 128,-1,6
 452 874 452 874 418.5 823 c 128,-1,7
 385 772 385 772 370.5 698 c 128,-1,8
 356 624 356 624 356 528 c 2,9,-1
 356 0 l 1,10,-1
 174 0 l 1,11,-1
 174 1237 l 1,12,-1
 18 1237 l 1,13,-1
 18 1374 l 1,14,-1
 174 1374 l 1,15,-1
 174 1556 l 1,16,-1
 356 1556 l 1,17,-1
 356 1374 l 1,18,-1
 735 1374 l 1,19,-1
 735 1237 l 1,20,-1
 356 1237 l 1,21,-1
 356 1053 l 1,22,-1
 348 909 l 1,23,-1
 358 909 l 1,24,25
 383 952 383 952 417.5 983.5 c 128,-1,26
 452 1015 452 1015 493 1036 c 128,-1,27
 534 1057 534 1057 580 1067 c 128,-1,28
 626 1077 626 1077 674 1077 c 0,29,30
 857 1077 857 1077 949.5 981.5 c 128,-1,31
 1042 886 1042 886 1042 676 c 2,32,-1
 1042 0 l 1,33,-1
 860 0 l 1,0,-1
EndSplineSet
EndChar

StartChar: dotlessi
Encoding: 305 305 243
Width: 530
GlyphClass: 2
Flags: W
LayerCount: 2
Fore
SplineSet
356 0 m 1,0,-1
 174 0 l 1,1,-1
 174 1098 l 1,2,-1
 356 1098 l 1,3,-1
 356 0 l 1,0,-1
EndSplineSet
EndChar

StartChar: kgreenlandic
Encoding: 312 312 250
Width: 1016
GlyphClass: 2
Flags: W
LayerCount: 2
Fore
SplineSet
803 0 m 1,0,-1
 463 489 l 1,1,-1
 354 408 l 1,2,-1
 354 0 l 1,3,-1
 174 0 l 1,4,-1
 174 1098 l 1,5,-1
 354 1098 l 1,6,-1
 354 817 l 2,7,8
 354 757 354 757 351.5 706 c 128,-1,9
 349 655 349 655 346 617 c 0,10,11
 342 573 342 573 338 537 c 1,12,-1
 469 713 l 1,13,-1
 776 1098 l 1,14,-1
 981 1098 l 1,15,-1
 580 608 l 1,16,-1
 1008 0 l 1,17,-1
 803 0 l 1,0,-1
EndSplineSet
EndChar

StartChar: Lslash
Encoding: 321 321 259
Width: 1006
GlyphClass: 2
Flags: W
LayerCount: 2
Fore
SplineSet
199 676 m 1,0,-1
 199 1462 l 1,1,-1
 385 1462 l 1,2,-1
 385 793 l 1,3,-1
 612 936 l 1,4,-1
 690 811 l 1,5,-1
 385 621 l 1,6,-1
 385 166 l 1,7,-1
 958 166 l 1,8,-1
 958 0 l 1,9,-1
 199 0 l 1,10,-1
 199 504 l 1,11,-1
 102 444 l 1,12,-1
 29 569 l 1,13,-1
 199 676 l 1,0,-1
EndSplineSet
EndChar

StartChar: lslash
Encoding: 322 322 260
Width: 530
GlyphClass: 2
Flags: W
LayerCount: 2
Fore
SplineSet
174 758 m 1,0,-1
 174 1556 l 1,1,-1
 356 1556 l 1,2,-1
 356 877 l 1,3,-1
 463 946 l 1,4,-1
 541 825 l 1,5,-1
 356 705 l 1,6,-1
 356 0 l 1,7,-1
 174 0 l 1,8,-1
 174 586 l 1,9,-1
 68 516 l 1,10,-1
 -10 637 l 1,11,-1
 174 758 l 1,0,-1
EndSplineSet
EndChar

StartChar: Eng
Encoding: 330 330 268
Width: 1493
GlyphClass: 2
Flags: W
LayerCount: 2
Fore
SplineSet
907 -389 m 0,0,1
 856 -389 856 -389 817.5 -382.5 c 128,-1,2
 779 -376 779 -376 752 -365 c 1,3,-1
 752 -205 l 1,4,5
 786 -214 786 -214 825 -219.5 c 128,-1,6
 864 -225 864 -225 909 -225 c 0,7,8
 946 -225 946 -225 983.5 -215.5 c 128,-1,9
 1021 -206 1021 -206 1051.5 -181 c 128,-1,10
 1082 -156 1082 -156 1101 -112 c 128,-1,11
 1120 -68 1120 -68 1120 0 c 1,12,-1
 360 1210 l 1,13,-1
 352 1210 l 1,14,15
 358 1133 358 1133 362 1057 c 0,16,17
 366 992 366 992 368.5 921 c 128,-1,18
 371 850 371 850 371 793 c 2,19,-1
 371 0 l 1,20,-1
 199 0 l 1,21,-1
 199 1462 l 1,22,-1
 412 1462 l 1,23,-1
 1128 299 l 1,24,-1
 1135 299 l 1,25,26
 1132 364 1132 364 1128 429 c 0,27,28
 1125 485 1125 485 1122.5 547.5 c 128,-1,29
 1120 610 1120 610 1120 662 c 2,30,-1
 1120 1462 l 1,31,-1
 1294 1462 l 1,32,-1
 1294 20 l 2,33,34
 1294 -85 1294 -85 1266.5 -162 c 128,-1,35
 1239 -239 1239 -239 1189 -289.5 c 128,-1,36
 1139 -340 1139 -340 1067.5 -364.5 c 128,-1,37
 996 -389 996 -389 907 -389 c 0,0,1
EndSplineSet
EndChar

StartChar: eng
Encoding: 331 331 269
Width: 1206
GlyphClass: 2
Flags: W
LayerCount: 2
Fore
SplineSet
750 -492 m 0,0,1
 702 -492 702 -492 670.5 -485 c 128,-1,2
 639 -478 639 -478 616 -467 c 1,3,-1
 616 -319 l 1,4,5
 642 -329 642 -329 669 -334.5 c 128,-1,6
 696 -340 696 -340 731 -340 c 0,7,8
 758 -340 758 -340 781 -332.5 c 128,-1,9
 804 -325 804 -325 821.5 -305.5 c 128,-1,10
 839 -286 839 -286 848.5 -253.5 c 128,-1,11
 858 -221 858 -221 858 -170 c 2,12,-1
 860 707 l 2,13,14
 860 837 860 837 807.5 902 c 128,-1,15
 755 967 755 967 643 967 c 0,16,17
 562 967 562 967 507 941 c 128,-1,18
 452 915 452 915 418.5 864 c 128,-1,19
 385 813 385 813 370.5 739 c 128,-1,20
 356 665 356 665 356 569 c 2,21,-1
 356 0 l 1,22,-1
 174 0 l 1,23,-1
 174 1098 l 1,24,-1
 322 1098 l 1,25,-1
 348 950 l 1,26,-1
 358 950 l 1,27,28
 383 993 383 993 417.5 1024.5 c 128,-1,29
 452 1056 452 1056 493 1077 c 128,-1,30
 534 1098 534 1098 580 1108 c 128,-1,31
 626 1118 626 1118 674 1118 c 0,32,33
 857 1118 857 1118 949.5 1022.5 c 128,-1,34
 1042 927 1042 927 1042 717 c 2,35,-1
 1040 -158 l 2,36,37
 1040 -235 1040 -235 1023 -296.5 c 128,-1,38
 1006 -358 1006 -358 970 -401.5 c 128,-1,39
 934 -445 934 -445 879.5 -468.5 c 128,-1,40
 825 -492 825 -492 750 -492 c 0,0,1
EndSplineSet
EndChar

StartChar: OE
Encoding: 338 338 276
Width: 1823
GlyphClass: 2
Flags: W
LayerCount: 2
Fore
SplineSet
1700 0 m 1,0,-1
 942 0 l 1,1,2
 899 -9 899 -9 853.5 -14.5 c 128,-1,3
 808 -20 808 -20 760 -20 c 0,4,5
 597 -20 597 -20 477.5 34 c 128,-1,6
 358 88 358 88 279.5 187 c 128,-1,7
 201 286 201 286 163 425.5 c 128,-1,8
 125 565 125 565 125 735 c 256,9,10
 125 905 125 905 163 1043.5 c 128,-1,11
 201 1182 201 1182 280 1280 c 128,-1,12
 359 1378 359 1378 479 1431.5 c 128,-1,13
 599 1485 599 1485 762 1485 c 0,14,15
 860 1485 860 1485 944 1462 c 1,16,-1
 1700 1462 l 1,17,-1
 1700 1298 l 1,18,-1
 1126 1298 l 1,19,-1
 1126 846 l 1,20,-1
 1661 846 l 1,21,-1
 1661 684 l 1,22,-1
 1126 684 l 1,23,-1
 1126 164 l 1,24,-1
 1700 164 l 1,25,-1
 1700 0 l 1,0,-1
762 1321 m 0,26,27
 648 1321 648 1321 565 1280.5 c 128,-1,28
 482 1240 482 1240 428 1164.5 c 128,-1,29
 374 1089 374 1089 348 980 c 128,-1,30
 322 871 322 871 322 733 c 0,31,32
 322 596 322 596 348 486.5 c 128,-1,33
 374 377 374 377 427.5 300.5 c 128,-1,34
 481 224 481 224 563.5 183.5 c 128,-1,35
 646 143 646 143 760 143 c 0,36,37
 812 143 812 143 857 152 c 128,-1,38
 902 161 902 161 940 176 c 1,39,-1
 940 1288 l 1,40,41
 902 1304 902 1304 857.5 1312.5 c 128,-1,42
 813 1321 813 1321 762 1321 c 0,26,27
EndSplineSet
EndChar

StartChar: oe
Encoding: 339 339 277
Width: 1864
GlyphClass: 2
Flags: W
LayerCount: 2
Fore
SplineSet
1376 -20 m 0,0,1
 1246 -20 1246 -20 1144 36 c 128,-1,2
 1042 92 1042 92 977 201 c 1,3,4
 914 92 914 92 815 36 c 128,-1,5
 716 -20 716 -20 588 -20 c 0,6,7
 485 -20 485 -20 398 18 c 128,-1,8
 311 56 311 56 247.5 128.5 c 128,-1,9
 184 201 184 201 148.5 307.5 c 128,-1,10
 113 414 113 414 113 551 c 0,11,12
 113 687 113 687 146.5 792.5 c 128,-1,13
 180 898 180 898 242 970.5 c 128,-1,14
 304 1043 304 1043 393.5 1080.5 c 128,-1,15
 483 1118 483 1118 594 1118 c 0,16,17
 715 1118 715 1118 812.5 1062.5 c 128,-1,18
 910 1007 910 1007 973 901 c 1,19,20
 1033 1006 1033 1006 1125.5 1062 c 128,-1,21
 1218 1118 1218 1118 1335 1118 c 0,22,23
 1434 1118 1434 1118 1513 1082.5 c 128,-1,24
 1592 1047 1592 1047 1647 982.5 c 128,-1,25
 1702 918 1702 918 1731.5 827.5 c 128,-1,26
 1761 737 1761 737 1761 627 c 2,27,-1
 1761 514 l 1,28,-1
 1069 514 l 1,29,30
 1074 321 1074 321 1150.5 230 c 128,-1,31
 1227 139 1227 139 1378 139 c 0,32,33
 1429 139 1429 139 1472.5 144 c 128,-1,34
 1516 149 1516 149 1556.5 158.5 c 128,-1,35
 1597 168 1597 168 1635 182.5 c 128,-1,36
 1673 197 1673 197 1712 215 c 1,37,-1
 1712 53 l 1,38,39
 1672 34 1672 34 1633.5 20 c 128,-1,40
 1595 6 1595 6 1554.5 -3 c 128,-1,41
 1514 -12 1514 -12 1470.5 -16 c 128,-1,42
 1427 -20 1427 -20 1376 -20 c 0,0,1
301 551 m 256,43,44
 301 342 301 342 369.5 236.5 c 128,-1,45
 438 131 438 131 592 131 c 0,46,47
 742 131 742 131 811.5 231.5 c 128,-1,48
 881 332 881 332 881 541 c 0,49,50
 881 761 881 761 811 864 c 128,-1,51
 741 967 741 967 590 967 c 0,52,53
 436 967 436 967 368.5 863.5 c 128,-1,54
 301 760 301 760 301 551 c 256,43,44
1565 662 m 1,55,56
 1565 730 1565 730 1551.5 786.5 c 128,-1,57
 1538 843 1538 843 1509.5 883 c 128,-1,58
 1481 923 1481 923 1437 945 c 128,-1,59
 1393 967 1393 967 1331 967 c 0,60,61
 1217 967 1217 967 1150.5 889 c 128,-1,62
 1084 811 1084 811 1073 662 c 1,63,-1
 1565 662 l 1,55,56
EndSplineSet
EndChar

StartChar: Tbar
Encoding: 358 358 296
Width: 1063
GlyphClass: 2
Flags: W
LayerCount: 2
Fore
SplineSet
438 819 m 1,0,-1
 438 1298 l 1,1,-1
 20 1298 l 1,2,-1
 20 1462 l 1,3,-1
 1042 1462 l 1,4,-1
 1042 1298 l 1,5,-1
 625 1298 l 1,6,-1
 625 819 l 1,7,-1
 920 819 l 1,8,-1
 920 670 l 1,9,-1
 625 670 l 1,10,-1
 625 0 l 1,11,-1
 438 0 l 1,12,-1
 438 670 l 1,13,-1
 141 670 l 1,14,-1
 141 819 l 1,15,-1
 438 819 l 1,0,-1
EndSplineSet
EndChar

StartChar: tbar
Encoding: 359 359 297
Width: 694
GlyphClass: 2
Flags: W
LayerCount: 2
Fore
SplineSet
506 129 m 0,0,1
 524 129 524 129 546.5 131 c 128,-1,2
 569 133 569 133 590 136 c 128,-1,3
 611 139 611 139 628.5 143 c 128,-1,4
 646 147 646 147 655 150 c 1,5,-1
 655 12 l 1,6,7
 642 6 642 6 622 0 c 128,-1,8
 602 -6 602 -6 578 -10.5 c 128,-1,9
 554 -15 554 -15 528 -17.5 c 128,-1,10
 502 -20 502 -20 477 -20 c 0,11,12
 415 -20 415 -20 362 -4 c 128,-1,13
 309 12 309 12 270.5 51 c 128,-1,14
 232 90 232 90 210 156.5 c 128,-1,15
 188 223 188 223 188 324 c 2,16,-1
 188 575 l 1,17,-1
 49 575 l 1,18,-1
 49 713 l 1,19,-1
 188 713 l 1,20,-1
 188 961 l 1,21,-1
 33 961 l 1,22,-1
 33 1042 l 1,23,-1
 188 1120 l 1,24,-1
 266 1350 l 1,25,-1
 371 1350 l 1,26,-1
 371 1098 l 1,27,-1
 647 1098 l 1,28,-1
 647 961 l 1,29,-1
 371 961 l 1,30,-1
 371 713 l 1,31,-1
 629 713 l 1,32,-1
 629 575 l 1,33,-1
 371 575 l 1,34,-1
 371 324 l 2,35,36
 371 227 371 227 402.5 178 c 128,-1,37
 434 129 434 129 506 129 c 0,0,1
EndSplineSet
EndChar

StartChar: longs
Encoding: 383 383 321
Width: 588
GlyphClass: 2
Flags: W
LayerCount: 2
Fore
SplineSet
174 0 m 1,0,-1
 174 1200 l 2,1,2
 174 1307 174 1307 196.5 1377.5 c 128,-1,3
 219 1448 219 1448 261.5 1490 c 128,-1,4
 304 1532 304 1532 366 1549.5 c 128,-1,5
 428 1567 428 1567 506 1567 c 0,6,7
 565 1567 565 1567 614.5 1555.5 c 128,-1,8
 664 1544 664 1544 702 1530 c 1,9,-1
 655 1389 l 1,10,11
 624 1400 624 1400 588 1408.5 c 128,-1,12
 552 1417 552 1417 512 1417 c 256,13,14
 472 1417 472 1417 443 1407.5 c 128,-1,15
 414 1398 414 1398 394.5 1374 c 128,-1,16
 375 1350 375 1350 365.5 1308.5 c 128,-1,17
 356 1267 356 1267 356 1202 c 2,18,-1
 356 0 l 1,19,-1
 174 0 l 1,0,-1
EndSplineSet
EndChar

StartChar: florin
Encoding: 402 402 322
Width: 1128
GlyphClass: 2
Flags: W
LayerCount: 2
Fore
SplineSet
655 836 m 1,0,-1
 655 -125 l 2,1,2
 655 -232 655 -232 632.5 -302.5 c 128,-1,3
 610 -373 610 -373 567.5 -415 c 128,-1,4
 525 -457 525 -457 463.5 -474.5 c 128,-1,5
 402 -492 402 -492 324 -492 c 0,6,7
 292 -492 292 -492 261.5 -487.5 c 128,-1,8
 231 -483 231 -483 203 -477 c 1,9,-1
 203 -324 l 1,10,11
 229 -332 229 -332 257.5 -337 c 128,-1,12
 286 -342 286 -342 317 -342 c 0,13,14
 357 -342 357 -342 386.5 -332.5 c 128,-1,15
 416 -323 416 -323 435 -299 c 128,-1,16
 454 -275 454 -275 463.5 -233.5 c 128,-1,17
 473 -192 473 -192 473 -127 c 2,18,-1
 473 836 l 1,19,-1
 279 836 l 1,20,-1
 279 911 l 1,21,-1
 473 979 l 1,22,-1
 473 1116 l 2,23,24
 473 1223 473 1223 495.5 1293.5 c 128,-1,25
 518 1364 518 1364 560.5 1406 c 128,-1,26
 603 1448 603 1448 665 1465.5 c 128,-1,27
 727 1483 727 1483 805 1483 c 0,28,29
 864 1483 864 1483 913.5 1471.5 c 128,-1,30
 963 1460 963 1460 1001 1446 c 1,31,-1
 954 1305 l 1,32,33
 923 1316 923 1316 887 1324.5 c 128,-1,34
 851 1333 851 1333 811 1333 c 256,35,36
 771 1333 771 1333 742 1323.5 c 128,-1,37
 713 1314 713 1314 693.5 1290 c 128,-1,38
 674 1266 674 1266 664.5 1224.5 c 128,-1,39
 655 1183 655 1183 655 1118 c 2,40,-1
 655 973 l 1,41,-1
 901 973 l 1,42,-1
 901 836 l 1,43,-1
 655 836 l 1,0,-1
EndSplineSet
EndChar

StartChar: Aringacute
Encoding: 506 506 323
Width: 1245
GlyphClass: 2
Flags: W
LayerCount: 2
Fore
SplineSet
848 1436 m 0,0,1
 848 1366 848 1366 818 1318 c 128,-1,2
 788 1270 788 1270 737 1245 c 1,3,-1
 1245 0 l 1,4,-1
 1055 0 l 1,5,-1
 901 391 l 1,6,-1
 344 391 l 1,7,-1
 188 0 l 1,8,-1
 0 0 l 1,9,-1
 504 1243 l 1,10,11
 453 1268 453 1268 424 1316 c 128,-1,12
 395 1364 395 1364 395 1434 c 0,13,14
 395 1485 395 1485 411 1524.5 c 128,-1,15
 427 1564 427 1564 456.5 1592 c 128,-1,16
 486 1620 486 1620 527 1634.5 c 128,-1,17
 568 1649 568 1649 618 1649 c 0,18,19
 667 1649 667 1649 709 1634.5 c 128,-1,20
 751 1620 751 1620 782 1592.5 c 128,-1,21
 813 1565 813 1565 830.5 1525.5 c 128,-1,22
 848 1486 848 1486 848 1436 c 0,0,1
836 557 m 1,23,-1
 688 938 l 2,24,25
 682 954 682 954 673.5 977 c 128,-1,26
 665 1000 665 1000 656 1027 c 128,-1,27
 647 1054 647 1054 638 1083.5 c 128,-1,28
 629 1113 629 1113 621 1141 c 1,29,30
 614 1113 614 1113 605 1083 c 128,-1,31
 596 1053 596 1053 587 1026 c 128,-1,32
 578 999 578 999 569.5 976 c 128,-1,33
 561 953 561 953 555 938 c 2,34,-1
 410 557 l 1,35,-1
 836 557 l 1,23,-1
543 1720 m 1,36,37
 564 1744 564 1744 588 1774.5 c 128,-1,38
 612 1805 612 1805 635.5 1837.5 c 128,-1,39
 659 1870 659 1870 680 1902 c 128,-1,40
 701 1934 701 1934 717 1962 c 1,41,-1
 936 1962 l 1,42,-1
 936 1946 l 1,43,44
 920 1924 920 1924 888.5 1891.5 c 128,-1,45
 857 1859 857 1859 818.5 1823.5 c 128,-1,46
 780 1788 780 1788 739.5 1755 c 128,-1,47
 699 1722 699 1722 664 1700 c 1,48,-1
 543 1700 l 1,49,-1
 543 1720 l 1,36,37
731 1434 m 0,50,51
 731 1486 731 1486 699.5 1516 c 128,-1,52
 668 1546 668 1546 618 1546 c 0,53,54
 569 1546 569 1546 537.5 1516 c 128,-1,55
 506 1486 506 1486 506 1434 c 0,56,57
 506 1383 506 1383 531.5 1353.5 c 128,-1,58
 557 1324 557 1324 606 1321 c 1,59,-1
 618 1321 l 2,60,61
 668 1321 668 1321 699.5 1351 c 128,-1,62
 731 1381 731 1381 731 1434 c 0,50,51
EndSplineSet
EndChar

StartChar: aringacute
Encoding: 507 507 324
Width: 1087
GlyphClass: 2
Flags: W
LayerCount: 2
Fore
SplineSet
455 1720 m 1,0,1
 476 1744 476 1744 500 1774.5 c 128,-1,2
 524 1805 524 1805 547.5 1837.5 c 128,-1,3
 571 1870 571 1870 592 1902 c 128,-1,4
 613 1934 613 1934 629 1962 c 1,5,-1
 848 1962 l 1,6,-1
 848 1946 l 1,7,8
 832 1924 832 1924 800.5 1891.5 c 128,-1,9
 769 1859 769 1859 730.5 1823.5 c 128,-1,10
 692 1788 692 1788 651 1755 c 128,-1,11
 610 1722 610 1722 575 1700 c 1,12,-1
 455 1700 l 1,13,-1
 455 1720 l 1,0,1
793 0 m 1,14,-1
 756 152 l 1,15,-1
 748 152 l 1,16,17
 715 107 715 107 682 74.5 c 128,-1,18
 649 42 649 42 610 21 c 128,-1,19
 571 0 571 0 523 -10 c 128,-1,20
 475 -20 475 -20 412 -20 c 0,21,22
 343 -20 343 -20 285 -0.5 c 128,-1,23
 227 19 227 19 184.5 59.5 c 128,-1,24
 142 100 142 100 118 161.5 c 128,-1,25
 94 223 94 223 94 307 c 0,26,27
 94 471 94 471 209.5 559 c 128,-1,28
 325 647 325 647 561 655 c 2,29,-1
 745 662 l 1,30,-1
 745 731 l 2,31,32
 745 798 745 798 730.5 843 c 128,-1,33
 716 888 716 888 688.5 915.5 c 128,-1,34
 661 943 661 943 620.5 955 c 128,-1,35
 580 967 580 967 528 967 c 0,36,37
 445 967 445 967 373.5 943 c 128,-1,38
 302 919 302 919 236 885 c 1,39,-1
 172 1022 l 1,40,41
 246 1062 246 1062 337 1090 c 128,-1,42
 428 1118 428 1118 528 1118 c 0,43,44
 630 1118 630 1118 704.5 1097.5 c 128,-1,45
 779 1077 779 1077 827.5 1032.5 c 128,-1,46
 876 988 876 988 900 919 c 128,-1,47
 924 850 924 850 924 752 c 2,48,-1
 924 0 l 1,49,-1
 793 0 l 1,14,-1
459 127 m 0,50,51
 520 127 520 127 572 146 c 128,-1,52
 624 165 624 165 662 203.5 c 128,-1,53
 700 242 700 242 721.5 300.5 c 128,-1,54
 743 359 743 359 743 438 c 2,55,-1
 743 537 l 1,56,-1
 600 530 l 2,57,58
 510 526 510 526 449 510 c 128,-1,59
 388 494 388 494 351.5 465.5 c 128,-1,60
 315 437 315 437 299 396.5 c 128,-1,61
 283 356 283 356 283 305 c 0,62,63
 283 213 283 213 331.5 170 c 128,-1,64
 380 127 380 127 459 127 c 0,50,51
770 1415 m 0,65,66
 770 1364 770 1364 752.5 1323.5 c 128,-1,67
 735 1283 735 1283 704.5 1255 c 128,-1,68
 674 1227 674 1227 632 1212.5 c 128,-1,69
 590 1198 590 1198 541 1198 c 0,70,71
 491 1198 491 1198 450 1212.5 c 128,-1,72
 409 1227 409 1227 379.5 1255 c 128,-1,73
 350 1283 350 1283 333.5 1322.5 c 128,-1,74
 317 1362 317 1362 317 1413 c 256,75,76
 317 1464 317 1464 333.5 1503.5 c 128,-1,77
 350 1543 350 1543 379.5 1571 c 128,-1,78
 409 1599 409 1599 450 1613.5 c 128,-1,79
 491 1628 491 1628 541 1628 c 0,80,81
 589 1628 589 1628 631 1613.5 c 128,-1,82
 673 1599 673 1599 704 1571.5 c 128,-1,83
 735 1544 735 1544 752.5 1504.5 c 128,-1,84
 770 1465 770 1465 770 1415 c 0,65,66
653 1413 m 256,85,86
 653 1466 653 1466 621.5 1496 c 128,-1,87
 590 1526 590 1526 541 1526 c 0,88,89
 491 1526 491 1526 459.5 1496 c 128,-1,90
 428 1466 428 1466 428 1413 c 256,91,92
 428 1360 428 1360 456.5 1330 c 128,-1,93
 485 1300 485 1300 541 1300 c 0,94,95
 590 1300 590 1300 621.5 1330 c 128,-1,96
 653 1360 653 1360 653 1413 c 256,85,86
EndSplineSet
EndChar

StartChar: circumflex
Encoding: 710 710 331
Width: 1182
GlyphClass: 2
Flags: W
LayerCount: 2
Fore
SplineSet
922 1241 m 1,0,-1
 801 1241 l 1,1,2
 750 1275 750 1275 696 1323.5 c 128,-1,3
 642 1372 642 1372 590 1427 c 1,4,5
 536 1372 536 1372 483 1323.5 c 128,-1,6
 430 1275 430 1275 379 1241 c 1,7,-1
 258 1241 l 1,8,-1
 258 1268 l 1,9,10
 284 1297 284 1297 318 1335 c 128,-1,11
 352 1373 352 1373 385.5 1413.5 c 128,-1,12
 419 1454 419 1454 448.5 1494.5 c 128,-1,13
 478 1535 478 1535 494 1569 c 1,14,-1
 686 1569 l 1,15,16
 702 1535 702 1535 731.5 1494.5 c 128,-1,17
 761 1454 761 1454 794.5 1413.5 c 128,-1,18
 828 1373 828 1373 862.5 1335 c 128,-1,19
 897 1297 897 1297 922 1268 c 1,20,-1
 922 1241 l 1,0,-1
EndSplineSet
EndChar

StartChar: caron
Encoding: 711 711 332
Width: 1182
GlyphClass: 2
Flags: W
LayerCount: 2
Fore
SplineSet
922 1542 m 1,0,1
 897 1513 897 1513 862.5 1475 c 128,-1,2
 828 1437 828 1437 794.5 1396.5 c 128,-1,3
 761 1356 761 1356 731.5 1316 c 128,-1,4
 702 1276 702 1276 686 1241 c 1,5,-1
 494 1241 l 1,6,7
 478 1276 478 1276 448.5 1316 c 128,-1,8
 419 1356 419 1356 385.5 1396.5 c 128,-1,9
 352 1437 352 1437 318 1475 c 128,-1,10
 284 1513 284 1513 258 1542 c 1,11,-1
 258 1569 l 1,12,-1
 379 1569 l 1,13,14
 430 1535 430 1535 483 1486.5 c 128,-1,15
 536 1438 536 1438 590 1382 c 1,16,17
 642 1438 642 1438 696 1486.5 c 128,-1,18
 750 1535 750 1535 801 1569 c 1,19,-1
 922 1569 l 1,20,-1
 922 1542 l 1,0,1
EndSplineSet
EndChar

StartChar: macron
Encoding: 713 713 333
Width: 1141
GlyphClass: 2
Flags: W
LayerCount: 2
Fore
SplineSet
283 1391 m 1,0,-1
 858 1391 l 1,1,-1
 858 1241 l 1,2,-1
 283 1241 l 1,3,-1
 283 1391 l 1,0,-1
EndSplineSet
EndChar

StartChar: breve
Encoding: 728 728 334
Width: 1182
GlyphClass: 2
Flags: W
LayerCount: 2
Fore
SplineSet
891 1518 m 1,0,1
 887 1457 887 1457 865 1406.5 c 128,-1,2
 843 1356 843 1356 804.5 1319 c 128,-1,3
 766 1282 766 1282 711.5 1261.5 c 128,-1,4
 657 1241 657 1241 586 1241 c 0,5,6
 513 1241 513 1241 458.5 1260.5 c 128,-1,7
 404 1280 404 1280 367.5 1316.5 c 128,-1,8
 331 1353 331 1353 311.5 1404 c 128,-1,9
 292 1455 292 1455 289 1518 c 1,10,-1
 397 1518 l 1,11,12
 401 1475 401 1475 415 1450 c 128,-1,13
 429 1425 429 1425 453 1412.5 c 128,-1,14
 477 1400 477 1400 510.5 1396.5 c 128,-1,15
 544 1393 544 1393 588 1393 c 0,16,17
 624 1393 624 1393 656.5 1397.5 c 128,-1,18
 689 1402 689 1402 714.5 1415.5 c 128,-1,19
 740 1429 740 1429 757 1453.5 c 128,-1,20
 774 1478 774 1478 778 1518 c 1,21,-1
 891 1518 l 1,0,1
EndSplineSet
EndChar

StartChar: dotaccent
Encoding: 729 729 335
Width: 530
GlyphClass: 2
Flags: W
LayerCount: 2
Fore
SplineSet
160 1395 m 0,0,1
 160 1455 160 1455 190.5 1482 c 128,-1,2
 221 1509 221 1509 266 1509 c 0,3,4
 288 1509 288 1509 307.5 1502.5 c 128,-1,5
 327 1496 327 1496 341.5 1482 c 128,-1,6
 356 1468 356 1468 364.5 1446.5 c 128,-1,7
 373 1425 373 1425 373 1395 c 0,8,9
 373 1337 373 1337 341.5 1308.5 c 128,-1,10
 310 1280 310 1280 266 1280 c 0,11,12
 221 1280 221 1280 190.5 1308 c 128,-1,13
 160 1336 160 1336 160 1395 c 0,0,1
EndSplineSet
EndChar

StartChar: ring
Encoding: 730 730 336
Width: 1182
GlyphClass: 2
Flags: W
LayerCount: 2
Fore
SplineSet
817 1458 m 0,0,1
 817 1407 817 1407 799.5 1366.5 c 128,-1,2
 782 1326 782 1326 751.5 1298 c 128,-1,3
 721 1270 721 1270 679 1255.5 c 128,-1,4
 637 1241 637 1241 588 1241 c 0,5,6
 538 1241 538 1241 497 1255.5 c 128,-1,7
 456 1270 456 1270 426.5 1298 c 128,-1,8
 397 1326 397 1326 381 1365.5 c 128,-1,9
 365 1405 365 1405 365 1456 c 256,10,11
 365 1507 365 1507 381 1546.5 c 128,-1,12
 397 1586 397 1586 426.5 1614 c 128,-1,13
 456 1642 456 1642 497 1656.5 c 128,-1,14
 538 1671 538 1671 588 1671 c 0,15,16
 636 1671 636 1671 678 1656.5 c 128,-1,17
 720 1642 720 1642 751 1614.5 c 128,-1,18
 782 1587 782 1587 799.5 1547.5 c 128,-1,19
 817 1508 817 1508 817 1458 c 0,0,1
700 1456 m 256,20,21
 700 1509 700 1509 668.5 1539 c 128,-1,22
 637 1569 637 1569 588 1569 c 0,23,24
 538 1569 538 1569 506.5 1539 c 128,-1,25
 475 1509 475 1509 475 1456 c 256,26,27
 475 1403 475 1403 503.5 1373 c 128,-1,28
 532 1343 532 1343 588 1343 c 0,29,30
 637 1343 637 1343 668.5 1373 c 128,-1,31
 700 1403 700 1403 700 1456 c 256,20,21
EndSplineSet
EndChar

StartChar: ogonek
Encoding: 731 731 337
Width: 379
GlyphClass: 2
Flags: W
LayerCount: 2
Fore
SplineSet
180 -238 m 0,0,1
 180 -283 180 -283 206 -304.5 c 128,-1,2
 232 -326 232 -326 266 -326 c 0,3,4
 291 -326 291 -326 313.5 -323.5 c 128,-1,5
 336 -321 336 -321 350 -317 c 1,6,-1
 350 -430 l 1,7,8
 324 -438 324 -438 292 -442 c 128,-1,9
 260 -446 260 -446 231 -446 c 0,10,11
 131 -446 131 -446 81 -394 c 128,-1,12
 31 -342 31 -342 31 -252 c 0,13,14
 31 -210 31 -210 46 -172.5 c 128,-1,15
 61 -135 61 -135 84.5 -103 c 128,-1,16
 108 -71 108 -71 136 -45 c 128,-1,17
 164 -19 164 -19 190 0 c 1,18,-1
 319 0 l 1,19,20
 180 -133 180 -133 180 -238 c 0,0,1
EndSplineSet
EndChar

StartChar: tilde
Encoding: 732 732 338
Width: 1182
GlyphClass: 2
Flags: W
LayerCount: 2
Fore
SplineSet
766 1243 m 0,0,1
 726 1243 726 1243 686.5 1260.5 c 128,-1,2
 647 1278 647 1278 609 1299.5 c 128,-1,3
 571 1321 571 1321 536 1338.5 c 128,-1,4
 501 1356 501 1356 469 1356 c 0,5,6
 424 1356 424 1356 400 1329.5 c 128,-1,7
 376 1303 376 1303 362 1241 c 1,8,-1
 258 1241 l 1,9,10
 263 1301 263 1301 279.5 1350 c 128,-1,11
 296 1399 296 1399 322.5 1433.5 c 128,-1,12
 349 1468 349 1468 386 1486.5 c 128,-1,13
 423 1505 423 1505 469 1505 c 0,14,15
 511 1505 511 1505 551.5 1487.5 c 128,-1,16
 592 1470 592 1470 630 1449 c 128,-1,17
 668 1428 668 1428 702.5 1410.5 c 128,-1,18
 737 1393 737 1393 766 1393 c 0,19,20
 811 1393 811 1393 834 1419 c 128,-1,21
 857 1445 857 1445 872 1507 c 1,22,-1
 977 1507 l 1,23,24
 972 1447 972 1447 955.5 1398.5 c 128,-1,25
 939 1350 939 1350 912.5 1315.5 c 128,-1,26
 886 1281 886 1281 849 1262 c 128,-1,27
 812 1243 812 1243 766 1243 c 0,0,1
EndSplineSet
EndChar

StartChar: hungarumlaut
Encoding: 733 733 339
Width: 1182
GlyphClass: 2
Flags: W
LayerCount: 2
Fore
SplineSet
223 1268 m 1,0,1
 245 1297 245 1297 268.5 1335 c 128,-1,2
 292 1373 292 1373 315.5 1413.5 c 128,-1,3
 339 1454 339 1454 360 1494.5 c 128,-1,4
 381 1535 381 1535 397 1569 c 1,5,-1
 596 1569 l 1,6,-1
 596 1548 l 1,7,8
 580 1521 580 1521 548.5 1480.5 c 128,-1,9
 517 1440 517 1440 478.5 1396 c 128,-1,10
 440 1352 440 1352 399.5 1310.5 c 128,-1,11
 359 1269 359 1269 324 1241 c 1,12,-1
 223 1241 l 1,13,-1
 223 1268 l 1,0,1
586 1268 m 1,14,15
 607 1297 607 1297 631 1335 c 128,-1,16
 655 1373 655 1373 678.5 1413.5 c 128,-1,17
 702 1454 702 1454 723 1494.5 c 128,-1,18
 744 1535 744 1535 760 1569 c 1,19,-1
 958 1569 l 1,20,-1
 958 1548 l 1,21,22
 942 1521 942 1521 910.5 1480.5 c 128,-1,23
 879 1440 879 1440 840.5 1396 c 128,-1,24
 802 1352 802 1352 761.5 1310.5 c 128,-1,25
 721 1269 721 1269 686 1241 c 1,26,-1
 586 1241 l 1,27,-1
 586 1268 l 1,14,15
EndSplineSet
EndChar

StartChar: tonos
Encoding: 900 900 340
Width: 1182
GlyphClass: 2
Flags: W
LayerCount: 2
Fore
SplineSet
504 1268 m 1,0,1
 514 1298 514 1298 524 1336.5 c 128,-1,2
 534 1375 534 1375 543.5 1415.5 c 128,-1,3
 553 1456 553 1456 561 1496 c 128,-1,4
 569 1536 569 1536 573 1569 c 1,5,-1
 772 1569 l 1,6,-1
 772 1548 l 1,7,8
 766 1524 766 1524 749.5 1485 c 128,-1,9
 733 1446 733 1446 710.5 1402.5 c 128,-1,10
 688 1359 688 1359 662 1316 c 128,-1,11
 636 1273 636 1273 612 1241 c 1,12,-1
 504 1241 l 1,13,-1
 504 1268 l 1,0,1
EndSplineSet
EndChar

StartChar: dieresistonos
Encoding: 901 901 341
Width: 1182
GlyphClass: 2
Flags: W
LayerCount: 2
Fore
SplineSet
510 1415 m 1,0,1
 521 1445 521 1445 533.5 1482.5 c 128,-1,2
 546 1520 546 1520 558 1559.5 c 128,-1,3
 570 1599 570 1599 581 1639.5 c 128,-1,4
 592 1680 592 1680 600 1716 c 1,5,-1
 807 1716 l 1,6,-1
 807 1696 l 1,7,8
 789 1664 789 1664 765 1625.5 c 128,-1,9
 741 1587 741 1587 713 1547 c 128,-1,10
 685 1507 685 1507 654.5 1466.5 c 128,-1,11
 624 1426 624 1426 592 1389 c 1,12,-1
 510 1389 l 1,13,-1
 510 1415 l 1,0,1
276 1395 m 0,14,15
 276 1449 276 1449 304 1473 c 128,-1,16
 332 1497 332 1497 373 1497 c 0,17,18
 392 1497 392 1497 409.5 1491 c 128,-1,19
 427 1485 427 1485 440 1472.5 c 128,-1,20
 453 1460 453 1460 461 1441 c 128,-1,21
 469 1422 469 1422 469 1395 c 0,22,23
 469 1342 469 1342 440 1317 c 128,-1,24
 411 1292 411 1292 373 1292 c 0,25,26
 332 1292 332 1292 304 1317 c 128,-1,27
 276 1342 276 1342 276 1395 c 0,14,15
713 1395 m 0,28,29
 713 1449 713 1449 741 1473 c 128,-1,30
 769 1497 769 1497 809 1497 c 0,31,32
 828 1497 828 1497 845.5 1491 c 128,-1,33
 863 1485 863 1485 876 1472.5 c 128,-1,34
 889 1460 889 1460 897 1441 c 128,-1,35
 905 1422 905 1422 905 1395 c 0,36,37
 905 1342 905 1342 876 1317 c 128,-1,38
 847 1292 847 1292 809 1292 c 0,39,40
 769 1292 769 1292 741 1317 c 128,-1,41
 713 1342 713 1342 713 1395 c 0,28,29
EndSplineSet
EndChar

StartChar: anoteleia
Encoding: 903 903 343
Width: 549
GlyphClass: 2
Flags: W
LayerCount: 2
Fore
SplineSet
147 723 m 0,0,1
 147 761 147 761 157 787.5 c 128,-1,2
 167 814 167 814 184 830.5 c 128,-1,3
 201 847 201 847 224 854.5 c 128,-1,4
 247 862 247 862 274 862 c 0,5,6
 300 862 300 862 323.5 854.5 c 128,-1,7
 347 847 347 847 364 830.5 c 128,-1,8
 381 814 381 814 391 787.5 c 128,-1,9
 401 761 401 761 401 723 c 0,10,11
 401 686 401 686 391 660 c 128,-1,12
 381 634 381 634 364 617 c 128,-1,13
 347 600 347 600 323.5 592 c 128,-1,14
 300 584 300 584 274 584 c 0,15,16
 247 584 247 584 224 592 c 128,-1,17
 201 600 201 600 184 617 c 128,-1,18
 167 634 167 634 157 660 c 128,-1,19
 147 686 147 686 147 723 c 0,0,1
EndSplineSet
EndChar

StartChar: Gamma
Encoding: 915 915 353
Width: 1006
GlyphClass: 2
Flags: W
LayerCount: 2
Fore
SplineSet
958 1462 m 1,0,-1
 958 1296 l 1,1,-1
 385 1296 l 1,2,-1
 385 0 l 1,3,-1
 199 0 l 1,4,-1
 199 1462 l 1,5,-1
 958 1462 l 1,0,-1
EndSplineSet
EndChar

StartChar: uni0394
Encoding: 916 916 354
Width: 1163
GlyphClass: 2
Flags: W
LayerCount: 2
Fore
SplineSet
1128 125 m 1,0,-1
 1128 0 l 1,1,-1
 37 0 l 1,2,-1
 37 133 l 1,3,-1
 487 1462 l 1,4,-1
 674 1462 l 1,5,-1
 1128 125 l 1,0,-1
580 1257 m 1,6,7
 563 1183 563 1183 542 1099 c 128,-1,8
 521 1015 521 1015 492 924 c 1,9,-1
 238 166 l 1,10,-1
 924 166 l 1,11,-1
 672 918 l 1,12,13
 641 1015 641 1015 618 1099 c 128,-1,14
 595 1183 595 1183 580 1257 c 1,6,7
EndSplineSet
EndChar

StartChar: Theta
Encoding: 920 920 358
Width: 1520
GlyphClass: 2
Flags: W
LayerCount: 2
Fore
SplineSet
492 825 m 1,0,-1
 1026 825 l 1,1,-1
 1026 664 l 1,2,-1
 492 664 l 1,3,-1
 492 825 l 1,0,-1
1393 733 m 0,4,5
 1393 564 1393 564 1352.5 425 c 128,-1,6
 1312 286 1312 286 1232 187 c 128,-1,7
 1152 88 1152 88 1033.5 34 c 128,-1,8
 915 -20 915 -20 760 -20 c 0,9,10
 597 -20 597 -20 477.5 34 c 128,-1,11
 358 88 358 88 279.5 187 c 128,-1,12
 201 286 201 286 163 425.5 c 128,-1,13
 125 565 125 565 125 735 c 256,14,15
 125 905 125 905 163 1043.5 c 128,-1,16
 201 1182 201 1182 280 1280 c 128,-1,17
 359 1378 359 1378 479 1431.5 c 128,-1,18
 599 1485 599 1485 762 1485 c 0,19,20
 917 1485 917 1485 1034.5 1431.5 c 128,-1,21
 1152 1378 1152 1378 1232 1279.5 c 128,-1,22
 1312 1181 1312 1181 1352.5 1042.5 c 128,-1,23
 1393 904 1393 904 1393 733 c 0,4,5
322 733 m 0,24,25
 322 596 322 596 348 486.5 c 128,-1,26
 374 377 374 377 427.5 300.5 c 128,-1,27
 481 224 481 224 563.5 183.5 c 128,-1,28
 646 143 646 143 760 143 c 256,29,30
 874 143 874 143 956.5 183.5 c 128,-1,31
 1039 224 1039 224 1092.5 300.5 c 128,-1,32
 1146 377 1146 377 1171 486.5 c 128,-1,33
 1196 596 1196 596 1196 733 c 0,34,35
 1196 871 1196 871 1171 980 c 128,-1,36
 1146 1089 1146 1089 1093 1164.5 c 128,-1,37
 1040 1240 1040 1240 958 1280.5 c 128,-1,38
 876 1321 876 1321 762 1321 c 256,39,40
 648 1321 648 1321 565 1280.5 c 128,-1,41
 482 1240 482 1240 428 1164.5 c 128,-1,42
 374 1089 374 1089 348 980 c 128,-1,43
 322 871 322 871 322 733 c 0,24,25
EndSplineSet
EndChar

StartChar: Lambda
Encoding: 923 923 361
Width: 1163
GlyphClass: 2
Flags: W
LayerCount: 2
Fore
SplineSet
1163 0 m 1,0,-1
 965 0 l 1,1,-1
 672 922 l 2,2,3
 641 1019 641 1019 618 1103 c 128,-1,4
 595 1187 595 1187 580 1262 c 1,5,6
 563 1187 563 1187 542 1103 c 128,-1,7
 521 1019 521 1019 492 928 c 2,8,-1
 197 0 l 1,9,-1
 0 0 l 1,10,-1
 487 1462 l 1,11,-1
 674 1462 l 1,12,-1
 1163 0 l 1,0,-1
EndSplineSet
EndChar

StartChar: Xi
Encoding: 926 926 364
Width: 1087
GlyphClass: 2
Flags: W
LayerCount: 2
Fore
SplineSet
205 846 m 1,0,-1
 883 846 l 1,1,-1
 883 684 l 1,2,-1
 205 684 l 1,3,-1
 205 846 l 1,0,-1
123 1462 m 1,4,-1
 965 1462 l 1,5,-1
 965 1298 l 1,6,-1
 123 1298 l 1,7,-1
 123 1462 l 1,4,-1
1006 164 m 1,8,-1
 1006 0 l 1,9,-1
 82 0 l 1,10,-1
 82 164 l 1,11,-1
 1006 164 l 1,8,-1
EndSplineSet
EndChar

StartChar: Pi
Encoding: 928 928 366
Width: 1415
GlyphClass: 2
Flags: W
LayerCount: 2
Fore
SplineSet
1217 0 m 1,0,-1
 1030 0 l 1,1,-1
 1030 1298 l 1,2,-1
 385 1298 l 1,3,-1
 385 0 l 1,4,-1
 199 0 l 1,5,-1
 199 1462 l 1,6,-1
 1217 1462 l 1,7,-1
 1217 0 l 1,0,-1
EndSplineSet
EndChar

StartChar: Sigma
Encoding: 931 931 368
Width: 1090
GlyphClass: 2
Flags: W
LayerCount: 2
Fore
SplineSet
78 0 m 1,0,-1
 78 152 l 1,1,-1
 492 766 l 1,2,-1
 90 1315 l 1,3,-1
 90 1462 l 1,4,-1
 983 1462 l 1,5,-1
 983 1298 l 1,6,-1
 303 1298 l 1,7,-1
 692 768 l 1,8,-1
 283 164 l 1,9,-1
 1042 164 l 1,10,-1
 1042 0 l 1,11,-1
 78 0 l 1,0,-1
EndSplineSet
EndChar

StartChar: Phi
Encoding: 934 934 371
Width: 1571
GlyphClass: 2
Flags: W
LayerCount: 2
Fore
SplineSet
692 1483 m 1,0,-1
 879 1483 l 1,1,-1
 879 1303 l 1,2,-1
 952 1303 l 2,3,4
 1086 1303 1086 1303 1183 1256 c 128,-1,5
 1280 1209 1280 1209 1343 1132.5 c 128,-1,6
 1406 1056 1406 1056 1436 958 c 128,-1,7
 1466 860 1466 860 1466 758 c 0,8,9
 1466 697 1466 697 1454 632.5 c 128,-1,10
 1442 568 1442 568 1416 506.5 c 128,-1,11
 1390 445 1390 445 1348 390 c 128,-1,12
 1306 335 1306 335 1246 294 c 128,-1,13
 1186 253 1186 253 1106.5 229 c 128,-1,14
 1027 205 1027 205 926 205 c 2,15,-1
 879 205 l 1,16,-1
 879 -20 l 1,17,-1
 692 -20 l 1,18,-1
 692 205 l 1,19,-1
 645 205 l 2,20,21
 544 205 544 205 464.5 229 c 128,-1,22
 385 253 385 253 325 294 c 128,-1,23
 265 335 265 335 223 390 c 128,-1,24
 181 445 181 445 154.5 506.5 c 128,-1,25
 128 568 128 568 116 632.5 c 128,-1,26
 104 697 104 697 104 758 c 0,27,28
 104 860 104 860 134.5 958 c 128,-1,29
 165 1056 165 1056 228 1132.5 c 128,-1,30
 291 1209 291 1209 388 1256 c 128,-1,31
 485 1303 485 1303 618 1303 c 2,32,-1
 692 1303 l 1,33,-1
 692 1483 l 1,0,-1
879 362 m 1,34,-1
 905 362 l 2,35,36
 998 362 998 362 1067.5 391.5 c 128,-1,37
 1137 421 1137 421 1182.5 473.5 c 128,-1,38
 1228 526 1228 526 1251 600 c 128,-1,39
 1274 674 1274 674 1274 762 c 0,40,41
 1274 840 1274 840 1253.5 909.5 c 128,-1,42
 1233 979 1233 979 1191.5 1031 c 128,-1,43
 1150 1083 1150 1083 1086.5 1113 c 128,-1,44
 1023 1143 1023 1143 936 1143 c 2,45,-1
 879 1143 l 1,46,-1
 879 362 l 1,34,-1
692 1143 m 1,47,-1
 635 1143 l 2,48,49
 548 1143 548 1143 484.5 1113 c 128,-1,50
 421 1083 421 1083 379 1031 c 128,-1,51
 337 979 337 979 317 909.5 c 128,-1,52
 297 840 297 840 297 762 c 0,53,54
 297 674 297 674 320 600 c 128,-1,55
 343 526 343 526 388.5 473.5 c 128,-1,56
 434 421 434 421 503.5 391.5 c 128,-1,57
 573 362 573 362 666 362 c 2,58,-1
 692 362 l 1,59,-1
 692 1143 l 1,47,-1
EndSplineSet
EndChar

StartChar: Psi
Encoding: 936 936 373
Width: 1571
GlyphClass: 2
Flags: W
LayerCount: 2
Fore
SplineSet
1466 983 m 2,0,1
 1466 922 1466 922 1454 858.5 c 128,-1,2
 1442 795 1442 795 1416 735.5 c 128,-1,3
 1390 676 1390 676 1348 623 c 128,-1,4
 1306 570 1306 570 1246 531 c 128,-1,5
 1186 492 1186 492 1106.5 469 c 128,-1,6
 1027 446 1027 446 926 446 c 2,7,-1
 879 446 l 1,8,-1
 879 0 l 1,9,-1
 692 0 l 1,10,-1
 692 446 l 1,11,-1
 645 446 l 2,12,13
 544 446 544 446 464.5 468.5 c 128,-1,14
 385 491 385 491 325 530 c 128,-1,15
 265 569 265 569 223 621 c 128,-1,16
 181 673 181 673 154.5 732.5 c 128,-1,17
 128 792 128 792 116 855 c 128,-1,18
 104 918 104 918 104 979 c 2,19,-1
 104 1462 l 1,20,-1
 297 1462 l 1,21,-1
 297 983 l 2,22,23
 297 895 297 895 320 824.5 c 128,-1,24
 343 754 343 754 388.5 705 c 128,-1,25
 434 656 434 656 503.5 630 c 128,-1,26
 573 604 573 604 666 604 c 2,27,-1
 692 604 l 1,28,-1
 692 1462 l 1,29,-1
 879 1462 l 1,30,-1
 879 604 l 1,31,-1
 905 604 l 2,32,33
 1091 604 1091 604 1182.5 703 c 128,-1,34
 1274 802 1274 802 1274 979 c 2,35,-1
 1274 1462 l 1,36,-1
 1466 1462 l 1,37,-1
 1466 983 l 2,0,1
EndSplineSet
EndChar

StartChar: uni03A9
Encoding: 937 937 374
Width: 1520
GlyphClass: 2
Flags: W
LayerCount: 2
Fore
SplineSet
762 1321 m 256,0,1
 648 1321 648 1321 566 1287 c 128,-1,2
 484 1253 484 1253 431 1188.5 c 128,-1,3
 378 1124 378 1124 353 1031 c 128,-1,4
 328 938 328 938 328 821 c 0,5,6
 328 721 328 721 345.5 627.5 c 128,-1,7
 363 534 363 534 403.5 448.5 c 128,-1,8
 444 363 444 363 509.5 287.5 c 128,-1,9
 575 212 575 212 670 147 c 1,10,-1
 670 0 l 1,11,-1
 78 0 l 1,12,-1
 78 164 l 1,13,-1
 432 164 l 1,14,15
 368 212 368 212 312.5 279.5 c 128,-1,16
 257 347 257 347 217 431 c 128,-1,17
 177 515 177 515 154 614.5 c 128,-1,18
 131 714 131 714 131 825 c 0,19,20
 131 975 131 975 171.5 1097 c 128,-1,21
 212 1219 212 1219 292 1305 c 128,-1,22
 372 1391 372 1391 490 1438 c 128,-1,23
 608 1485 608 1485 762 1485 c 0,24,25
 917 1485 917 1485 1034.5 1438 c 128,-1,26
 1152 1391 1152 1391 1232 1305 c 128,-1,27
 1312 1219 1312 1219 1352.5 1097 c 128,-1,28
 1393 975 1393 975 1393 825 c 0,29,30
 1393 714 1393 714 1370 614.5 c 128,-1,31
 1347 515 1347 515 1307 431 c 128,-1,32
 1267 347 1267 347 1212 279.5 c 128,-1,33
 1157 212 1157 212 1092 164 c 1,34,-1
 1446 164 l 1,35,-1
 1446 0 l 1,36,-1
 854 0 l 1,37,-1
 854 147 l 1,38,39
 949 212 949 212 1014.5 287.5 c 128,-1,40
 1080 363 1080 363 1120.5 448.5 c 128,-1,41
 1161 534 1161 534 1178.5 627.5 c 128,-1,42
 1196 721 1196 721 1196 821 c 0,43,44
 1196 938 1196 938 1171 1031 c 128,-1,45
 1146 1124 1146 1124 1093 1188.5 c 128,-1,46
 1040 1253 1040 1253 958 1287 c 128,-1,47
 876 1321 876 1321 762 1321 c 256,0,1
EndSplineSet
EndChar

StartChar: alpha
Encoding: 945 945 382
Width: 1200
GlyphClass: 2
Flags: W
LayerCount: 2
Fore
SplineSet
565 131 m 0,0,1
 641 131 641 131 693.5 154.5 c 128,-1,2
 746 178 746 178 778.5 227 c 128,-1,3
 811 276 811 276 826.5 352 c 128,-1,4
 842 428 842 428 844 532 c 1,5,-1
 844 547 l 2,6,7
 844 648 844 648 830.5 726.5 c 128,-1,8
 817 805 817 805 784.5 858.5 c 128,-1,9
 752 912 752 912 698 939.5 c 128,-1,10
 644 967 644 967 563 967 c 0,11,12
 428 967 428 967 364.5 858 c 128,-1,13
 301 749 301 749 301 545 c 0,14,15
 301 336 301 336 364.5 233.5 c 128,-1,16
 428 131 428 131 565 131 c 0,0,1
530 -20 m 0,17,18
 437 -20 437 -20 360 16 c 128,-1,19
 283 52 283 52 228 123.5 c 128,-1,20
 173 195 173 195 143 301 c 128,-1,21
 113 407 113 407 113 547 c 0,22,23
 113 688 113 688 143.5 794.5 c 128,-1,24
 174 901 174 901 230.5 973 c 128,-1,25
 287 1045 287 1045 368 1081.5 c 128,-1,26
 449 1118 449 1118 549 1118 c 0,27,28
 661 1118 661 1118 733 1076.5 c 128,-1,29
 805 1035 805 1035 854 950 c 1,30,-1
 866 950 l 1,31,32
 876 985 876 985 892.5 1026 c 128,-1,33
 909 1067 909 1067 934 1098 c 1,34,-1
 1077 1098 l 1,35,36
 1066 1065 1066 1065 1056.5 1013 c 128,-1,37
 1047 961 1047 961 1040.5 900.5 c 128,-1,38
 1034 840 1034 840 1030 777 c 128,-1,39
 1026 714 1026 714 1026 659 c 2,40,-1
 1026 240 l 2,41,42
 1026 180 1026 180 1051 154.5 c 128,-1,43
 1076 129 1076 129 1110 129 c 0,44,45
 1124 129 1124 129 1142.5 132.5 c 128,-1,46
 1161 136 1161 136 1169 139 c 1,47,-1
 1169 6 l 1,48,49
 1154 -3 1154 -3 1121.5 -11.5 c 128,-1,50
 1089 -20 1089 -20 1055 -20 c 0,51,52
 1017 -20 1017 -20 985.5 -12 c 128,-1,53
 954 -4 954 -4 929 15.5 c 128,-1,54
 904 35 904 35 886 67 c 128,-1,55
 868 99 868 99 856 147 c 1,56,-1
 844 147 l 1,57,58
 822 113 822 113 792.5 82.5 c 128,-1,59
 763 52 763 52 724.5 29 c 128,-1,60
 686 6 686 6 638 -7 c 128,-1,61
 590 -20 590 -20 530 -20 c 0,17,18
EndSplineSet
EndChar

StartChar: beta
Encoding: 946 946 383
Width: 1233
GlyphClass: 2
Flags: W
LayerCount: 2
Fore
SplineSet
631 1567 m 0,0,1
 727 1567 727 1567 808.5 1542.5 c 128,-1,2
 890 1518 890 1518 949 1469 c 128,-1,3
 1008 1420 1008 1420 1041.5 1346 c 128,-1,4
 1075 1272 1075 1272 1075 1174 c 0,5,6
 1075 1025 1075 1025 999 938.5 c 128,-1,7
 923 852 923 852 780 829 c 1,8,-1
 780 823 l 1,9,10
 956 802 956 802 1048.5 701 c 128,-1,11
 1141 600 1141 600 1141 414 c 0,12,13
 1141 306 1141 306 1109.5 225 c 128,-1,14
 1078 144 1078 144 1018 89.5 c 128,-1,15
 958 35 958 35 871.5 7.5 c 128,-1,16
 785 -20 785 -20 676 -20 c 0,17,18
 580 -20 580 -20 498 -4 c 128,-1,19
 416 12 416 12 356 43 c 1,20,-1
 356 -492 l 1,21,-1
 174 -492 l 1,22,-1
 174 1096 l 2,23,24
 174 1219 174 1219 208.5 1308 c 128,-1,25
 243 1397 243 1397 303.5 1454.5 c 128,-1,26
 364 1512 364 1512 448 1539.5 c 128,-1,27
 532 1567 532 1567 631 1567 c 0,0,1
631 1417 m 0,28,29
 575 1417 575 1417 525 1401.5 c 128,-1,30
 475 1386 475 1386 437.5 1348 c 128,-1,31
 400 1310 400 1310 378 1246.5 c 128,-1,32
 356 1183 356 1183 356 1087 c 2,33,-1
 356 209 l 1,34,35
 388 191 388 191 427 176 c 128,-1,36
 466 161 466 161 507 150.5 c 128,-1,37
 548 140 548 140 589 134.5 c 128,-1,38
 630 129 630 129 666 129 c 0,39,40
 746 129 746 129 801.5 149 c 128,-1,41
 857 169 857 169 892 207.5 c 128,-1,42
 927 246 927 246 942.5 301.5 c 128,-1,43
 958 357 958 357 958 428 c 0,44,45
 958 508 958 508 931.5 566.5 c 128,-1,46
 905 625 905 625 857 663.5 c 128,-1,47
 809 702 809 702 743 720.5 c 128,-1,48
 677 739 677 739 598 739 c 2,49,-1
 496 739 l 1,50,-1
 496 891 l 1,51,-1
 573 891 l 2,52,53
 655 891 655 891 714.5 911 c 128,-1,54
 774 931 774 931 813 967.5 c 128,-1,55
 852 1004 852 1004 870.5 1055 c 128,-1,56
 889 1106 889 1106 889 1167 c 0,57,58
 889 1230 889 1230 870 1277 c 128,-1,59
 851 1324 851 1324 817 1355 c 128,-1,60
 783 1386 783 1386 735.5 1401.5 c 128,-1,61
 688 1417 688 1417 631 1417 c 0,28,29
EndSplineSet
EndChar

StartChar: gamma
Encoding: 947 947 384
Width: 1001
GlyphClass: 2
Flags: W
LayerCount: 2
Fore
SplineSet
608 18 m 2,0,1
 586 -44 586 -44 569 -112 c 128,-1,2
 552 -180 552 -180 540 -247 c 128,-1,3
 528 -314 528 -314 522 -377 c 128,-1,4
 516 -440 516 -440 516 -492 c 1,5,-1
 326 -492 l 1,6,7
 326 -450 326 -450 333.5 -389.5 c 128,-1,8
 341 -329 341 -329 354.5 -260.5 c 128,-1,9
 368 -192 368 -192 386.5 -121.5 c 128,-1,10
 405 -51 405 -51 426 12 c 1,11,-1
 10 1098 l 1,12,-1
 199 1098 l 1,13,-1
 416 516 l 2,14,15
 430 476 430 476 445 429.5 c 128,-1,16
 460 383 460 383 473 338 c 128,-1,17
 486 293 486 293 496 253 c 128,-1,18
 506 213 506 213 510 186 c 1,19,-1
 516 186 l 1,20,21
 521 212 521 212 531 253 c 128,-1,22
 541 294 541 294 553.5 340.5 c 128,-1,23
 566 387 566 387 579.5 432 c 128,-1,24
 593 477 593 477 604 510 c 2,25,-1
 803 1098 l 1,26,-1
 991 1098 l 1,27,-1
 608 18 l 2,0,1
EndSplineSet
EndChar

StartChar: delta
Encoding: 948 948 385
Width: 1182
GlyphClass: 2
Flags: W
LayerCount: 2
Fore
SplineSet
532 938 m 1,0,1
 476 970 476 970 429.5 1007.5 c 128,-1,2
 383 1045 383 1045 349.5 1088 c 128,-1,3
 316 1131 316 1131 297.5 1180 c 128,-1,4
 279 1229 279 1229 279 1286 c 0,5,6
 279 1358 279 1358 304.5 1410.5 c 128,-1,7
 330 1463 330 1463 376 1498 c 128,-1,8
 422 1533 422 1533 484.5 1550 c 128,-1,9
 547 1567 547 1567 621 1567 c 0,10,11
 689 1567 689 1567 745.5 1557 c 128,-1,12
 802 1547 802 1547 850 1531.5 c 128,-1,13
 898 1516 898 1516 938.5 1496.5 c 128,-1,14
 979 1477 979 1477 1014 1458 c 1,15,-1
 940 1313 l 1,16,17
 908 1333 908 1333 871.5 1352 c 128,-1,18
 835 1371 835 1371 794.5 1386 c 128,-1,19
 754 1401 754 1401 708.5 1410 c 128,-1,20
 663 1419 663 1419 612 1419 c 0,21,22
 570 1419 570 1419 540 1407.5 c 128,-1,23
 510 1396 510 1396 490.5 1377.5 c 128,-1,24
 471 1359 471 1359 462 1334 c 128,-1,25
 453 1309 453 1309 453 1282 c 0,26,27
 453 1245 453 1245 466.5 1214 c 128,-1,28
 480 1183 480 1183 510 1152.5 c 128,-1,29
 540 1122 540 1122 589 1089.5 c 128,-1,30
 638 1057 638 1057 709 1016 c 0,31,32
 794 967 794 967 861 913 c 128,-1,33
 928 859 928 859 974 796 c 128,-1,34
 1020 733 1020 733 1044.5 659.5 c 128,-1,35
 1069 586 1069 586 1069 498 c 0,36,37
 1069 371 1069 371 1034.5 274.5 c 128,-1,38
 1000 178 1000 178 936.5 112.5 c 128,-1,39
 873 47 873 47 784 13.5 c 128,-1,40
 695 -20 695 -20 586 -20 c 0,41,42
 483 -20 483 -20 396 10.5 c 128,-1,43
 309 41 309 41 245.5 99.5 c 128,-1,44
 182 158 182 158 146.5 243 c 128,-1,45
 111 328 111 328 111 438 c 0,46,47
 111 544 111 544 144.5 625.5 c 128,-1,48
 178 707 178 707 235 768 c 128,-1,49
 292 829 292 829 368.5 870.5 c 128,-1,50
 445 912 445 912 532 938 c 1,0,1
881 481 m 0,51,52
 881 550 881 550 866 605.5 c 128,-1,53
 851 661 851 661 822.5 705.5 c 128,-1,54
 794 750 794 750 753 786.5 c 128,-1,55
 712 823 712 823 659 854 c 1,56,57
 601 838 601 838 538 809 c 128,-1,58
 475 780 475 780 423 731 c 128,-1,59
 371 682 371 682 337 609.5 c 128,-1,60
 303 537 303 537 303 434 c 0,61,62
 303 368 303 368 322 312.5 c 128,-1,63
 341 257 341 257 377.5 216.5 c 128,-1,64
 414 176 414 176 466.5 153.5 c 128,-1,65
 519 131 519 131 586 131 c 0,66,67
 728 131 728 131 804.5 221 c 128,-1,68
 881 311 881 311 881 481 c 0,51,52
EndSplineSet
EndChar

StartChar: epsilon
Encoding: 949 949 386
Width: 928
GlyphClass: 2
Flags: W
LayerCount: 2
Fore
SplineSet
668 647 m 1,0,-1
 668 494 l 1,1,-1
 539 494 l 2,2,3
 401 494 401 494 334.5 448.5 c 128,-1,4
 268 403 268 403 268 309 c 0,5,6
 268 258 268 258 288.5 223.5 c 128,-1,7
 309 189 309 189 344 168 c 128,-1,8
 379 147 379 147 427 138 c 128,-1,9
 475 129 475 129 530 129 c 0,10,11
 581 129 581 129 627 136.5 c 128,-1,12
 673 144 673 144 713.5 156 c 128,-1,13
 754 168 754 168 789.5 183.5 c 128,-1,14
 825 199 825 199 856 215 c 1,15,-1
 856 55 l 1,16,17
 797 21 797 21 718 0.5 c 128,-1,18
 639 -20 639 -20 530 -20 c 0,19,20
 417 -20 417 -20 334 4.5 c 128,-1,21
 251 29 251 29 197 72 c 128,-1,22
 143 115 143 115 116.5 173.5 c 128,-1,23
 90 232 90 232 90 299 c 0,24,25
 90 361 90 361 109 405 c 128,-1,26
 128 449 128 449 159.5 480 c 128,-1,27
 191 511 191 511 232 531.5 c 128,-1,28
 273 552 273 552 317 567 c 1,29,-1
 317 578 l 1,30,31
 274 592 274 592 239 613.5 c 128,-1,32
 204 635 204 635 178.5 666 c 128,-1,33
 153 697 153 697 139 737 c 128,-1,34
 125 777 125 777 125 827 c 0,35,36
 125 897 125 897 154 951.5 c 128,-1,37
 183 1006 183 1006 235.5 1043 c 128,-1,38
 288 1080 288 1080 360 1099 c 128,-1,39
 432 1118 432 1118 518 1118 c 0,40,41
 571 1118 571 1118 616 1113.5 c 128,-1,42
 661 1109 661 1109 702 1099.5 c 128,-1,43
 743 1090 743 1090 781.5 1076 c 128,-1,44
 820 1062 820 1062 860 1042 c 1,45,-1
 797 895 l 1,46,47
 722 929 722 929 657.5 948 c 128,-1,48
 593 967 593 967 522 967 c 0,49,50
 414 967 414 967 356.5 928.5 c 128,-1,51
 299 890 299 890 299 813 c 0,52,53
 299 768 299 768 318.5 736 c 128,-1,54
 338 704 338 704 374 684.5 c 128,-1,55
 410 665 410 665 460 656 c 128,-1,56
 510 647 510 647 571 647 c 2,57,-1
 668 647 l 1,0,-1
EndSplineSet
EndChar

StartChar: zeta
Encoding: 950 950 387
Width: 932
GlyphClass: 2
Flags: W
LayerCount: 2
Fore
SplineSet
174 1403 m 1,0,-1
 174 1556 l 1,1,-1
 868 1556 l 1,2,-1
 868 1415 l 1,3,4
 740 1297 740 1297 648 1194.5 c 128,-1,5
 556 1092 556 1092 493 1002.5 c 128,-1,6
 430 913 430 913 392 836 c 128,-1,7
 354 759 354 759 334 692.5 c 128,-1,8
 314 626 314 626 307.5 570.5 c 128,-1,9
 301 515 301 515 301 467 c 0,10,11
 301 378 301 378 323.5 324 c 128,-1,12
 346 270 346 270 388 238 c 128,-1,13
 430 206 430 206 490 188.5 c 128,-1,14
 550 171 550 171 625 154 c 1,15,16
 696 139 696 139 743.5 116 c 128,-1,17
 791 93 791 93 820 63.5 c 128,-1,18
 849 34 849 34 861.5 -2 c 128,-1,19
 874 -38 874 -38 874 -80 c 0,20,21
 874 -125 874 -125 863.5 -169 c 128,-1,22
 853 -213 853 -213 836 -254 c 128,-1,23
 819 -295 819 -295 797.5 -332.5 c 128,-1,24
 776 -370 776 -370 754 -401 c 1,25,-1
 584 -401 l 1,26,27
 608 -369 608 -369 629.5 -333 c 128,-1,28
 651 -297 651 -297 668 -261 c 128,-1,29
 685 -225 685 -225 695 -191.5 c 128,-1,30
 705 -158 705 -158 705 -129 c 0,31,32
 705 -109 705 -109 698 -90.5 c 128,-1,33
 691 -72 691 -72 667 -55 c 128,-1,34
 643 -38 643 -38 597.5 -22.5 c 128,-1,35
 552 -7 552 -7 475 8 c 0,36,37
 386 25 386 25 318.5 58 c 128,-1,38
 251 91 251 91 205 145 c 128,-1,39
 159 199 159 199 136 275 c 128,-1,40
 113 351 113 351 113 453 c 0,41,42
 113 601 113 601 159 729.5 c 128,-1,43
 205 858 205 858 282 974 c 128,-1,44
 359 1090 359 1090 459.5 1198.5 c 128,-1,45
 560 1307 560 1307 668 1415 c 1,46,47
 625 1412 625 1412 578 1409 c 0,48,49
 538 1407 538 1407 490 1405 c 128,-1,50
 442 1403 442 1403 395 1403 c 2,51,-1
 174 1403 l 1,0,-1
EndSplineSet
EndChar

StartChar: eta
Encoding: 951 951 388
Width: 1206
GlyphClass: 2
Flags: W
LayerCount: 2
Fore
SplineSet
860 -492 m 1,0,-1
 860 707 l 2,1,2
 860 837 860 837 807.5 902 c 128,-1,3
 755 967 755 967 643 967 c 0,4,5
 562 967 562 967 507 941 c 128,-1,6
 452 915 452 915 418.5 864 c 128,-1,7
 385 813 385 813 370.5 739 c 128,-1,8
 356 665 356 665 356 569 c 2,9,-1
 356 0 l 1,10,-1
 174 0 l 1,11,-1
 174 1098 l 1,12,-1
 322 1098 l 1,13,-1
 348 950 l 1,14,-1
 358 950 l 1,15,16
 383 993 383 993 417.5 1024.5 c 128,-1,17
 452 1056 452 1056 493 1077 c 128,-1,18
 534 1098 534 1098 580 1108 c 128,-1,19
 626 1118 626 1118 674 1118 c 0,20,21
 857 1118 857 1118 949.5 1022.5 c 128,-1,22
 1042 927 1042 927 1042 717 c 2,23,-1
 1042 -492 l 1,24,-1
 860 -492 l 1,0,-1
EndSplineSet
EndChar

StartChar: theta
Encoding: 952 952 389
Width: 1159
GlyphClass: 2
Flags: W
LayerCount: 2
Fore
SplineSet
1047 780 m 0,0,1
 1047 592 1047 592 1021 443.5 c 128,-1,2
 995 295 995 295 939 192 c 128,-1,3
 883 89 883 89 793.5 34.5 c 128,-1,4
 704 -20 704 -20 578 -20 c 0,5,6
 460 -20 460 -20 372.5 34.5 c 128,-1,7
 285 89 285 89 227 192 c 128,-1,8
 169 295 169 295 141 443.5 c 128,-1,9
 113 592 113 592 113 780 c 256,10,11
 113 968 113 968 138.5 1116.5 c 128,-1,12
 164 1265 164 1265 219.5 1368 c 128,-1,13
 275 1471 275 1471 363.5 1525 c 128,-1,14
 452 1579 452 1579 578 1579 c 0,15,16
 696 1579 696 1579 784 1525.5 c 128,-1,17
 872 1472 872 1472 930.5 1369.5 c 128,-1,18
 989 1267 989 1267 1018 1118.5 c 128,-1,19
 1047 970 1047 970 1047 780 c 0,0,1
578 131 m 0,20,21
 651 131 651 131 703 168 c 128,-1,22
 755 205 755 205 789.5 279 c 128,-1,23
 824 353 824 353 841.5 464.5 c 128,-1,24
 859 576 859 576 862 725 c 1,25,-1
 297 725 l 1,26,27
 299 578 299 578 315.5 466.5 c 128,-1,28
 332 355 332 355 366 280.5 c 128,-1,29
 400 206 400 206 452 168.5 c 128,-1,30
 504 131 504 131 578 131 c 0,20,21
578 1427 m 0,31,32
 507 1427 507 1427 456 1392.5 c 128,-1,33
 405 1358 405 1358 371 1289.5 c 128,-1,34
 337 1221 337 1221 319.5 1118.5 c 128,-1,35
 302 1016 302 1016 297 879 c 1,36,-1
 860 879 l 1,37,38
 851 1152 851 1152 785 1289.5 c 128,-1,39
 719 1427 719 1427 578 1427 c 0,31,32
EndSplineSet
EndChar

StartChar: iota
Encoding: 953 953 390
Width: 670
GlyphClass: 2
Flags: W
LayerCount: 2
Fore
SplineSet
346 1096 m 1,0,-1
 346 324 l 2,1,2
 346 227 346 227 377.5 178 c 128,-1,3
 409 129 409 129 481 129 c 0,4,5
 499 129 499 129 521.5 131 c 128,-1,6
 544 133 544 133 565 136 c 128,-1,7
 586 139 586 139 604 143 c 128,-1,8
 622 147 622 147 631 150 c 1,9,-1
 631 12 l 1,10,11
 618 6 618 6 597.5 0 c 128,-1,12
 577 -6 577 -6 553 -10.5 c 128,-1,13
 529 -15 529 -15 503 -17.5 c 128,-1,14
 477 -20 477 -20 453 -20 c 0,15,16
 391 -20 391 -20 338 -4 c 128,-1,17
 285 12 285 12 246.5 51 c 128,-1,18
 208 90 208 90 186 156.5 c 128,-1,19
 164 223 164 223 164 324 c 2,20,-1
 164 1096 l 1,21,-1
 346 1096 l 1,0,-1
EndSplineSet
EndChar

StartChar: lambda
Encoding: 955 955 392
Width: 1047
GlyphClass: 2
Flags: W
LayerCount: 2
Fore
SplineSet
-14 0 m 1,0,-1
 426 1075 l 1,1,-1
 373 1235 l 2,2,3
 360 1276 360 1276 344.5 1309.5 c 128,-1,4
 329 1343 329 1343 307.5 1367.5 c 128,-1,5
 286 1392 286 1392 255.5 1405.5 c 128,-1,6
 225 1419 225 1419 182 1419 c 0,7,8
 148 1419 148 1419 123 1415.5 c 128,-1,9
 98 1412 98 1412 78 1407 c 1,10,-1
 78 1552 l 1,11,12
 104 1559 104 1559 137 1564 c 128,-1,13
 170 1569 170 1569 205 1569 c 0,14,15
 279 1569 279 1569 331.5 1548 c 128,-1,16
 384 1527 384 1527 423.5 1482.5 c 128,-1,17
 463 1438 463 1438 494.5 1370.5 c 128,-1,18
 526 1303 526 1303 557 1210 c 2,19,-1
 885 240 l 2,20,21
 903 186 903 186 926 157.5 c 128,-1,22
 949 129 949 129 987 129 c 0,23,24
 1001 129 1001 129 1020 132.5 c 128,-1,25
 1039 136 1039 136 1047 139 c 1,26,-1
 1047 6 l 1,27,28
 1024 -6 1024 -6 996.5 -13 c 128,-1,29
 969 -20 969 -20 932 -20 c 0,30,31
 893 -20 893 -20 863.5 -11.5 c 128,-1,32
 834 -3 834 -3 810.5 17 c 128,-1,33
 787 37 787 37 768.5 69 c 128,-1,34
 750 101 750 101 735 147 c 2,35,-1
 600 565 l 2,36,37
 589 598 589 598 574.5 645 c 128,-1,38
 560 692 560 692 546.5 740.5 c 128,-1,39
 533 789 533 789 522 832.5 c 128,-1,40
 511 876 511 876 506 901 c 1,41,-1
 500 901 l 1,42,43
 487 824 487 824 460.5 739 c 128,-1,44
 434 654 434 654 403 575 c 2,45,-1
 174 0 l 1,46,-1
 -14 0 l 1,0,-1
EndSplineSet
EndChar

StartChar: uni03BC
Encoding: 956 956 393
Width: 1217
GlyphClass: 2
Flags: W
LayerCount: 2
Fore
SplineSet
356 391 m 2,0,1
 356 261 356 261 409 196 c 128,-1,2
 462 131 462 131 573 131 c 0,3,4
 655 131 655 131 710 157 c 128,-1,5
 765 183 765 183 798.5 233.5 c 128,-1,6
 832 284 832 284 846 358 c 128,-1,7
 860 432 860 432 860 528 c 2,8,-1
 860 1098 l 1,9,-1
 1042 1098 l 1,10,-1
 1042 0 l 1,11,-1
 895 0 l 1,12,-1
 868 147 l 1,13,-1
 858 147 l 1,14,15
 810 64 810 64 738 22 c 128,-1,16
 666 -20 666 -20 563 -20 c 0,17,18
 491 -20 491 -20 438 3 c 128,-1,19
 385 26 385 26 350 68 c 1,20,21
 351 30 351 30 353 -10 c 0,22,23
 355 -45 355 -45 355.5 -87.5 c 128,-1,24
 356 -130 356 -130 356 -172 c 2,25,-1
 356 -492 l 1,26,-1
 174 -492 l 1,27,-1
 174 1098 l 1,28,-1
 356 1098 l 1,29,-1
 356 391 l 2,0,1
EndSplineSet
EndChar

StartChar: nu
Encoding: 957 957 394
Width: 1059
GlyphClass: 2
Flags: W
LayerCount: 2
Fore
SplineSet
0 1098 m 1,0,-1
 188 1098 l 1,1,-1
 389 506 l 2,2,3
 401 473 401 473 416.5 423.5 c 128,-1,4
 432 374 432 374 447 322.5 c 128,-1,5
 462 271 462 271 474.5 225 c 128,-1,6
 487 179 487 179 492 154 c 1,7,-1
 498 154 l 1,8,9
 588 250 588 250 645 352.5 c 128,-1,10
 702 455 702 455 735 570.5 c 128,-1,11
 768 686 768 686 780.5 816.5 c 128,-1,12
 793 947 793 947 793 1098 c 1,13,-1
 975 1098 l 1,14,15
 975 935 975 935 956.5 791 c 128,-1,16
 938 647 938 647 892 513.5 c 128,-1,17
 846 380 846 380 769 253.5 c 128,-1,18
 692 127 692 127 575 0 c 1,19,-1
 383 0 l 1,20,-1
 0 1098 l 1,0,-1
EndSplineSet
EndChar

StartChar: xi
Encoding: 958 958 395
Width: 932
GlyphClass: 2
Flags: W
LayerCount: 2
Fore
SplineSet
803 887 m 1,0,-1
 803 750 l 1,1,-1
 641 750 l 2,2,3
 560 750 560 750 496.5 725.5 c 128,-1,4
 433 701 433 701 389.5 658.5 c 128,-1,5
 346 616 346 616 323.5 559.5 c 128,-1,6
 301 503 301 503 301 438 c 0,7,8
 301 360 301 360 323.5 312 c 128,-1,9
 346 264 346 264 388 234.5 c 128,-1,10
 430 205 430 205 490 188 c 128,-1,11
 550 171 550 171 625 154 c 1,12,13
 696 139 696 139 743.5 116 c 128,-1,14
 791 93 791 93 820 63.5 c 128,-1,15
 849 34 849 34 861.5 -2 c 128,-1,16
 874 -38 874 -38 874 -80 c 0,17,18
 874 -125 874 -125 863.5 -169 c 128,-1,19
 853 -213 853 -213 836 -254 c 128,-1,20
 819 -295 819 -295 797.5 -332.5 c 128,-1,21
 776 -370 776 -370 754 -401 c 1,22,-1
 584 -401 l 1,23,24
 608 -369 608 -369 629.5 -333 c 128,-1,25
 651 -297 651 -297 668 -261 c 128,-1,26
 685 -225 685 -225 695 -191.5 c 128,-1,27
 705 -158 705 -158 705 -129 c 0,28,29
 705 -109 705 -109 698 -90.5 c 128,-1,30
 691 -72 691 -72 667 -55 c 128,-1,31
 643 -38 643 -38 597.5 -22.5 c 128,-1,32
 552 -7 552 -7 475 8 c 0,33,34
 297 42 297 42 205 141.5 c 128,-1,35
 113 241 113 241 113 422 c 0,36,37
 113 499 113 499 136.5 562.5 c 128,-1,38
 160 626 160 626 199 675.5 c 128,-1,39
 238 725 238 725 289 758.5 c 128,-1,40
 340 792 340 792 395 809 c 1,41,-1
 395 821 l 1,42,43
 294 849 294 849 237 916 c 128,-1,44
 180 983 180 983 180 1100 c 0,45,46
 180 1172 180 1172 202.5 1223 c 128,-1,47
 225 1274 225 1274 264.5 1310.5 c 128,-1,48
 304 1347 304 1347 357.5 1371.5 c 128,-1,49
 411 1396 411 1396 473 1415 c 1,50,51
 439 1412 439 1412 400 1409 c 0,52,53
 367 1407 367 1407 324.5 1405 c 128,-1,54
 282 1403 282 1403 236 1403 c 2,55,-1
 174 1403 l 1,56,-1
 174 1556 l 1,57,-1
 815 1556 l 1,58,-1
 815 1415 l 1,59,-1
 760 1415 l 2,60,61
 687 1415 687 1415 614.5 1396 c 128,-1,62
 542 1377 542 1377 484.5 1338 c 128,-1,63
 427 1299 427 1299 391.5 1240.5 c 128,-1,64
 356 1182 356 1182 356 1104 c 0,65,66
 356 1051 356 1051 372 1010.5 c 128,-1,67
 388 970 388 970 423 942.5 c 128,-1,68
 458 915 458 915 515 901 c 128,-1,69
 572 887 572 887 653 887 c 2,70,-1
 803 887 l 1,0,-1
EndSplineSet
EndChar

StartChar: pi
Encoding: 960 960 397
Width: 1290
GlyphClass: 2
Flags: W
LayerCount: 2
Fore
SplineSet
1104 129 m 0,0,1
 1132 129 1132 129 1155.5 135.5 c 128,-1,2
 1179 142 1179 142 1194 150 c 1,3,-1
 1194 6 l 1,4,5
 1179 -3 1179 -3 1142 -11.5 c 128,-1,6
 1105 -20 1105 -20 1057 -20 c 0,7,8
 944 -20 944 -20 887.5 46 c 128,-1,9
 831 112 831 112 831 242 c 2,10,-1
 831 944 l 1,11,-1
 428 944 l 1,12,-1
 428 0 l 1,13,-1
 246 0 l 1,14,-1
 246 944 l 1,15,-1
 25 944 l 1,16,-1
 25 1018 l 1,17,-1
 162 1098 l 1,18,-1
 1225 1098 l 1,19,-1
 1225 944 l 1,20,-1
 1014 944 l 1,21,-1
 1014 254 l 2,22,23
 1014 184 1014 184 1037.5 156.5 c 128,-1,24
 1061 129 1061 129 1104 129 c 0,0,1
EndSplineSet
EndChar

StartChar: rho
Encoding: 961 961 398
Width: 1182
GlyphClass: 2
Flags: W
LayerCount: 2
Fore
SplineSet
1069 551 m 0,0,1
 1069 414 1069 414 1037.5 307.5 c 128,-1,2
 1006 201 1006 201 947.5 128.5 c 128,-1,3
 889 56 889 56 805.5 18 c 128,-1,4
 722 -20 722 -20 618 -20 c 0,5,6
 543 -20 543 -20 471.5 2.5 c 128,-1,7
 400 25 400 25 346 70 c 1,8,-1
 340 70 l 1,9,10
 341 27 341 27 343 -19 c 0,11,12
 345 -58 345 -58 345.5 -106.5 c 128,-1,13
 346 -155 346 -155 346 -201 c 2,14,-1
 346 -492 l 1,15,-1
 164 -492 l 1,16,-1
 164 551 l 2,17,18
 164 687 164 687 196.5 792.5 c 128,-1,19
 229 898 229 898 289 970.5 c 128,-1,20
 349 1043 349 1043 433.5 1080.5 c 128,-1,21
 518 1118 518 1118 623 1118 c 0,22,23
 720 1118 720 1118 801.5 1080.5 c 128,-1,24
 883 1043 883 1043 942.5 970.5 c 128,-1,25
 1002 898 1002 898 1035.5 792.5 c 128,-1,26
 1069 687 1069 687 1069 551 c 0,0,1
616 967 m 0,27,28
 479 967 479 967 414 869 c 128,-1,29
 349 771 349 771 346 571 c 1,30,-1
 346 231 l 1,31,32
 400 180 400 180 471.5 155.5 c 128,-1,33
 543 131 543 131 618 131 c 0,34,35
 758 131 758 131 819.5 236.5 c 128,-1,36
 881 342 881 342 881 551 c 256,37,38
 881 760 881 760 818.5 863.5 c 128,-1,39
 756 967 756 967 616 967 c 0,27,28
EndSplineSet
EndChar

StartChar: sigma1
Encoding: 962 962 399
Width: 932
GlyphClass: 2
Flags: W
LayerCount: 2
Fore
SplineSet
301 518 m 0,0,1
 301 422 301 422 315 361.5 c 128,-1,2
 329 301 329 301 365.5 262 c 128,-1,3
 402 223 402 223 465 199.5 c 128,-1,4
 528 176 528 176 625 154 c 1,5,6
 696 139 696 139 743.5 116 c 128,-1,7
 791 93 791 93 820 63.5 c 128,-1,8
 849 34 849 34 861.5 -2 c 128,-1,9
 874 -38 874 -38 874 -80 c 0,10,11
 874 -125 874 -125 863.5 -169 c 128,-1,12
 853 -213 853 -213 836 -254 c 128,-1,13
 819 -295 819 -295 797.5 -332.5 c 128,-1,14
 776 -370 776 -370 754 -401 c 1,15,-1
 584 -401 l 1,16,17
 608 -369 608 -369 629.5 -333 c 128,-1,18
 651 -297 651 -297 668 -261 c 128,-1,19
 685 -225 685 -225 695 -191.5 c 128,-1,20
 705 -158 705 -158 705 -129 c 0,21,22
 705 -109 705 -109 698 -90.5 c 128,-1,23
 691 -72 691 -72 667 -55 c 128,-1,24
 643 -38 643 -38 597.5 -22.5 c 128,-1,25
 552 -7 552 -7 475 8 c 256,26,27
 398 23 398 23 332 55.5 c 128,-1,28
 266 88 266 88 217 147 c 128,-1,29
 168 206 168 206 140.5 296 c 128,-1,30
 113 386 113 386 113 516 c 0,31,32
 113 670 113 670 149.5 783 c 128,-1,33
 186 896 186 896 251.5 970.5 c 128,-1,34
 317 1045 317 1045 406.5 1081.5 c 128,-1,35
 496 1118 496 1118 602 1118 c 0,36,37
 680 1118 680 1118 754.5 1101 c 128,-1,38
 829 1084 829 1084 879 1059 c 1,39,-1
 825 905 l 1,40,41
 802 915 802 915 774 924.5 c 128,-1,42
 746 934 746 934 716 941.5 c 128,-1,43
 686 949 686 949 657 953.5 c 128,-1,44
 628 958 628 958 602 958 c 0,45,46
 522 958 522 958 465 929.5 c 128,-1,47
 408 901 408 901 371.5 845 c 128,-1,48
 335 789 335 789 318 707 c 128,-1,49
 301 625 301 625 301 518 c 0,0,1
EndSplineSet
EndChar

StartChar: sigma
Encoding: 963 963 400
Width: 1204
GlyphClass: 2
Flags: W
LayerCount: 2
Fore
SplineSet
1069 504 m 0,0,1
 1069 393 1069 393 1038 297 c 128,-1,2
 1007 201 1007 201 946 130.5 c 128,-1,3
 885 60 885 60 795 20 c 128,-1,4
 705 -20 705 -20 588 -20 c 0,5,6
 481 -20 481 -20 393.5 15 c 128,-1,7
 306 50 306 50 243.5 119 c 128,-1,8
 181 188 181 188 147 289.5 c 128,-1,9
 113 391 113 391 113 524 c 0,10,11
 113 680 113 680 151.5 789 c 128,-1,12
 190 898 190 898 262 967 c 128,-1,13
 334 1036 334 1036 437 1067 c 128,-1,14
 540 1098 540 1098 668 1098 c 2,15,-1
 1157 1098 l 1,16,-1
 1157 944 l 1,17,-1
 891 944 l 1,18,19
 928 903 928 903 960.5 856.5 c 128,-1,20
 993 810 993 810 1017 756 c 128,-1,21
 1041 702 1041 702 1055 640 c 128,-1,22
 1069 578 1069 578 1069 504 c 0,0,1
301 524 m 0,23,24
 301 439 301 439 317.5 367 c 128,-1,25
 334 295 334 295 369.5 242.5 c 128,-1,26
 405 190 405 190 460 160.5 c 128,-1,27
 515 131 515 131 592 131 c 0,28,29
 668 131 668 131 722.5 158.5 c 128,-1,30
 777 186 777 186 812.5 235 c 128,-1,31
 848 284 848 284 864.5 351 c 128,-1,32
 881 418 881 418 881 496 c 0,33,34
 881 640 881 640 841.5 747.5 c 128,-1,35
 802 855 802 855 727 944 c 1,36,-1
 668 944 l 2,37,38
 573 944 573 944 503.5 922 c 128,-1,39
 434 900 434 900 389 850.5 c 128,-1,40
 344 801 344 801 322.5 720.5 c 128,-1,41
 301 640 301 640 301 524 c 0,23,24
EndSplineSet
EndChar

StartChar: tau
Encoding: 964 964 401
Width: 920
GlyphClass: 2
Flags: W
LayerCount: 2
Fore
SplineSet
870 1098 m 1,0,-1
 870 944 l 1,1,-1
 498 944 l 1,2,-1
 498 338 l 2,3,4
 498 279 498 279 510.5 238 c 128,-1,5
 523 197 523 197 545.5 171.5 c 128,-1,6
 568 146 568 146 599 134.5 c 128,-1,7
 630 123 630 123 666 123 c 0,8,9
 684 123 684 123 705 124.5 c 128,-1,10
 726 126 726 126 746 129 c 128,-1,11
 766 132 766 132 784 135.5 c 128,-1,12
 802 139 802 139 815 143 c 1,13,-1
 815 8 l 1,14,15
 802 2 802 2 782.5 -4 c 128,-1,16
 763 -10 763 -10 740 -15.5 c 128,-1,17
 717 -21 717 -21 690.5 -24 c 128,-1,18
 664 -27 664 -27 637 -27 c 0,19,20
 573 -27 573 -27 514.5 -12.5 c 128,-1,21
 456 2 456 2 411.5 40.5 c 128,-1,22
 367 79 367 79 341 146 c 128,-1,23
 315 213 315 213 315 317 c 2,24,-1
 315 944 l 1,25,-1
 18 944 l 1,26,-1
 18 1018 l 1,27,-1
 152 1098 l 1,28,-1
 870 1098 l 1,0,-1
EndSplineSet
EndChar

StartChar: upsilon
Encoding: 965 965 402
Width: 1208
GlyphClass: 2
Flags: W
LayerCount: 2
Fore
SplineSet
604 -20 m 0,0,1
 475 -20 475 -20 390 20 c 128,-1,2
 305 60 305 60 255 130 c 128,-1,3
 205 200 205 200 184.5 294.5 c 128,-1,4
 164 389 164 389 164 498 c 2,5,-1
 164 1098 l 1,6,-1
 346 1098 l 1,7,-1
 346 508 l 2,8,9
 346 422 346 422 362 352 c 128,-1,10
 378 282 378 282 411 232.5 c 128,-1,11
 444 183 444 183 495 156 c 128,-1,12
 546 129 546 129 616 129 c 0,13,14
 762 129 762 129 832.5 245 c 128,-1,15
 903 361 903 361 903 608 c 0,16,17
 903 679 903 679 898.5 741.5 c 128,-1,18
 894 804 894 804 886 862.5 c 128,-1,19
 878 921 878 921 866.5 979 c 128,-1,20
 855 1037 855 1037 840 1098 c 1,21,-1
 1022 1098 l 1,22,23
 1037 1037 1037 1037 1049 980 c 128,-1,24
 1061 923 1061 923 1069 863.5 c 128,-1,25
 1077 804 1077 804 1081 739.5 c 128,-1,26
 1085 675 1085 675 1085 600 c 0,27,28
 1085 281 1085 281 963 130.5 c 128,-1,29
 841 -20 841 -20 604 -20 c 0,0,1
EndSplineSet
EndChar

StartChar: phi
Encoding: 966 966 403
Width: 1430
GlyphClass: 2
Flags: W
LayerCount: 2
Fore
SplineSet
614 -492 m 1,0,-1
 614 -18 l 1,1,2
 505 -13 505 -13 413.5 20.5 c 128,-1,3
 322 54 322 54 255 122.5 c 128,-1,4
 188 191 188 191 150.5 297.5 c 128,-1,5
 113 404 113 404 113 555 c 0,6,7
 113 638 113 638 129 714 c 128,-1,8
 145 790 145 790 173 859 c 128,-1,9
 201 928 201 928 240 990.5 c 128,-1,10
 279 1053 279 1053 324 1108 c 1,11,-1
 465 1012 l 1,12,13
 428 961 428 961 396.5 909 c 128,-1,14
 365 857 365 857 342.5 800 c 128,-1,15
 320 743 320 743 307.5 680.5 c 128,-1,16
 295 618 295 618 295 547 c 0,17,18
 295 436 295 436 320.5 359.5 c 128,-1,19
 346 283 346 283 390 234.5 c 128,-1,20
 434 186 434 186 492 162 c 128,-1,21
 550 138 550 138 614 131 c 1,22,-1
 614 737 l 2,23,24
 614 925 614 925 696.5 1021.5 c 128,-1,25
 779 1118 779 1118 924 1118 c 0,26,27
 1014 1118 1014 1118 1087 1078 c 128,-1,28
 1160 1038 1160 1038 1211 966 c 128,-1,29
 1262 894 1262 894 1289.5 793.5 c 128,-1,30
 1317 693 1317 693 1317 571 c 0,31,32
 1317 422 1317 422 1274 313.5 c 128,-1,33
 1231 205 1231 205 1159 133 c 128,-1,34
 1087 61 1087 61 992 24 c 128,-1,35
 897 -13 897 -13 793 -18 c 1,36,-1
 793 -492 l 1,37,-1
 614 -492 l 1,0,-1
1128 569 m 0,38,39
 1128 667 1128 667 1113 741 c 128,-1,40
 1098 815 1098 815 1071 865.5 c 128,-1,41
 1044 916 1044 916 1007.5 941.5 c 128,-1,42
 971 967 971 967 928 967 c 0,43,44
 901 967 901 967 876.5 955.5 c 128,-1,45
 852 944 852 944 833.5 917.5 c 128,-1,46
 815 891 815 891 804 847.5 c 128,-1,47
 793 804 793 804 793 739 c 2,48,-1
 793 131 l 1,49,50
 865 138 865 138 926.5 167.5 c 128,-1,51
 988 197 988 197 1032.5 250.5 c 128,-1,52
 1077 304 1077 304 1102.5 383.5 c 128,-1,53
 1128 463 1128 463 1128 569 c 0,38,39
EndSplineSet
EndChar

StartChar: chi
Encoding: 967 967 404
Width: 1073
GlyphClass: 2
Flags: W
LayerCount: 2
Fore
SplineSet
188 1102 m 256,0,1
 233 1102 233 1102 269.5 1086.5 c 128,-1,2
 306 1071 306 1071 335 1040 c 128,-1,3
 364 1009 364 1009 388.5 963 c 128,-1,4
 413 917 413 917 434 856 c 2,5,-1
 557 512 l 1,6,-1
 844 1098 l 1,7,-1
 1022 1098 l 1,8,-1
 625 322 l 1,9,-1
 803 -158 l 2,10,11
 817 -196 817 -196 831.5 -229 c 128,-1,12
 846 -262 846 -262 865 -287.5 c 128,-1,13
 884 -313 884 -313 910 -327.5 c 128,-1,14
 936 -342 936 -342 973 -342 c 0,15,16
 999 -342 999 -342 1022 -339.5 c 128,-1,17
 1045 -337 1045 -337 1061 -334 c 1,18,-1
 1061 -475 l 1,19,20
 1039 -481 1039 -481 1010.5 -486.5 c 128,-1,21
 982 -492 982 -492 942 -492 c 0,22,23
 875 -492 875 -492 827.5 -473 c 128,-1,24
 780 -454 780 -454 744.5 -419 c 128,-1,25
 709 -384 709 -384 683.5 -333 c 128,-1,26
 658 -282 658 -282 635 -217 c 2,27,-1
 504 145 l 1,28,-1
 174 -492 l 1,29,-1
 -20 -492 l 1,30,-1
 434 338 l 1,31,-1
 274 784 l 1,32,33
 247 863 247 863 211.5 907.5 c 128,-1,34
 176 952 176 952 123 952 c 0,35,36
 87 952 87 952 59 942 c 1,37,-1
 59 1085 l 1,38,39
 81 1092 81 1092 112 1097 c 128,-1,40
 143 1102 143 1102 188 1102 c 256,0,1
EndSplineSet
EndChar

